<svg xmlns="http://www.w3.org/2000/svg" viewBox="0 0 50 50"><defs><style>.cls-1{fill:#59adc1;}</style></defs><g id="Layer_2" data-name="Layer 2"><g id="Layer_1-2" data-name="Layer 1"><path class="cls-1" d="M46.88,50a38.82,38.82,0,0,1-16.43-3.89,54.23,54.23,0,0,1-15.52-11,54.23,54.23,0,0,1-11-15.52A38.82,38.82,0,0,1,0,3.13,3,3,0,0,1,3.13,0h9.72a2.26,2.26,0,0,1,1.66.69,3.84,3.84,0,0,1,1,1.74l1.87,8.73a5.31,5.31,0,0,1,0,1.79,2.77,2.77,0,0,1-.75,1.37l-6.93,7A59.33,59.33,0,0,0,13.47,27a44.58,44.58,0,0,0,4.45,5,51.08,51.08,0,0,0,5.41,4.83,42.53,42.53,0,0,0,6,3.85l6.59-6.8a3.53,3.53,0,0,1,1.61-1,4,4,0,0,1,1.8-.14l8.26,1.8a3.4,3.4,0,0,1,1.74,1.12A2.87,2.87,0,0,1,50,37.5v9.38A3,3,0,0,1,46.88,50ZM7.57,17.5l5.62-5.69L11.6,4.17H4.17a31.89,31.89,0,0,0,.93,6.14A50.16,50.16,0,0,0,7.57,17.5ZM33.19,42.71a34.14,34.14,0,0,0,6.19,2.15,32,32,0,0,0,6.45,1V38.4l-7.15-1.46Z"/></g></g></svg>