<svg xmlns="http://www.w3.org/2000/svg" viewBox="0 0 50 50.96"><defs><style>.cls-1{fill:#69d1ed;}</style></defs><g id="Layer_2" data-name="Layer 2"><g id="Layer_1-2" data-name="Layer 1"><path class="cls-1" d="M15,51A4.36,4.36,0,0,1,11.8,49.6a4.45,4.45,0,0,1-1.34-3.25,4.39,4.39,0,0,1,1.35-3.24,4.47,4.47,0,0,1,3.25-1.34,4.36,4.36,0,0,1,3.24,1.36,4.59,4.59,0,0,1,0,6.49A4.47,4.47,0,0,1,15,51Zm25.51,0a4.36,4.36,0,0,1-3.24-1.36A4.45,4.45,0,0,1,36,46.35a4.39,4.39,0,0,1,1.35-3.24,4.47,4.47,0,0,1,3.25-1.34,4.36,4.36,0,0,1,3.24,1.36,4.59,4.59,0,0,1,0,6.49A4.47,4.47,0,0,1,40.55,51ZM11.73,8.86l7,14.55H37.12l8-14.55ZM9.82,5H47.39a2.42,2.42,0,0,1,2.23,1.34,2.54,2.54,0,0,1,0,2.68L41,24.55a5.78,5.78,0,0,1-1.82,1.95,4.4,4.4,0,0,1-2.46.73H17.41l-3.57,6.63H45.15v3.83H14.41a4.29,4.29,0,0,1-3.86-1.78,3.68,3.68,0,0,1,0-4l4.08-7.53L5,3.83H0V0H7.46Zm8.93,18.37h0Z"/></g></g></svg>