<svg xmlns="http://www.w3.org/2000/svg" viewBox="0 0 50 50"><defs><style>.cls-1{fill:#69d1ed;}</style></defs><g id="Layer_2" data-name="Layer 2"><g id="Layer_1-2" data-name="Layer 1"><path class="cls-1" d="M3.89,50,0,46.11,28.47,17.64a10.19,10.19,0,0,1-.34-6.6,13.56,13.56,0,0,1,3.95-6.6,14.28,14.28,0,0,1,8.2-4.3,8.13,8.13,0,0,1,9.58,9.58,14.28,14.28,0,0,1-4.3,8.2,13.65,13.65,0,0,1-6.6,4,10.26,10.26,0,0,1-6.6-.35L28.89,25,50,46.11,46.11,50,25,29Zm8.19-23.75L3.75,17.92A12.23,12.23,0,0,1,0,9,12.23,12.23,0,0,1,3.75,0L21,17.36Z"/></g></g></svg>