<svg xmlns="http://www.w3.org/2000/svg" viewBox="0 0 36.72 50"><g id="Layer_2" data-name="Layer 2"><g id="Layer_1-2" data-name="Layer 1"><path d="M18.36,50a4.92,4.92,0,0,1-5-5h9.92a4.92,4.92,0,0,1-5,5ZM8.45,41.25V37.58H28.27v3.67Zm.3-7.41a20,20,0,0,1-6.39-6.58A17,17,0,0,1,0,18.36,17.64,17.64,0,0,1,5.45,5.45,17.64,17.64,0,0,1,18.36,0,17.64,17.64,0,0,1,31.27,5.45a17.64,17.64,0,0,1,5.45,12.91,17.21,17.21,0,0,1-2.33,8.9A19.49,19.49,0,0,1,28,33.84Zm1.35-3.67H26.68a14.18,14.18,0,0,0,4.65-5.08,13.67,13.67,0,0,0,1.72-6.73A14.12,14.12,0,0,0,28.73,8,14.12,14.12,0,0,0,18.36,3.67,14.12,14.12,0,0,0,8,8,14.12,14.12,0,0,0,3.67,18.36a13.67,13.67,0,0,0,1.72,6.73A14,14,0,0,0,10.1,30.17Z"/></g></g></svg>