<svg xmlns="http://www.w3.org/2000/svg" viewBox="0 0 40 50"><g id="Layer_2" data-name="Layer 2"><g id="Layer_1-2" data-name="Layer 1"><path d="M7.13,42.94h3.75V39.19H7.13Zm0-9.75h3.75V22.81H7.13ZM18,42.94h3.75V32.31H18Zm0-16.38h3.75V22.81H18ZM29.38,42.94h3.75V39.19H29.38Zm0-9.75h3.75V22.81H29.38ZM3.75,50a3.58,3.58,0,0,1-2.62-1.12A3.61,3.61,0,0,1,0,46.25V14.94L14.94,0H36.25a3.61,3.61,0,0,1,2.63,1.13A3.58,3.58,0,0,1,40,3.75v42.5A3.83,3.83,0,0,1,36.25,50Zm0-3.75h32.5V3.75H16.63L3.75,16.63Zm0,0h0Z"/></g></g></svg>