<svg xmlns="http://www.w3.org/2000/svg" viewBox="0 0 50 40"><defs><style>.cls-1{fill:#69d1ed;}</style></defs><g id="Layer_2" data-name="Layer 2"><g id="Layer_1-2" data-name="Layer 1"><path class="cls-1" d="M10,40a9.62,9.62,0,0,1-7.06-2.94A9.62,9.62,0,0,1,0,30V10A9.62,9.62,0,0,1,2.94,2.94,9.62,9.62,0,0,1,10,0H40a9.62,9.62,0,0,1,7.06,2.94A9.62,9.62,0,0,1,50,10V30A10,10,0,0,1,40,40Zm0-29.37H40a10.08,10.08,0,0,1,3.41.56,8.78,8.78,0,0,1,2.84,1.62V10A6.18,6.18,0,0,0,40,3.75H10A6.18,6.18,0,0,0,3.75,10v2.81a8.78,8.78,0,0,1,2.84-1.62A10.08,10.08,0,0,1,10,10.63Zm-6.06,8.5,29.81,7.18a1.75,1.75,0,0,0,.91,0,1.46,1.46,0,0,0,.78-.4l10-8.38a6.23,6.23,0,0,0-2.25-2.31A6,6,0,0,0,40,14.38H10a6,6,0,0,0-3.87,1.34A6,6,0,0,0,3.94,19.13Z"/></g></g></svg>