<?xml version="1.0" encoding="UTF-8"?>
<svg id="Layer_2" data-name="Layer 2" xmlns="http://www.w3.org/2000/svg" viewBox="0 0 745.67 744.96">
  <defs>
    <style>
      .cls-1 {
        fill: #fff;
      }
    </style>
  </defs>
  <g id="Layer_1-2" data-name="Layer 1">
    <path class="cls-1" d="M262.65,256.1c-9.63-23.52-19.26-47.05-28.89-70.57,9.3-8.88,2.83-11.17-5.33-12.75-16.63-47.61-25.4-96.61-28.07-147C199.37,7.03,202.93-.12,224.01,0c165.52,.92,331.06,.85,496.58,.07,19.8-.09,25.17,5.36,25.08,25.09-.79,165.52-.73,331.04-.17,496.56,.06,17.36-3.35,24.75-22.52,23.66-85.28-4.83-165.93-25.1-240.21-68.24-4.07-1.01-8.15-2.02-12.22-3.03,.39-58.6-.02-117.23,1.61-175.8,.54-19.41-4.27-25.38-24.46-24.98-54.27,1.08-108.59-.48-162.9-.99-2-12.76-10.5-16.65-22.16-16.25Z"/>
    <path class="cls-1" d="M470.55,474.12c4.07,1.01,8.15,2.02,12.22,3.03-10.4,9.18,.97,15.27,3.95,21.5,33.48,70.05,53.26,143.39,58.17,221.1,1.3,20.49-4,25.26-23.79,25.17-165.58-.74-331.17-.87-496.75,.03-20.53,.11-24.34-6.21-24.26-25.18C.84,555.27,1.06,390.76,0,226.26c-.16-24.31,8.02-27.73,29.6-25.91,71.93,6.04,140.65,22.95,206.33,53.08,7.35,3.37,16.42,18.31,26.72,2.68,11.65-.4,20.16,3.49,22.16,16.25-16.1,1.88-12.4,14.18-12.43,24.15-.13,51.15,1.08,102.35-.61,153.44-.72,21.66,8.3,23.85,26.19,23.65,57.52-.67,115.06,.23,172.59,.53Z"/>
  </g>
</svg>