<?xml version="1.0" encoding="UTF-8"?>
<svg id="Layer_2" data-name="Layer 2" xmlns="http://www.w3.org/2000/svg" viewBox="0 0 2627.9 1134.96">
  <defs>
    <style>
      .cls-1, .cls-2 {
        fill: #fff;
        stroke: #fff;
        stroke-miterlimit: 10;
        stroke-width: 30px;
      }

      .cls-2 {
        font-family: Quicksand-Bold, Quicksand;
        font-size: 950.12px;
        letter-spacing: -.04em;
      }
    </style>
  </defs>
  <g id="Layer_1-2" data-name="Layer 1">
    <text class="cls-2" transform="translate(503.97 822.59)"><tspan x="0" y="0">u</tspan></text>
    <path class="cls-1" d="M870.9,985.67c-2.03,118.99-179.02,118.97-181.04,0,2.03-118.98,179.02-118.97,181.04,0Z"/>
    <path class="cls-1" d="M2612.9,746.67c-2.03,118.99-179.02,118.97-181.04,0,2.03-118.98,179.02-118.97,181.04,0Z"/>
    <text class="cls-2" transform="translate(1351.46 822.59)"><tspan x="0" y="0">c</tspan></text>
    <path class="cls-1" d="M1312.03,394.24c-21.78-94.5-127.22-127.61-217.11-97.86-39.97,14.18-73.09,41.3-97.86,73.6,3.91-38.75-14.61-73.72-57.01-74.07-32.47-.67-57.62,25.8-57.01,57.96,0,0,0,288.91,0,288.91h114.01v-139.74c-.12-40.77,18.34-76.56,53.68-96.91,47.84-27.18,137-21.64,152.97,40.38,15.45,34.93,5.39,278.58,8.08,319.76-.61,32.18,24.53,58.63,57,57.96,32.45,.67,57.61-25.78,57.01-57.96-3.6-76.08,10.19-302.5-13.78-372.02Z"/>
    <text class="cls-2" transform="translate(1860 822.59)"><tspan x="0" y="0">s</tspan></text>
    <text class="cls-2" transform="translate(15 832.07)"><tspan x="0" y="0">L</tspan></text>
  </g>
</svg>