<svg xmlns="http://www.w3.org/2000/svg" viewBox="0 0 2346.58 1686.22"><defs><style>.cls-1{fill:#6f4975;}.cls-2{fill:#fff;}.cls-3{fill:#42428e;}.cls-4{fill:#f7b686;}.cls-5{fill:#2f1a31;}.cls-6{fill:#e28569;}.cls-7{fill:#ea9f75;}.cls-8{fill:#f0f7f6;}.cls-9{fill:#436e8e;}.cls-10{fill:#deebe9;}.cls-11{fill:#b2c9c6;}.cls-12{fill:#bcbf80;}.cls-13{fill:#629fb7;}.cls-14{fill:#cc6e58;}.cls-15{fill:#cfd3a3;}.cls-16{fill:#81b3cc;}</style></defs><g id="Layer_2" data-name="Layer 2"><g id="_ëîé_1" data-name="‘ëîé_1"><polygon class="cls-1" points="1327.35 983.23 1279.77 1017.17 1226.03 907.51 1327.35 983.23"/><polygon class="cls-2" points="1335.32 1058.68 1226.03 907.51 1327.35 983.23 1335.32 1058.68"/><polygon class="cls-1" points="1329.97 948.5 1305.18 966.66 1226.03 907.51 1329.97 948.5"/><polygon class="cls-2" points="1226.03 907.51 1313.26 960.74 1399.2 953.92 1226.03 907.51"/><polygon class="cls-1" points="1124.34 261.93 1082.1 302.32 1013.23 201.48 1124.34 261.93"/><polygon class="cls-2" points="1143.02 335.47 1013.23 201.48 1124.34 261.93 1143.02 335.47"/><polygon class="cls-1" points="1121.96 227.18 1100.03 248.7 1013.23 201.48 1121.96 227.18"/><polygon class="cls-2" points="1013.23 201.48 1107.17 241.69 1191.26 222.65 1013.23 201.48"/><path class="cls-3" d="M1848.72,911.92a1.41,1.41,0,0,1-.14-1.26,5.33,5.33,0,0,1,2.64-2.28c-1.52.14-3.58.19-4.38-.62a1.28,1.28,0,0,1-.34-1.24c.57-2.85,7.44-1.92,7.73-1.89l-.07.48c-1.85-.28-6.79-.5-7.19,1.51a.82.82,0,0,0,.21.8c1,.94,4.44.47,5.72.23l.12.46s-3.47,1.25-4,2.71a1,1,0,0,0,.1.85Z"/><path class="cls-3" d="M1934.2,852.46l-.27-.39c1-.82,3.59-3.23,3.46-4.57a.8.8,0,0,0-.48-.66,1.24,1.24,0,0,0-.62-.15c-1.79,0-4.25,3.3-5.12,4.74l-.41-.25c.14-.23,3.08-5,5.54-5a1.69,1.69,0,0,1,.84.21,1.32,1.32,0,0,1,.74,1c.1,1.14-1.23,2.71-2.31,3.78a5.38,5.38,0,0,1,3.44-.59,1.4,1.4,0,0,1,.88.91l-.45.15a.94.94,0,0,0-.59-.61C1937.36,850.61,1934.24,852.44,1934.2,852.46Z"/><path class="cls-4" d="M2343,1389.48c-23.23,158.92-159.2,264.8-320.43,287.82q-19.62,2.81-39.36,5.1c-30.45-100.19-62.41-206.4-91.51-300.94h0q-3.72-12.12-7.39-24c-18.79-60.78-36.16-115.88-50.85-160.23l0,0c-19.67-59.32-61.85-131.41-73.18-145.21a11,11,0,0,0-2.16-2.2s2.57-28.07-17.69-45.21c-44-37.28-40.55-110.34-37.61-136.84.68-6.26,1.35-9.92,1.35-9.92l15.16-10.72c2.12-1.49,7.85-11.63,15.85-27.29,3.88-7.62,8.3-16.53,13.09-26.4,2.37-4.87,4.84-10,7.37-15.26,0,0,0,0,0,0,17.58-36.66,38.68-82.31,57.06-122.5,8.93-19.54,17.22-37.8,24.14-53.09,5.19-11.45,9.61-21.24,13-28.68l7-15.67a35.67,35.67,0,0,1,5.65,3.28c31.25,20.23,182.82,134.22,250.74,356.49,0,0,0,0,0,0,0,2.58,20.39,45.92,52.81,112.86,20.91,43.21,46.86,96.23,75.58,154.48q7.11,14.43,14.43,29.23h0C2283.56,1270.3,2313.15,1329.81,2343,1389.48Z"/><path class="cls-4" d="M2043.13,775.25c-101.49-218-384-291.82-324.16-197.89,12,18.91,19.15,40.27,5.86,31.26-30.46-20.66-62.59,42.18-70.77,53.28-11.79,16-45.75,60.42-63.43,74.5-44.74,35.63-89.34,63.24,18.73,136.85,35.73,24.34,47.51,77.33,80.59,127.23,62.79,94.71,182,40.92,182,40.92S2059.31,810,2043.13,775.25Z"/><path class="cls-4" d="M1320.8,831.5h0c26.3,44.58,187.64-53,187.64-53,35.2-17.93,39-51.87,20.22-83.1C1502.13,651.27,1293.92,778,1320.8,831.5Z"/><path class="cls-4" d="M1416.93,880.21h0c22.7,46.51,232.33-75.37,232.33-75.37,36.5-15.1,1.89-11.34-14.38-44C1611.9,714.82,1395.08,828.07,1416.93,880.21Z"/><path class="cls-4" d="M1522.47,925.6h0c21.76,29,137-64.64,137-64.64,24.68-18.24,23.26-44.73,4.87-66.26C1638.36,764.3,1495,888,1522.47,925.6Z"/><path class="cls-4" d="M1262.56,694h0c16.71,49,194.49-13.87,194.49-13.87,38.11-10.42,48.73-42.87,36.66-77.27C1476.68,554.31,1247.09,636.16,1262.56,694Z"/><path class="cls-5" d="M1198.85,832.46a48.45,48.45,0,0,1-34.38-14.11A47.25,47.25,0,0,1,1150.29,784l3.23-310.59a47.47,47.47,0,0,1,14.89-34.09,48.47,48.47,0,0,1,35.69-13.41L1793,448.77c26.44,1,46.94,22.29,46.67,48.43l-2.86,275.7c-.27,26.12-21.21,47-47.66,47.54l-589.24,12Zm3.28-403.18a45.13,45.13,0,0,0-31.36,12.52,44,44,0,0,0-13.83,31.64L1153.71,784a43.93,43.93,0,0,0,13.16,31.91,45,45,0,0,0,32.94,13.1l589.24-12,0,1.7,0-1.7c24.59-.51,44-19.9,44.31-44.16l2.87-275.71c.25-24.27-18.82-44-43.4-45L1204,429.31Z"/><path class="cls-6" d="M1863.44,470.54l-1.71,164.26-.66,63.19-.5,48.25c-.25,25-20.63,45.34-46,45.85l-589.23,12c-26.46.53-48.12-20.62-47.86-46.73l.46-43.82.65-63.19,2.13-203.59c.28-26.11,22.36-46.84,48.79-45.81l588.87,22.88C1843.75,424.81,1863.7,445.5,1863.44,470.54Z"/><path class="cls-2" d="M1355,469.36l-.86,82.32a14.32,14.32,0,0,1-14.49,14l-65.52-.63-4.78,0-13.13-.12a14.29,14.29,0,0,1-14.2-14.29l.44-42.33,0-4.72.22-21.17,0-4.72.1-9.38a14.31,14.31,0,0,1,14.5-14l9.49.09,4.78,0,28.71.27,4.77.05,23.33.22,4.78,0h0l7.55.07A14.27,14.27,0,0,1,1355,469.36Z"/><path class="cls-5" d="M1339.78,566.29h-.13l-83.42-.79a14.92,14.92,0,0,1-10.5-4.43,14.54,14.54,0,0,1-4.27-10.44l.86-82.32a14.86,14.86,0,0,1,14.94-14.59h.14l83.41.78a14.93,14.93,0,0,1,10.5,4.43,14.47,14.47,0,0,1,4.27,10.44l-.85,82.32A14.89,14.89,0,0,1,1339.78,566.29Zm-82.53-111.43a13.71,13.71,0,0,0-13.79,13.46l-.86,82.32a13.38,13.38,0,0,0,3.94,9.63,13.82,13.82,0,0,0,9.7,4.09l83.42.78h.12a13.71,13.71,0,0,0,13.8-13.46l.86-82.32a13.38,13.38,0,0,0-3.94-9.63,13.82,13.82,0,0,0-9.7-4.09l-83.42-.78Z"/><path class="cls-5" d="M1284.16,508.68h-.84l-40.85-.38,0-4.72,40.85.38a16.49,16.49,0,0,0,11.7-4.65,16.06,16.06,0,0,0,5-11.45l.34-33.18,4.79.05-.35,33.18a20.7,20.7,0,0,1-6.38,14.77A21.25,21.25,0,0,1,1284.16,508.68Z"/><path class="cls-5" d="M1333.25,455l-.53,50.86a24.84,24.84,0,0,1-7.64,17.7,25.48,25.48,0,0,1-18.08,7.19l-17.94-.16a14.57,14.57,0,0,0-10.34,4.11,14.13,14.13,0,0,0-4.37,10.12l-.21,20.27-4.78,0,.2-20.28a18.86,18.86,0,0,1,5.81-13.44,19.39,19.39,0,0,1,13.74-5.47l17.94.17a20.79,20.79,0,0,0,14.69-5.84,20.17,20.17,0,0,0,6.2-14.38l.53-50.85Z"/><path class="cls-5" d="M1271.66,454.42l-.14,13.05a15.34,15.34,0,0,1-15,15.06h-.6l-13.21-.12,0-4.72,13.21.12a10.62,10.62,0,0,0,10.74-10.4l.14-13Z"/><path class="cls-2" d="M1666,474.41,1557.14,476a5.3,5.3,0,0,1-5.42-5.32l.12-10.94a5.31,5.31,0,0,1,5.5-5.22l108.79,3.14a5.29,5.29,0,0,1,5.18,5.32l-.06,6.23A5.31,5.31,0,0,1,1666,474.41Z"/><path class="cls-2" d="M1802,475.68l-108.84,1.57a5.29,5.29,0,0,1-5.41-5.32l.11-10.94a5.32,5.32,0,0,1,5.5-5.23l108.79,3.15a5.3,5.3,0,0,1,5.19,5.32l-.07,6.23A5.31,5.31,0,0,1,1802,475.68Z"/><path class="cls-2" d="M1377.79,761.42,1232,765.31c-4,.11-7.35-2-7.38-4.77l-.09-10c0-2.72,3.25-4.93,7.26-4.92l145.82.43c3.89,0,7,2.14,7.06,4.77l0,5.73C1384.76,759.13,1381.68,761.32,1377.79,761.42Z"/><path class="cls-2" d="M1323.31,692.86,1232,695.3c-2.51.07-4.6-1.28-4.62-3l-.06-6.3c0-1.7,2-3.09,4.55-3.08l91.36.27c2.45,0,4.41,1.34,4.43,3l0,3.59C1327.68,691.43,1325.75,692.8,1323.31,692.86Z"/><path class="cls-2" d="M1437.7,691.88l-91.33,2.43c-2.52.07-4.61-1.28-4.63-3l-.06-6.3c0-1.7,2-3.09,4.55-3.09l91.36.28c2.45,0,4.41,1.33,4.43,3l0,3.59C1442.07,690.44,1440.14,691.81,1437.7,691.88Z"/><path class="cls-2" d="M1265.78,617.63a26.1,26.1,0,0,0-1-7.48A14.12,14.12,0,0,0,1262,605a10.48,10.48,0,0,0-4.16-2.92,14.54,14.54,0,0,0-5.34-.89,14.08,14.08,0,0,0-5.32,1,10.32,10.32,0,0,0-4.1,3,13.65,13.65,0,0,0-2.63,5.16,26,26,0,0,0-.87,7.49l.06,6.75a25.78,25.78,0,0,0,1,7.47,14.23,14.23,0,0,0,2.74,5.13,10.12,10.12,0,0,0,4.16,2.92,15.56,15.56,0,0,0,10.68-.09,10.18,10.18,0,0,0,4.1-3,14,14,0,0,0,2.61-5.17,25.75,25.75,0,0,0,.87-7.51Zm-8,12.21a8.75,8.75,0,0,1-1,2.9,4,4,0,0,1-1.67,1.61,5.42,5.42,0,0,1-2.29.49,5.26,5.26,0,0,1-2.29-.45,4.15,4.15,0,0,1-1.72-1.57,8.75,8.75,0,0,1-1.09-2.88,22.91,22.91,0,0,1-.42-4.39l-.07-8.83a22.63,22.63,0,0,1,.31-4.35,8.24,8.24,0,0,1,1-2.84,4.15,4.15,0,0,1,1.68-1.58,5.76,5.76,0,0,1,4.56,0,4.17,4.17,0,0,1,1.73,1.55,7.76,7.76,0,0,1,1.09,2.82,21.68,21.68,0,0,1,.4,4.34l.08,8.83A21.52,21.52,0,0,1,1257.83,629.84Z"/><path class="cls-2" d="M1297.05,617.35a25.92,25.92,0,0,0-1-7.49,14.13,14.13,0,0,0-2.74-5.11,10.26,10.26,0,0,0-4.17-2.91,14.57,14.57,0,0,0-5.34-.9,14.2,14.2,0,0,0-5.32,1,10.2,10.2,0,0,0-4.1,3,14.1,14.1,0,0,0-2.63,5.16,26,26,0,0,0-.87,7.5l.06,6.73a25.7,25.7,0,0,0,1,7.48,14.07,14.07,0,0,0,2.74,5.13,10.37,10.37,0,0,0,4.17,2.93,15.46,15.46,0,0,0,10.67-.1,10,10,0,0,0,4.1-3,14.24,14.24,0,0,0,2.62-5.16,26.14,26.14,0,0,0,.87-7.51Zm-7.93,12.21a9.07,9.07,0,0,1-1,2.9,4.08,4.08,0,0,1-1.68,1.6,5.09,5.09,0,0,1-2.28.49,5.17,5.17,0,0,1-2.3-.46,4,4,0,0,1-1.71-1.57,8.87,8.87,0,0,1-1.1-2.87,22.22,22.22,0,0,1-.4-4.39l-.09-8.83a20.81,20.81,0,0,1,.33-4.34,8.23,8.23,0,0,1,1-2.85,4.16,4.16,0,0,1,1.67-1.57,5.17,5.17,0,0,1,2.28-.5,5.6,5.6,0,0,1,2.29.45,4.43,4.43,0,0,1,1.73,1.54A8.45,8.45,0,0,1,1289,612a21.83,21.83,0,0,1,.39,4.34l.09,8.83A23.19,23.19,0,0,1,1289.12,629.56Z"/><path class="cls-2" d="M1328.32,617.06a25.78,25.78,0,0,0-1-7.48,13.81,13.81,0,0,0-2.73-5.11,10.31,10.31,0,0,0-4.16-2.92,14.59,14.59,0,0,0-5.35-.9,14.36,14.36,0,0,0-5.32,1,10.5,10.5,0,0,0-4.09,3,13.92,13.92,0,0,0-2.63,5.17,26,26,0,0,0-.87,7.5l.06,6.73a25.72,25.72,0,0,0,1,7.48,14.18,14.18,0,0,0,2.73,5.14l.45.49a10.57,10.57,0,0,0,3.71,2.43,14.61,14.61,0,0,0,5.36.9,14.44,14.44,0,0,0,5.32-1,10.15,10.15,0,0,0,4.09-3,14.06,14.06,0,0,0,2.62-5.17,24.68,24.68,0,0,0,.86-6.38c0-.37,0-.75,0-1.13Zm-7.9,12,0,.2a8.92,8.92,0,0,1-1,2.9,4,4,0,0,1-1.67,1.6,5.46,5.46,0,0,1-2.29.5,5.57,5.57,0,0,1-2.29-.45,3.5,3.5,0,0,1-.58-.36,4,4,0,0,1-1.14-1.21,9,9,0,0,1-1.09-2.89,22.06,22.06,0,0,1-.42-4.39l-.07-8.83a20.94,20.94,0,0,1,.32-4.34,8,8,0,0,1,1-2.85,4.23,4.23,0,0,1,1.67-1.57,5.57,5.57,0,0,1,4.57,0,4.26,4.26,0,0,1,1.73,1.53,8.14,8.14,0,0,1,1.09,2.84,23.05,23.05,0,0,1,.41,4.33l.07,8.84a23.14,23.14,0,0,1-.28,4.18Z"/><path class="cls-2" d="M1359.6,616.77a27.62,27.62,0,0,0-.54-5.57,17.76,17.76,0,0,0-.48-1.91,14.13,14.13,0,0,0-2.74-5.11,10.44,10.44,0,0,0-4.17-2.92,15.58,15.58,0,0,0-10.66.1,10.32,10.32,0,0,0-4.1,3,14,14,0,0,0-2.63,5.15,26.06,26.06,0,0,0-.87,7.5l0,5.4v1.33a25.85,25.85,0,0,0,1,7.49,14.07,14.07,0,0,0,2.73,5.13,10.22,10.22,0,0,0,4.17,2.92,15.53,15.53,0,0,0,10.67-.09,10.07,10.07,0,0,0,4.1-3,14.37,14.37,0,0,0,2.62-5.17,26.42,26.42,0,0,0,.88-7.51ZM1351.65,629a8.77,8.77,0,0,1-1,2.9,4.12,4.12,0,0,1-1.69,1.61,5.53,5.53,0,0,1-2.28.49,5.17,5.17,0,0,1-2.3-.46,4.09,4.09,0,0,1-1.71-1.56,9.22,9.22,0,0,1-1.1-2.88,22.29,22.29,0,0,1-.4-4.39l-.07-5.86,0-3a21.58,21.58,0,0,1,.33-4.34,8.24,8.24,0,0,1,1-2.84,4.19,4.19,0,0,1,1.67-1.58,5.79,5.79,0,0,1,4.57,0,4.24,4.24,0,0,1,1.73,1.55,8.14,8.14,0,0,1,1.09,2.82,17.66,17.66,0,0,1,.34,2.72h0c0,.51.06,1,.06,1.61l.08,8.83A20.76,20.76,0,0,1,1351.65,629Z"/><path class="cls-2" d="M1420.12,616.81a25.85,25.85,0,0,0-1-7.49,14.24,14.24,0,0,0-2.73-5.12,10.59,10.59,0,0,0-4.17-2.91,14.37,14.37,0,0,0-5.34-.89,14.52,14.52,0,0,0-5.32,1,10.46,10.46,0,0,0-4.09,3,13.8,13.8,0,0,0-2.63,5.16,26.42,26.42,0,0,0-.88,7.51l.07,6.73a25.46,25.46,0,0,0,1,7.48,13.94,13.94,0,0,0,2.74,5.12,10.27,10.27,0,0,0,4.16,2.94,14.59,14.59,0,0,0,5.35.9,14.91,14.91,0,0,0,5.33-1,10.41,10.41,0,0,0,4.09-3,14.19,14.19,0,0,0,2.62-5.18,26.69,26.69,0,0,0,.87-7.5ZM1412.18,629a9.16,9.16,0,0,1-1,2.9,4,4,0,0,1-1.67,1.59,5.6,5.6,0,0,1-4.58,0,3.94,3.94,0,0,1-1.72-1.56,8.58,8.58,0,0,1-1.09-2.88,20.73,20.73,0,0,1-.42-4.39l-.08-8.84a22.49,22.49,0,0,1,.32-4.34,8.24,8.24,0,0,1,1-2.84,4.17,4.17,0,0,1,1.67-1.57,5.22,5.22,0,0,1,2.27-.51,5.35,5.35,0,0,1,2.3.47,4.12,4.12,0,0,1,1.73,1.53,8.34,8.34,0,0,1,1.09,2.84,21.46,21.46,0,0,1,.4,4.32l.08,8.84A23.09,23.09,0,0,1,1412.18,629Z"/><path class="cls-2" d="M1451.4,616.52a25.72,25.72,0,0,0-1-7.48,14,14,0,0,0-2.73-5.11,10.57,10.57,0,0,0-4.18-2.93,14.93,14.93,0,0,0-5.34-.9,14.72,14.72,0,0,0-5.31,1,10.51,10.51,0,0,0-4.1,3,14.18,14.18,0,0,0-2.63,5.16,26.47,26.47,0,0,0-.88,7.51l.07,6.73a25.58,25.58,0,0,0,1,7.49,14.46,14.46,0,0,0,2.73,5.13,10.55,10.55,0,0,0,4.18,2.92,15.46,15.46,0,0,0,10.67-.1,10.11,10.11,0,0,0,4.1-3,14.5,14.5,0,0,0,2.62-5.18,26,26,0,0,0,.87-7.5Zm-7.94,12.21a9.32,9.32,0,0,1-1,2.9,4,4,0,0,1-1.68,1.59,5.38,5.38,0,0,1-2.28.51,5.31,5.31,0,0,1-2.3-.46,4.05,4.05,0,0,1-1.71-1.57,8.8,8.8,0,0,1-1.1-2.88,22.1,22.1,0,0,1-.41-4.38l-.09-8.85a21.64,21.64,0,0,1,.33-4.34,8.32,8.32,0,0,1,1-2.84,4.1,4.1,0,0,1,1.67-1.57,5,5,0,0,1,2.28-.5,5.21,5.21,0,0,1,2.29.46,4.21,4.21,0,0,1,1.73,1.54,8.22,8.22,0,0,1,1.09,2.82,21.72,21.72,0,0,1,.39,4.33l.09,8.85A23,23,0,0,1,1443.46,628.73Z"/><path class="cls-2" d="M1482.67,616.23a25.72,25.72,0,0,0-1-7.48,14.24,14.24,0,0,0-2.73-5.12,10.53,10.53,0,0,0-4.16-2.91,15.69,15.69,0,0,0-10.67.09,10.55,10.55,0,0,0-4.09,3,13.65,13.65,0,0,0-2.63,5.16,26.35,26.35,0,0,0-.88,7.5l.07,6.74a25.8,25.8,0,0,0,1,7.48,14.32,14.32,0,0,0,2.74,5.13,10.34,10.34,0,0,0,4.16,2.93,15.64,15.64,0,0,0,10.68-.1,10.34,10.34,0,0,0,4.09-3,14,14,0,0,0,2.62-5.18,26.3,26.3,0,0,0,.87-7.49Zm-7.94,12.21a9,9,0,0,1-1,2.9,4,4,0,0,1-1.67,1.6,5.31,5.31,0,0,1-2.29.5,5.13,5.13,0,0,1-2.29-.46,4.08,4.08,0,0,1-1.72-1.57,8.61,8.61,0,0,1-1.09-2.87,20.8,20.8,0,0,1-.42-4.39l-.07-8.84a21.18,21.18,0,0,1,.31-4.35,8.26,8.26,0,0,1,1-2.83,4.13,4.13,0,0,1,1.67-1.58,5.38,5.38,0,0,1,2.28-.5,5.16,5.16,0,0,1,2.29.46,4.15,4.15,0,0,1,1.73,1.54,8.1,8.1,0,0,1,1.09,2.82,22.6,22.6,0,0,1,.4,4.34l.08,8.84A23,23,0,0,1,1474.73,628.44Z"/><path class="cls-2" d="M1514,616a25.85,25.85,0,0,0-1-7.49,14.09,14.09,0,0,0-2.73-5.12,10.42,10.42,0,0,0-4.18-2.91,15.4,15.4,0,0,0-10.65.1,11,11,0,0,0-2.13,1.16,10.3,10.3,0,0,0-2,1.83,14.18,14.18,0,0,0-2.63,5.16,26.42,26.42,0,0,0-.88,7.51l.07,6.73a25.46,25.46,0,0,0,1,7.48,13.94,13.94,0,0,0,2.74,5.12,10.23,10.23,0,0,0,4.17,2.94,12.57,12.57,0,0,0,1.84.54,15.79,15.79,0,0,0,3.5.36,14.83,14.83,0,0,0,5.33-1,10.51,10.51,0,0,0,4.1-3,14.33,14.33,0,0,0,2.61-5.18,25.69,25.69,0,0,0,.88-7.5Zm-8,12.21a8.69,8.69,0,0,1-1,2.9,4,4,0,0,1-1.67,1.59,5.24,5.24,0,0,1-2.28.51,5.31,5.31,0,0,1-2.3-.47,2.38,2.38,0,0,1-.41-.23,4,4,0,0,1-1.31-1.34,8.65,8.65,0,0,1-1.09-2.87,23,23,0,0,1-.41-4.39l-.08-8.84a21.8,21.8,0,0,1,.31-4.34c0-.22.09-.44.15-.64a7.36,7.36,0,0,1,.88-2.2,4,4,0,0,1,1.68-1.57,5.16,5.16,0,0,1,2.27-.51,5.49,5.49,0,0,1,2.3.46,4.19,4.19,0,0,1,1.72,1.54,8.18,8.18,0,0,1,1.1,2.82,22.69,22.69,0,0,1,.39,4.34l.09,8.84A23,23,0,0,1,1506,628.16Z"/><path class="cls-2" d="M1570.29,616a25.85,25.85,0,0,0-1-7.49,14.25,14.25,0,0,0-2.74-5.12,10.39,10.39,0,0,0-4.17-2.91,15.4,15.4,0,0,0-10.65.1,10.42,10.42,0,0,0-4.1,3,13.87,13.87,0,0,0-2.63,5.16,26.42,26.42,0,0,0-.88,7.51l.07,6.73a25.46,25.46,0,0,0,1,7.48,14.07,14.07,0,0,0,2.73,5.12,10.37,10.37,0,0,0,4.17,2.94,15.48,15.48,0,0,0,10.68-.1,10.51,10.51,0,0,0,4.1-3,14.32,14.32,0,0,0,2.6-5.18,25.67,25.67,0,0,0,.89-7.5Zm-8,12.21a8.92,8.92,0,0,1-1,2.9,4.09,4.09,0,0,1-1.67,1.59,5.6,5.6,0,0,1-4.58,0,4,4,0,0,1-1.72-1.57,8.65,8.65,0,0,1-1.09-2.87,22.13,22.13,0,0,1-.42-4.39l-.08-8.84a22.49,22.49,0,0,1,.32-4.34,8.46,8.46,0,0,1,1-2.84,4,4,0,0,1,1.69-1.57,5.15,5.15,0,0,1,2.26-.51,5.38,5.38,0,0,1,2.29.46,4.12,4.12,0,0,1,1.74,1.54,8.18,8.18,0,0,1,1.1,2.82,22.69,22.69,0,0,1,.39,4.34l.08,8.84A22.3,22.3,0,0,1,1562.34,628.16Z"/><path class="cls-2" d="M1601.56,615.66a25.72,25.72,0,0,0-1-7.48,14,14,0,0,0-2.73-5.11,10.54,10.54,0,0,0-4.17-2.93,15.43,15.43,0,0,0-10.66.1,10.51,10.51,0,0,0-4.1,3,13.79,13.79,0,0,0-2.62,5.16,26.09,26.09,0,0,0-.89,7.51l.06,6.73a25.9,25.9,0,0,0,1,7.49,14.17,14.17,0,0,0,2.75,5.13,10.41,10.41,0,0,0,4.16,2.92,15.46,15.46,0,0,0,10.67-.1,10.37,10.37,0,0,0,4.1-3,14.35,14.35,0,0,0,2.62-5.18,26.74,26.74,0,0,0,.87-7.5Zm-7.94,12.21a9.16,9.16,0,0,1-1,2.9,3.93,3.93,0,0,1-1.68,1.59,5.38,5.38,0,0,1-2.28.51,5.54,5.54,0,0,1-2.29-.46,4.08,4.08,0,0,1-1.72-1.57,8.58,8.58,0,0,1-1.09-2.88,20.63,20.63,0,0,1-.42-4.38l-.09-8.85a22.41,22.41,0,0,1,.33-4.34,8.38,8.38,0,0,1,1-2.85,4.07,4.07,0,0,1,1.67-1.56,5,5,0,0,1,2.27-.5,5.23,5.23,0,0,1,2.3.46,4.14,4.14,0,0,1,1.73,1.54,8.43,8.43,0,0,1,1.09,2.82,21.72,21.72,0,0,1,.39,4.33l.09,8.85A23,23,0,0,1,1593.62,627.87Z"/><path class="cls-2" d="M1632.84,615.37a26,26,0,0,0-1-7.48,14.24,14.24,0,0,0-2.73-5.12,10.62,10.62,0,0,0-4.17-2.92,15.71,15.71,0,0,0-10.65.1,10.44,10.44,0,0,0-4.1,3,13.65,13.65,0,0,0-2.63,5.16,26.35,26.35,0,0,0-.88,7.5l.07,6.73a25.53,25.53,0,0,0,1,7.49,14.27,14.27,0,0,0,2.74,5.12,10.15,10.15,0,0,0,4.16,2.93,14.38,14.38,0,0,0,5.35.9,14.7,14.7,0,0,0,5.33-1,10.44,10.44,0,0,0,4.1-3,14.25,14.25,0,0,0,2.61-5.18,26,26,0,0,0,.87-7.5Zm-7.95,12.21a8.92,8.92,0,0,1-1,2.89,4,4,0,0,1-1.67,1.61,5.24,5.24,0,0,1-2.29.5,5.16,5.16,0,0,1-2.29-.46,4,4,0,0,1-1.72-1.57,8.61,8.61,0,0,1-1.09-2.87,22.21,22.21,0,0,1-.42-4.39l-.08-8.85a22.49,22.49,0,0,1,.32-4.34,8.26,8.26,0,0,1,1-2.83,4.05,4.05,0,0,1,1.68-1.59,5.28,5.28,0,0,1,2.26-.49,5.13,5.13,0,0,1,2.29.46,4.11,4.11,0,0,1,1.74,1.54,7.91,7.91,0,0,1,1.09,2.82,21.75,21.75,0,0,1,.4,4.34l.08,8.84A22.26,22.26,0,0,1,1624.89,627.58Z"/><path class="cls-2" d="M1664.11,615.09a25.85,25.85,0,0,0-1-7.49,14.24,14.24,0,0,0-2.73-5.12,10.29,10.29,0,0,0-4.18-2.91,14.5,14.5,0,0,0-5.34-.9,14.72,14.72,0,0,0-5.31,1,10.44,10.44,0,0,0-4.1,3,14,14,0,0,0-2.62,5.16,26,26,0,0,0-.89,7.51l.07,6.73a25.46,25.46,0,0,0,1,7.48,14.16,14.16,0,0,0,2.73,5.12,10.5,10.5,0,0,0,4.18,2.94,15.46,15.46,0,0,0,10.67-.1,10.23,10.23,0,0,0,4.1-3,14.21,14.21,0,0,0,2.62-5.17,26.06,26.06,0,0,0,.87-7.5Zm-7.94,12.21a9.42,9.42,0,0,1-1,2.9,4.11,4.11,0,0,1-1.68,1.59,5.09,5.09,0,0,1-2.28.49,5,5,0,0,1-2.3-.45,4.18,4.18,0,0,1-1.71-1.57,8.65,8.65,0,0,1-1.1-2.87,22.21,22.21,0,0,1-.41-4.39l-.09-8.84a23.16,23.16,0,0,1,.33-4.34,8.24,8.24,0,0,1,1-2.84,4,4,0,0,1,1.67-1.57,5.17,5.17,0,0,1,2.28-.51,5.51,5.51,0,0,1,2.29.46,4.28,4.28,0,0,1,1.73,1.54,8.39,8.39,0,0,1,1.09,2.82,21.91,21.91,0,0,1,.39,4.34l.09,8.83A23.21,23.21,0,0,1,1656.17,627.3Z"/><path class="cls-2" d="M1724.28,614.56a26.62,26.62,0,0,0-.84-6.81v0c0-.22-.12-.44-.18-.65a14,14,0,0,0-2.74-5.12,10.51,10.51,0,0,0-4.16-2.92,15.45,15.45,0,0,0-10.67.1,10.74,10.74,0,0,0-4.1,3,13.93,13.93,0,0,0-2.62,5.16c-.1.33-.19.69-.26,1a26.45,26.45,0,0,0-.61,6.47l.05,6.73a26.22,26.22,0,0,0,1,7.49,14.17,14.17,0,0,0,2.73,5.12,10.41,10.41,0,0,0,4.16,2.93,14.54,14.54,0,0,0,5.34.9,14.79,14.79,0,0,0,5.33-1,10.32,10.32,0,0,0,4.1-3,14.11,14.11,0,0,0,2.62-5.18,26,26,0,0,0,.87-7.5Zm-7.93,12.21a8.83,8.83,0,0,1-1,2.9,3.88,3.88,0,0,1-1.68,1.59,5.38,5.38,0,0,1-2.28.51,5.13,5.13,0,0,1-2.29-.46,4.15,4.15,0,0,1-1.72-1.57,8.8,8.8,0,0,1-1.09-2.88,21.38,21.38,0,0,1-.41-4.38l-.08-8.85a21,21,0,0,1,.32-4.34,8.18,8.18,0,0,1,1-2.85,4.23,4.23,0,0,1,1.67-1.57,4.71,4.71,0,0,1,.52-.21,5.24,5.24,0,0,1,1.76-.28,6.51,6.51,0,0,1,1.19.1h0a4.3,4.3,0,0,1,2.81,1.9,8.1,8.1,0,0,1,1.09,2.82,23.14,23.14,0,0,1,.41,4.33l.07,8.85A24,24,0,0,1,1716.35,626.77Z"/><path class="cls-2" d="M1755.56,614.26a25.34,25.34,0,0,0-1-7.47,14,14,0,0,0-2.75-5.12,10.22,10.22,0,0,0-4.16-2.91,14.33,14.33,0,0,0-5.34-.9,14.56,14.56,0,0,0-5.32,1,10.51,10.51,0,0,0-4.1,3,12.77,12.77,0,0,0-1.38,2,16.11,16.11,0,0,0-1.25,3.12,20.85,20.85,0,0,0-.7,3.72,30.14,30.14,0,0,0-.17,3.77l.06,6.75a25.78,25.78,0,0,0,1,7.48,14.1,14.1,0,0,0,2.73,5.12,10.33,10.33,0,0,0,4.16,2.94,15.64,15.64,0,0,0,10.68-.1,10.37,10.37,0,0,0,4.1-3,14.17,14.17,0,0,0,2.61-5.18,25.9,25.9,0,0,0,.89-7.49Zm-8,12.22a8.19,8.19,0,0,1-1,2.89,4,4,0,0,1-1.67,1.61,5.24,5.24,0,0,1-2.29.49,5,5,0,0,1-2.29-.45,4.21,4.21,0,0,1-1.72-1.57,9,9,0,0,1-1.09-2.87,22.37,22.37,0,0,1-.4-4.39l-.09-8.84a23.35,23.35,0,0,1,.31-4.34,8.24,8.24,0,0,1,1-2.84,4.18,4.18,0,0,1,1.68-1.59,5.45,5.45,0,0,1,2.27-.49,5.17,5.17,0,0,1,2.3.46,4.12,4.12,0,0,1,1.72,1.54,8.1,8.1,0,0,1,1.1,2.82,23.44,23.44,0,0,1,.4,4.34l.08,8.83A22.16,22.16,0,0,1,1747.61,626.48Z"/><path class="cls-2" d="M1786.83,614a26,26,0,0,0-1-7.5,14.13,14.13,0,0,0-2.74-5.11,10.29,10.29,0,0,0-4.16-2.91,15.45,15.45,0,0,0-10.67.1,10.56,10.56,0,0,0-4.1,3,13.93,13.93,0,0,0-2.62,5.16,25.72,25.72,0,0,0-.88,7.51l.06,6.73a25.75,25.75,0,0,0,1,7.48,14.16,14.16,0,0,0,2.73,5.12,10.5,10.5,0,0,0,4.16,2.94,15.46,15.46,0,0,0,10.67-.1,10.23,10.23,0,0,0,4.1-3,14.19,14.19,0,0,0,2.62-5.18,26.06,26.06,0,0,0,.87-7.5Zm-7.93,12.21a8.92,8.92,0,0,1-1,2.9,4.06,4.06,0,0,1-1.68,1.59,5.38,5.38,0,0,1-2.28.51,5.45,5.45,0,0,1-2.29-.47,4.08,4.08,0,0,1-1.72-1.57,8.65,8.65,0,0,1-1.09-2.87,21.48,21.48,0,0,1-.41-4.39l-.08-8.84a21.72,21.72,0,0,1,.32-4.34,8.3,8.3,0,0,1,1-2.85,4.07,4.07,0,0,1,1.67-1.56,5.2,5.2,0,0,1,2.28-.51,5.6,5.6,0,0,1,2.29.45,4.32,4.32,0,0,1,1.73,1.55,8.39,8.39,0,0,1,1.09,2.82,22.52,22.52,0,0,1,.41,4.34l.07,8.83A23.23,23.23,0,0,1,1778.9,626.2Z"/><path class="cls-2" d="M1818.11,613.7a26,26,0,0,0-1-7.48,14.18,14.18,0,0,0-2.75-5.12,10.51,10.51,0,0,0-4.16-2.92,15.43,15.43,0,0,0-10.66.1,10.59,10.59,0,0,0-4.1,3,14,14,0,0,0-2.63,5.16,26.09,26.09,0,0,0-.87,7.51l.06,6.73a25.9,25.9,0,0,0,1,7.49,14.25,14.25,0,0,0,2.73,5.12,10.41,10.41,0,0,0,4.16,2.93,15.48,15.48,0,0,0,10.68-.1,10.37,10.37,0,0,0,4.1-3,14.33,14.33,0,0,0,2.61-5.18,26,26,0,0,0,.89-7.5Zm-7.94,12.21a8.77,8.77,0,0,1-1,2.89,3.88,3.88,0,0,1-1.67,1.6,5.39,5.39,0,0,1-2.29.51,5.67,5.67,0,0,1-2.29-.46,4.21,4.21,0,0,1-1.72-1.57,9.13,9.13,0,0,1-1.09-2.88,22.89,22.89,0,0,1-.41-4.38l-.08-8.85a22.49,22.49,0,0,1,.32-4.34,8.23,8.23,0,0,1,1-2.85,4.19,4.19,0,0,1,1.68-1.57,5.15,5.15,0,0,1,2.27-.49,5.1,5.1,0,0,1,2.29.46,4,4,0,0,1,1.73,1.54,7.84,7.84,0,0,1,1.09,2.82,22.32,22.32,0,0,1,.41,4.33l.07,8.85A22.34,22.34,0,0,1,1810.17,625.91Z"/><path class="cls-4" d="M1594.62,669.64c4.76,26.71,59.66,67.62,128,75.2s33.22,238.79,147.76,246.7,188-106.55,188-106.55-24.54-153.35-114.21-201.87c-70-37.89-186.44-24.91-253-29.84l-10.81-.82c-39.12-3-65.77-5.56-78.17.24C1595.68,655.71,1593.08,661,1594.62,669.64Z"/><path class="cls-7" d="M1932.75,963.45c-32.81,0-90.06-7.1-130-51.1-31.48-34.71-45.72-116.92-46.31-120.4a4.37,4.37,0,1,1,8.62-1.47c.14.83,14.4,83.19,44.17,116,54.54,60.14,146.88,46.89,147.79,46.72a4.38,4.38,0,0,1,1.32,8.65A184.63,184.63,0,0,1,1932.75,963.45Z"/><path class="cls-7" d="M1602.15,652.7c-7.81,10.1,12.12,22.86,41,23.47,20,.43,23.34-24.21,22.68-24.84C1626.76,648.3,1614.55,646.9,1602.15,652.7Z"/><path class="cls-8" d="M2177.18,1034l87.11,176.61L1934,1371.82l-54.4,12.38s-53.26-177.66-45.43-189.63,116.2-27.56,197.62-75.76S2168.74,1014.6,2177.18,1034Z"/><path class="cls-9" d="M2346.53,1303.34c0,37.89.74,57.07-3.51,86.14-23.23,158.92-159.2,264.8-320.43,287.82-23.91,3.42-49.73,6.49-75.77,8.92-8.23-32.85-67.22-267.84-67.22-302-5.38-82.58,138.32-61.06,226.33-101.76s135.4-118,162.49-101.94C2276,1185,2306.46,1234.4,2346.53,1303.34Z"/><path class="cls-10" d="M2201.06,1193.64c.64-15.17-7.8-23-18.79-31.67-8.54-6.73-15-15-17.55-25.74-2.64-11.18,1.78-24.56-4.5-34.7-5.34-8.64-15.37-13.58-21.49-21.75-3.34-4.47,3.84-9.3,7.16-4.85,6.39,8.53,16.65,13.46,22.15,22.75,6.42,10.87,2.56,23.21,4.78,34.93,2.85,15.12,14.33,20.82,24.59,30.36a38.12,38.12,0,0,1,12.29,30.17c-.24,5.51-8.88,6.08-8.64.5Z"/><path class="cls-10" d="M2140.7,1228.32c4.89-22.66-27.51-33-36.66-49.86-4.76-8.8-4.38-18.25-4.1-28,.27-9.42-.28-23.64-11.68-26.33-5.41-1.27-3.7-9.75,1.74-8.47,8.75,2.06,14.27,8.67,16.9,17.09,4.08,13-1.8,27.55,4,40.07,9.81,21.06,44.43,28.54,38.24,57.2-1.17,5.44-9.65,3.72-8.47-1.74Z"/><path class="cls-10" d="M2072.24,1277.78a39.83,39.83,0,0,0-10.61-43.75c-9.44-8.61-21.78-14.44-27.87-26.24-6.48-12.57,0-28.94-8.09-40.52-7.23-10.41-22.48-13.3-32.06-21.24-4.3-3.56,1.39-10.08,5.67-6.53,10.71,8.88,26.35,11.57,34.17,23.89,9.16,14.44.19,33.37,12.34,46.57,10.09,11,24.3,16.66,31.76,30.2,7.09,12.88,7.59,27.84,2.45,41.45-2,5.21-9.71,1.34-7.76-3.83Z"/><path class="cls-10" d="M1984.25,1296a106.33,106.33,0,0,0,.14-22.49c-1-9.27-4-13.11-12.42-17-9.57-4.36-18-8.84-23.79-18.08a41.18,41.18,0,0,1-5.49-14c-1.55-8.07.12-16.55-7.52-21.87-4.71-3.28-8.07-6.27-11.16-11.21-3.62-5.79-6.8-14.73-15.12-14-5.54.5-6.05-8.13-.5-8.64,16-1.47,18,15.28,27.45,23.76,5.09,4.6,10.66,6.37,13.09,13.43,2.68,7.81,1,16.22,4.43,23.94,3.61,8.07,10.16,13.42,18.05,17,5.42,2.45,11.19,4.51,15.41,8.89,9.59,9.94,7.2,29.47,5.9,42-.57,5.53-9,3.76-8.47-1.74Z"/><path class="cls-10" d="M1863.83,1186.23c-9.29,13.2,8.67,27.32,16.44,35.86,8.63,9.5,12,19.45,11.59,32.18-.51,14-3.26,26.68,6.08,38.66,7.3,9.35,16.2,16.5,17.91,28.93.76,5.51-7.88,6-8.64.5-2-14.28-17.73-22.11-22.71-35.3-4.88-12.93-.16-26.54-1.36-39.82-2.08-23.23-44.44-40.25-25.85-66.68,3.21-4.56,9.71,1.16,6.54,5.67Z"/><path class="cls-7" d="M1625.52,890a67.6,67.6,0,0,0,32.73-38.56c1.3-3.87-4.81-5.53-6.1-1.68a61.12,61.12,0,0,1-29.82,34.78c-3.61,1.9-.41,7.36,3.19,5.46Z"/><path class="cls-7" d="M1654,877.55a89.56,89.56,0,0,1-29.25,5.42c-4.06.07-4.08,6.4,0,6.33a94.88,94.88,0,0,0,30.93-5.65c3.8-1.37,2.16-7.49-1.68-6.1Z"/><path class="cls-7" d="M1861.5,660.51c39,14.59,73.79,41.45,108.62,63.79,3.44,2.2,6.61-3.27,3.19-5.47-35.46-22.74-70.44-49.56-110.13-64.42-3.82-1.43-5.47,4.68-1.68,6.1Z"/><path class="cls-7" d="M1711.31,1029.14c30.84,30.46,73.6,27.21,113.46,21.95,4-.52,4-6.86,0-6.33-37.9,5-79.42,9.1-109-20.09-2.9-2.86-7.38,1.61-4.48,4.47Z"/><path class="cls-2" d="M0,983.88s17.72,62,69.6,58.21l143-58.21V924.4Z"/><path class="cls-11" d="M151.38,217.8S-67.07,267.35,72.13,551s98.69,453.18-2.53,491.14L596.62,913,454.3,333.44,311.18,227.14Z"/><path class="cls-5" d="M1034.17,1410.05l-399,109.68a133.14,133.14,0,0,1-163.66-93.09L231.71,554.31A133.13,133.13,0,0,1,324.8,390.65L723.83,281a133.14,133.14,0,0,1,163.66,93.09l239.77,872.33A133.13,133.13,0,0,1,1034.17,1410.05Z"/><path class="cls-1" d="M1113.33,1388.29,714.3,1498a133.14,133.14,0,0,1-163.66-93.09L310.87,532.55A133.14,133.14,0,0,1,404,368.89L803,259.22a133.13,133.13,0,0,1,163.66,93.09l239.77,872.32A133.13,133.13,0,0,1,1113.33,1388.29Z"/><rect class="cls-5" x="445.1" y="511.4" width="516.36" height="282.9" transform="translate(-147.88 209.74) rotate(-15.37)"/><rect class="cls-10" x="432.9" y="514.76" width="516.36" height="282.9" transform="translate(-149.2 206.62) rotate(-15.37)"/><rect class="cls-5" x="507.72" y="908.85" width="151.77" height="88.32" rx="28.09" transform="translate(-231.71 188.75) rotate(-15.37)"/><rect class="cls-5" x="683.49" y="860.54" width="151.77" height="88.32" rx="28.09" transform="translate(-212.62 233.61) rotate(-15.37)"/><rect class="cls-5" x="859.27" y="812.22" width="151.77" height="88.32" rx="28.09" transform="translate(-193.53 278.47) rotate(-15.37)"/><rect class="cls-5" x="542.54" y="1035.56" width="151.77" height="88.32" rx="28.09" transform="translate(-264.05 202.52) rotate(-15.37)"/><rect class="cls-5" x="718.32" y="987.25" width="151.77" height="88.32" rx="28.09" transform="translate(-244.96 247.37) rotate(-15.37)"/><rect class="cls-5" x="894.1" y="938.93" width="151.77" height="88.32" rx="28.09" transform="translate(-225.87 292.23) rotate(-15.37)"/><rect class="cls-5" x="577.37" y="1162.27" width="151.77" height="88.32" rx="28.09" transform="translate(-296.38 216.28) rotate(-15.37)"/><rect class="cls-5" x="753.15" y="1113.95" width="151.77" height="88.32" rx="28.09" transform="translate(-277.29 261.13) rotate(-15.37)"/><rect class="cls-5" x="928.92" y="1065.64" width="151.77" height="88.32" rx="28.09" transform="translate(-258.2 305.99) rotate(-15.37)"/><rect class="cls-12" x="612.2" y="1288.98" width="151.77" height="88.32" rx="28.09" transform="translate(-328.72 230.04) rotate(-15.37)"/><rect class="cls-13" x="787.97" y="1240.66" width="151.77" height="88.32" rx="28.09" transform="translate(-309.63 274.9) rotate(-15.37)"/><rect class="cls-14" x="963.75" y="1192.35" width="151.77" height="88.32" rx="28.09" transform="translate(-290.54 319.76) rotate(-15.37)"/><rect class="cls-10" x="526.43" y="903.71" width="151.77" height="88.32" rx="28.09" transform="translate(-229.68 193.53) rotate(-15.37)"/><rect class="cls-10" x="702.2" y="855.4" width="151.77" height="88.32" rx="28.09" transform="translate(-210.59 238.39) rotate(-15.37)"/><rect class="cls-10" x="877.98" y="807.08" width="151.77" height="88.32" rx="28.09" transform="translate(-191.5 283.25) rotate(-15.37)"/><rect class="cls-10" x="561.25" y="1030.42" width="151.77" height="88.32" rx="28.09" transform="translate(-262.01 207.29) rotate(-15.37)"/><rect class="cls-10" x="737.03" y="982.1" width="151.77" height="88.32" rx="28.09" transform="translate(-242.92 252.15) rotate(-15.37)"/><rect class="cls-10" x="912.81" y="933.79" width="151.77" height="88.32" rx="28.09" transform="translate(-223.83 297.01) rotate(-15.37)"/><rect class="cls-10" x="596.08" y="1157.13" width="151.77" height="88.32" rx="28.09" transform="translate(-294.35 221.05) rotate(-15.37)"/><rect class="cls-10" x="771.86" y="1108.81" width="151.77" height="88.32" rx="28.09" transform="translate(-275.26 265.91) rotate(-15.37)"/><rect class="cls-10" x="947.63" y="1060.5" width="151.77" height="88.32" rx="28.09" transform="translate(-256.17 310.77) rotate(-15.37)"/><rect class="cls-15" x="630.91" y="1283.83" width="151.77" height="88.32" rx="28.09" transform="matrix(0.96, -0.27, 0.27, 0.96, -326.69, 234.81)"/><rect class="cls-16" x="806.68" y="1235.52" width="151.77" height="88.32" rx="28.09" transform="translate(-307.6 279.67) rotate(-15.37)"/><rect class="cls-6" x="982.46" y="1187.21" width="151.77" height="88.32" rx="28.09" transform="translate(-288.51 324.53) rotate(-15.37)"/><rect class="cls-5" x="650.22" y="1368.02" width="496.95" height="13.92" transform="translate(-332.28 287.36) rotate(-15.37)"/><path class="cls-2" d="M881.07,403.43S839.5,122.89,666.27,102L151.38,217.8s185.45-2.23,245.52,318.71Z"/><path class="cls-5" d="M890.89,402.79,389.8,540.52a3.21,3.21,0,0,1-3.95-2.25h0a3.22,3.22,0,0,1,2.25-3.95L889.19,396.59a3.22,3.22,0,0,1,3.95,2.25h0A3.21,3.21,0,0,1,890.89,402.79Z"/><path class="cls-11" d="M410.08,433.26Q593.31,373,779.43,322.46c3.92-1.07,2.26-7.17-1.68-6.1Q591.6,366.9,408.4,427.16c-3.85,1.27-2.2,7.38,1.68,6.1Z"/><path class="cls-11" d="M412.83,452.91q75-24.72,151.72-43.51c4-1,2.28-7.07-1.68-6.1q-76.72,18.81-151.72,43.51c-3.85,1.27-2.2,7.38,1.68,6.1Z"/><path class="cls-11" d="M391.93,372.65c103.79-35.76,208.7-67.54,314.55-96.58,3.92-1.08,2.25-7.19-1.69-6.11C598.94,299,494,330.79,390.25,366.55c-3.83,1.32-2.18,7.43,1.68,6.1Z"/><path class="cls-11" d="M378.29,344.37c46-16.42,91.82-32.69,138.78-46.11,3.91-1.12,2.25-7.23-1.68-6.1-47,13.42-92.81,29.69-138.78,46.11-3.81,1.36-2.17,7.47,1.68,6.1Z"/><path class="cls-11" d="M549.2,286.87c63.6-20,127.56-38.47,192.38-54.09,4-1,2.28-7.06-1.68-6.11-64.82,15.63-128.78,34.11-192.38,54.1-3.87,1.21-2.22,7.32,1.68,6.1Z"/><path class="cls-11" d="M362,309.19c91.53-31.28,184.52-57.67,278.37-81.05,3.95-1,2.27-7.09-1.68-6.1-93.85,23.38-186.84,49.76-278.37,81-3.84,1.31-2.19,7.42,1.68,6.1Z"/><path class="cls-11" d="M312.69,249.94a1272.78,1272.78,0,0,1,188.39-51.71c4-.77,2.3-6.87-1.68-6.1A1273.11,1273.11,0,0,0,311,243.84c-3.81,1.37-2.16,7.48,1.68,6.1Z"/><path class="cls-11" d="M530.79,189.22q70.94-22.72,143.37-39.92c4-.94,2.28-7-1.68-6.1Q600,160.39,529.1,183.12c-3.86,1.24-2.21,7.35,1.69,6.1Z"/><path class="cls-11" d="M290.24,232A385.46,385.46,0,0,1,337.8,217.9c4-.91,2.29-7-1.68-6.11a387.91,387.91,0,0,0-47.57,14.07c-3.79,1.39-2.15,7.51,1.69,6.1Z"/><path class="cls-5" d="M690.54,759.61c-35.11,0-65.31-11.7-85-32.93-17.72-19.1-25.88-45.3-23.6-75.8,4.51-60.42,49.14-105,108.54-108.52,28.56-1.68,54.47,7.48,74.6,26.47,21.67,20.44,34.1,50.38,34.1,82.15C799.17,717,756.53,759.61,690.54,759.61Zm6.54-214.91q-3.21,0-6.47.19c-58.09,3.39-101.74,47.05-106.16,106.19h0c-2.22,29.76,5.71,55.31,22.94,73.88,18.94,20.4,49.25,32.11,83.15,32.11,64.45,0,106.09-41.64,106.09-106.09,0-31.07-12.13-60.34-33.3-80.31C745.25,553.61,722.44,544.7,697.08,544.7Z"/><path class="cls-6" d="M594.59,651C599,591.85,642.76,547.08,702,543.62,765.71,539.9,809.3,591.69,809.3,651S773.31,758.33,702,758.33C642.66,758.33,589.18,723.39,594.59,651Z"/><path class="cls-2" d="M715.94,720.83a11.36,11.36,0,0,1-7.88-3.17l-70.15-67.28a11.39,11.39,0,1,1,15.76-16.44l54.25,52,15.74-105.78a11.39,11.39,0,0,1,22.53,3.35l-19,127.58a11.39,11.39,0,0,1-11.27,9.71Z"/><path class="cls-5" d="M1700.82,1578.9h-1.58v-1.28a18,18,0,0,0,2.2,0c.87,0,1.73,0,2.58,0v1.28C1703,1578.89,1701.91,1578.91,1700.82,1578.9Zm-6.43-.19c-1.57-.11-3.18-.22-4.81-.36l.11-1.25q2.43.21,4.77.33Zm14.48,0-.08-1.28c1.61-.09,3.21-.24,4.75-.42l.14,1.25C1712.12,1578.39,1710.5,1578.54,1708.87,1578.66Zm-24.09-.81c-1.56-.19-3.15-.39-4.77-.62l.18-1.25c1.61.23,3.19.43,4.75.62Zm33.69-.33-.22-1.25c1.61-.28,3.17-.6,4.65-1l.3,1.23C1721.69,1576.9,1720.1,1577.24,1718.47,1577.52Zm-43.22-1c-1.56-.25-3.14-.54-4.74-.85l.24-1.25c1.59.31,3.16.6,4.71.85Zm52.62-1.24-.39-1.2c1.53-.48,3-1,4.47-1.61l.48,1.18C1731,1574.19,1729.43,1574.74,1727.87,1575.23Zm-62.08-.6c-1.65-.36-3.19-.74-4.69-1.16l.35-1.23c1.47.42,3,.8,4.62,1.17Zm-9.29-2.66c-1.52-.55-3-1.15-4.5-1.79l.51-1.15c1.44.62,2.93,1.21,4.42,1.74Zm80.36-.37-.58-1.13c1.46-.74,2.85-1.53,4.13-2.33l.67,1.08C1739.78,1570,1738.35,1570.84,1736.86,1571.6Zm-89.21-3.47c-1.39-.7-2.77-1.47-4.24-2.36l.65-1.08c1.45.86,2.81,1.62,4.16,2.31Zm97.4-1.67-.76-1a42.53,42.53,0,0,0,3.58-3.08l.88.91A42.26,42.26,0,0,1,1745.05,1566.46Zm-105.69-3.3c-1.24-.84-2.52-1.78-3.9-2.85l.78-1c1.36,1.07,2.61,2,3.83,2.8Zm112.75-3.39-1-.82c1-1.17,2-2.44,2.92-3.72l1,.72C1754.16,1557.28,1753.15,1558.57,1752.11,1559.77Zm-120.38-2.54c-1.24-1.09-2.43-2.18-3.55-3.27l.88-.91c1.11,1.07,2.28,2.15,3.5,3.22Zm126-5.38-1.09-.63c.77-1.34,1.51-2.76,2.18-4.22l1.15.53C1759.25,1549,1758.5,1550.48,1757.7,1551.85Zm-132.9-1.35c-1.08-1.18-2.15-2.37-3.2-3.6l1-.82q1.56,1.82,3.17,3.56Zm-6.24-7.37c-1-1.25-1.94-2.55-2.89-3.86l1-.74c.93,1.31,1.88,2.58,2.85,3.83Zm143.24-.07-1.19-.43c.53-1.46,1-3,1.49-4.52l1.21.36C1762.85,1540,1762.34,1541.59,1761.8,1543.06ZM1613,1535.31c-.88-1.34-1.74-2.69-2.59-4.08l1.09-.65c.83,1.37,1.69,2.72,2.56,4Zm151.56-1.54-1.24-.27c.34-1.55.64-3.11.89-4.67l1.25.19C1765.16,1530.6,1764.86,1532.2,1764.51,1533.77Zm-156.6-6.69c-.77-1.39-1.55-2.8-2.31-4.23l1.12-.6c.76,1.43,1.52,2.84,2.3,4.21Zm158.15-2.85-1.26-.14c.16-1.49.3-3.09.4-4.75l1.26.07C1766.35,1521.09,1766.22,1522.72,1766.06,1524.23Zm-162.65-5.68c-.7-1.42-1.4-2.88-2.08-4.34l1.15-.53c.68,1.46,1.37,2.89,2.06,4.31Zm163.24-4-1.26,0,0-2.37c0-.81,0-1.6,0-2.41l1.26,0c0,.8,0,1.62,0,2.43S1766.67,1513.8,1766.65,1514.59Zm-167.28-4.76c-.63-1.46-1.25-2.95-1.86-4.45l1.17-.48c.61,1.5,1.22,3,1.86,4.42Zm165.85-4.82c-.09-1.58-.2-3.16-.33-4.79l1.26-.09c.14,1.62.25,3.23.33,4.81Zm-169.47-4.13q-.86-2.24-1.68-4.5l1.19-.44q.83,2.28,1.67,4.49Zm168.66-5.39c-.17-1.58-.38-3.15-.6-4.75l1.25-.17c.22,1.6.43,3.2.61,4.77Zm-171.93-3.65c-.5-1.5-1-3-1.5-4.58l1.21-.38c.49,1.54,1,3,1.49,4.55Zm170.61-5.84c-.26-1.56-.54-3.14-.83-4.72l1.24-.25c.3,1.62.58,3.19.84,4.75Zm-173.54-3.35c-.45-1.52-.9-3.06-1.34-4.62l1.21-.34c.44,1.54.89,3.08,1.35,4.6Zm171.78-6.06c-.33-1.55-.67-3.12-1-4.68l1.24-.29c.36,1.59.7,3.15,1,4.7Zm-174.4-3.2c-.42-1.53-.82-3.09-1.22-4.65l1.23-.32c.39,1.57.8,3.1,1.21,4.63Zm172.25-6.15c-.38-1.53-.79-3.09-1.19-4.65l1.22-.31q.61,2.34,1.2,4.65Zm-174.62-3.16c-.38-1.55-.75-3.11-1.1-4.69l1.24-.28c.35,1.57.71,3.13,1.08,4.66Zm172.15-6.1c-.43-1.52-.88-3.06-1.35-4.6l1.22-.36q.69,2.31,1.35,4.62Zm-174.29-3.29c-.33-1.56-.65-3.12-1-4.71l1.24-.24c.32,1.56.64,3.13,1,4.69Zm171.53-5.9c-.48-1.51-1-3-1.48-4.56l1.21-.41q.75,2.31,1.47,4.59Zm-173.43-3.52c-.29-1.57-.59-3.14-.88-4.74l1.25-.22.87,4.72Zm170.42-5.58q-.76-2.25-1.59-4.52l1.19-.43c.55,1.51,1.08,3,1.6,4.54Zm-172.12-3.9c-.27-1.57-.53-3.16-.78-4.75l1.25-.19c.25,1.59.51,3.15.78,4.73Zm168.89-5.14c-.56-1.48-1.12-3-1.7-4.49l1.18-.45q.87,2.25,1.71,4.5Zm-170.41-4.35c-.24-1.58-.47-3.17-.7-4.78l1.25-.17c.23,1.59.46,3.18.7,4.75Zm167-4.61c-.59-1.47-1.18-3-1.79-4.45l1.16-.48q.93,2.23,1.81,4.47Zm-168.32-4.9c-.22-1.59-.42-3.18-.62-4.79l1.25-.14c.2,1.58.4,3.17.62,4.76Zm164.69-4c-.62-1.46-1.24-2.94-1.88-4.4l1.17-.51q.94,2.21,1.88,4.43Zm-165.89-5.59c-.2-1.59-.38-3.18-.55-4.78l1.26-.14q.27,2.4.54,4.77Zm162.09-3.25c-.64-1.45-1.3-2.91-2-4.38l1.16-.52c.66,1.46,1.31,2.94,2,4.4Zm-163.15-6.31c-.16-1.59-.32-3.19-.47-4.79l1.26-.12c.15,1.6.31,3.2.47,4.79Zm159.2-2.43c-.66-1.44-1.34-2.9-2-4.34l1.14-.55c.69,1.46,1.37,2.92,2,4.36Zm-160.11-7.13c-.14-1.6-.28-3.2-.41-4.8l1.26-.09c.14,1.6.28,3.2.41,4.77Zm156-1.55-2.09-4.32,1.14-.55,2.1,4.32Zm-156.8-8c-.12-1.59-.24-3.19-.35-4.79l1.26-.1c.12,1.6.23,3.2.35,4.79Zm152.57-.55q-1.08-2.14-2.17-4.29l1.13-.58,2.17,4.3Zm-4.36-8.56c-.73-1.41-1.48-2.83-2.23-4.24l1.12-.6,2.24,4.27Zm-148.88-.49c-.1-1.59-.2-3.19-.29-4.78l1.26-.08c.09,1.6.19,3.2.29,4.79Zm144.39-8-2.18-4.07-.1-.17,1.12-.6.09.17,2.19,4.06Zm-144.94-1.59c-.09-1.59-.16-3.19-.24-4.8l1.26-.07q.12,2.41.24,4.8Zm140.35-6.84-2.34-4.2,1.1-.62,2.35,4.19Zm-140.8-2.76c-.07-1.59-.14-3.19-.2-4.8l1.27,0c.06,1.61.12,3.21.19,4.81Zm136.1-5.63q-1.18-2.08-2.39-4.16l1.1-.63c.8,1.38,1.6,2.78,2.38,4.16Zm-136.46-4c0-1.6-.1-3.2-.14-4.82l1.26,0c0,1.59.09,3.19.14,4.79Zm131.66-4.35c-.81-1.37-1.61-2.75-2.44-4.13l1.08-.64q1.24,2.06,2.45,4.14Zm-131.93-5.27-.09-4.81,1.26,0,.09,4.81Zm127-3q-1.23-2.05-2.49-4.11l1.08-.65q1.26,2.06,2.49,4.11Zm-127.19-6.64c0-1.59,0-3.19,0-4.82h1.26q0,2.4.06,4.8Zm122.2-1.56-2.54-4.07,1.07-.68,2.54,4.08Zm-122.28-8c0-1.6,0-3.2,0-4.81h1.26c0,1.61,0,3.21,0,4.81Zm117.19-.1-2.58-4,1.07-.68,2.58,4.06Zm-5.18-8.09q-1.29-2-2.61-4l1.06-.69q1.32,2,2.62,4Zm-110.76-1.42h-1.26c0-1.6,0-3.2,0-4.81h1.26C1570.7,1298.48,1570.7,1300.08,1570.69,1301.68Zm105.5-6.61-2.66-4,1.06-.69,2.66,4Zm-105.43-3-1.27,0,.06-4.81,1.27,0C1570.79,1288.89,1570.77,1290.49,1570.76,1292.09Zm100.1-5-2.7-4,1-.72,2.7,4Zm-100-4.6-1.26,0,.1-4.8,1.26,0Zm94.53-3.32-2.74-3.94,1-.72,2.74,3.94Zm-94.32-6.3-1.26,0c0-1.6.08-3.21.13-4.81l1.26,0C1571.19,1269.68,1571.15,1271.26,1571.11,1272.86Zm88.82-1.57q-1.38-2-2.78-3.91l1-.75c.94,1.3,1.86,2.62,2.78,3.94Zm-5.57-7.82-2.82-3.89,1-.75,2.82,3.9Zm-83-.2-1.26,0c0-1.6.11-3.2.17-4.8l1.26,0C1571.5,1260.07,1571.45,1261.67,1571.39,1263.27Zm77.31-7.55-2.85-3.87,1-.75,2.86,3.87Zm-77-2-1.27,0,.2-4.8,1.26.05ZM1643,1248l-2.89-3.83,1-.77,2.89,3.83Zm-70.84-3.93-1.26,0c.07-1.6.15-3.21.23-4.81l1.26.07C1572.29,1240.89,1572.22,1242.48,1572.14,1244.08Zm65-3.73c-1-1.27-1.94-2.55-2.92-3.81l1-.77c1,1.26,2,2.54,2.93,3.81Zm-64.57-5.85-1.27-.08c.09-1.59.17-3.19.26-4.79l1.27.07C1572.78,1231.3,1572.69,1232.9,1572.61,1234.5Zm58.7-1.75-3-3.77,1-.8,3,3.8Zm-5.92-7.55-3-3.76,1-.79,3,3.76Zm-52.25-.29-1.26-.07c.09-1.6.19-3.2.28-4.79l1.26.07C1573.33,1221.72,1573.23,1223.32,1573.14,1224.91Zm46.23-7.2-3-3.71,1-.8,3,3.72Zm-45.65-2.4-1.26-.07.31-4.8,1.26.1Zm39.6-5-3.06-3.69,1-.82,3.06,3.69Zm-39-4.57-1.26-.1.33-4.78,1.27.09Zm32.84-2.8c-1-1.23-2.06-2.46-3.09-3.67l1-.82q1.56,1.83,3.1,3.67Zm-32.15-6.78-1.27-.1.37-4.78,1.26.09Zm26-.52-3.13-3.64,1-.82,3.13,3.64Zm-6.27-7.25-3.17-3.61,1-.84,3.17,3.61Zm-19-1.8-1.26-.1.39-4.78,1.27.09Zm12.59-5.4q-1.59-1.8-3.2-3.58l.94-.85c1.07,1.19,2.15,2.38,3.21,3.59Zm-11.8-4.17-1.26-.12.41-4.79,1.27.12Zm5.39-3c-1.08-1.19-2.15-2.37-3.24-3.53l.93-.87c1.08,1.17,2.17,2.37,3.25,3.56Zm-4.55-6.59-1.26-.12.1-1.1-.78.73c-1.09-1.18-2.19-2.36-3.28-3.52l.93-.87c1.05,1.13,2.11,2.26,3.16,3.41l.3-3.42,1.27.12Zm-8.52-7.52-3.31-3.5.92-.87,3.32,3.5Zm9.41-2-1.26-.12.45-4.79,1.26.12Zm-16-5-3.35-3.46.91-.89,3.35,3.46Zm17-4.6-1.27-.12.49-4.79,1.26.12Zm-23.68-2.3-3.37-3.41.9-.89,3.37,3.41Zm-6.75-6.83-3.41-3.39.89-.89,3.41,3.39Zm31.4-.42-1.26-.14.5-4.79,1.27.15Zm-38.24-6.31-3.43-3.35.88-.92,3.44,3.36Zm39.26-3.25-1.26-.14.52-4.8,1.27.15Zm-46.15-3.43-3.47-3.32.88-.92,3.47,3.32Zm47.21-6.14-1.26-.14c.18-1.6.36-3.2.55-4.8l1.26.15C1582.62,1116.45,1582.44,1118,1582.26,1119.64Zm-54.17-.49-3.51-3.28.86-.92,3.51,3.29Zm-7-6.52-3.55-3.23.85-.94q1.79,1.61,3.55,3.24Zm62.31-2.58-1.26-.14.56-4.79,1.27.14Zm-69.42-3.87q-1.79-1.61-3.58-3.2l.84-.94q1.8,1.59,3.58,3.2Zm70.56-5.7-1.26-.14c.19-1.59.39-3.19.59-4.79l1.25.14C1584.88,1097.29,1584.69,1098.89,1584.5,1100.48Zm-77.75-.66c-1.21-1.06-2.41-2.12-3.62-3.16l.83-1,3.62,3.17Zm-7.26-6.3c-1.21-1-2.43-2.08-3.65-3.12l.81-1,3.67,3.12Zm86.19-2.59-1.25-.16.6-4.79,1.25.17Zm-93.51-3.6-3.7-3.07.81-1,3.69,3.06Zm94.73-5.95-1.25-.17.62-4.79,1.25.17Zm-102.14-.16-3.74-3,.8-1,3.74,3Zm-7.48-6-3.78-3,.79-1,3.77,3Zm110.88-3.38-1.25-.17c.21-1.6.43-3.19.65-4.77l1.25.16C1588.59,1068.63,1588.37,1070.22,1588.16,1071.82Zm-118.44-2.53c-1.27-1-2.53-2-3.81-2.92l.76-1,3.82,2.92Zm-7.64-5.82c-1.28-1-2.56-1.92-3.85-2.85l.74-1,3.86,2.87Zm127.38-1.19-1.25-.16c.21-1.6.44-3.19.66-4.78l1.25.17C1589.9,1059.1,1589.67,1060.68,1589.46,1062.28Zm-135.1-4.52-3.89-2.8.73-1q2,1.38,3.9,2.82Zm136.43-5-1.25-.17c.22-1.6.45-3.18.68-4.78l1.25.19C1591.24,1049.56,1591,1051.15,1590.79,1052.75Zm-144.24-.57q-2-1.38-3.93-2.75l.72-1c1.32.91,2.63,1.82,4,2.75Zm-7.88-5.48-4-2.68.71-1c1.32.88,2.65,1.78,4,2.7Zm153.49-3.47-1.25-.18c.22-1.6.46-3.18.69-4.77l1.25.18C1592.62,1040.05,1592.38,1041.63,1592.16,1043.23Zm-161.46-1.87c-1.34-.89-2.68-1.76-4-2.63l.69-1.06,4,2.63Zm-8.06-5.22-4.06-2.56.67-1.07,4.06,2.56Zm170.92-2.44-1.25-.18c.23-1.59.47-3.18.71-4.77l1.25.19C1594,1030.53,1593.79,1032.12,1593.56,1033.7Zm-179.06-2.62-4.1-2.49.65-1.08q2.06,1.23,4.11,2.49Zm-8.23-4.95c-1.39-.81-2.77-1.62-4.15-2.41l.62-1.09c1.4.79,2.78,1.6,4.16,2.41Zm188.73-2-1.25-.19.73-4.75,1.25.19Zm-197.07-2.82-4.19-2.33.61-1.1,4.21,2.33Zm-8.41-4.6c-1.41-.76-2.83-1.5-4.24-2.24l.59-1.12,4.26,2.24Zm207-2.09-1.25-.19c.24-1.58.49-3.17.74-4.76l1.25.2C1597,1011.51,1596.72,1013.09,1596.48,1014.67ZM1381,1012.32l-4.29-2.15.57-1.13,4.3,2.15Zm-8.6-4.24c-1.45-.7-2.89-1.38-4.34-2.06l.54-1.14c1.45.67,2.89,1.36,4.35,2.06Zm-8.7-4.05-4.38-1.95.51-1.15q2.2,1,4.39,2Zm-8.78-3.84-.26-.11.5-1.16.25.11Z"/><path class="cls-5" d="M1776.08,372.07s-1.62-.53-4.62-1.6l.42-1.19c3,1.05,4.6,1.59,4.6,1.59Zm-9.18-3.23-4.53-1.66.43-1.19,4.53,1.66Zm-9.05-3.37c-1.43-.54-2.94-1.11-4.51-1.72l.46-1.18,4.49,1.72Zm-9-3.46-4.48-1.76.47-1.18,4.47,1.77Zm-8.95-3.56-4.46-1.81.48-1.18,4.46,1.82Zm-8.9-3.66-4.45-1.85.49-1.17,4.44,1.86Zm-8.87-3.73c-1.46-.62-2.93-1.25-4.43-1.91l.51-1.15,4.41,1.9Zm-8.84-3.83-4.4-1.94.51-1.15,4.4,1.94Zm-8.79-3.91c-1.44-.65-2.91-1.31-4.38-2l.53-1.15c1.47.67,2.93,1.34,4.37,2Zm-8.75-4-4.36-2,.54-1.14q2.19,1,4.35,2Zm-8.72-4.08-4.34-2.07.55-1.15c1.45.71,2.9,1.4,4.33,2.08Zm-8.67-4.17c-1.43-.69-2.86-1.4-4.32-2.12l.57-1.13c1.44.72,2.88,1.41,4.31,2.11Zm-8.62-4.26-4.3-2.16.58-1.13,4.28,2.16Zm-8.59-4.34-4.28-2.22.59-1.12,4.27,2.21Zm-8.53-4.45-4.25-2.25.6-1.12q2.12,1.14,4.24,2.25Zm-8.49-4.52-4.22-2.31.6-1.1,4.22,2.29Zm-8.43-4.63c-1.39-.78-2.8-1.56-4.19-2.35l.62-1.1c1.4.78,2.79,1.57,4.19,2.34Zm-8.38-4.73-4.17-2.4.64-1.1c1.39.81,2.77,1.61,4.16,2.4Zm-8.32-4.82-4.13-2.45.65-1.1,4.12,2.45Zm-273.61-.58-4.74,0-.06-1.26,4.8,0Zm4.8,0v-1.26l4.79,0,0,1.26C1353.4,298.7,1351.8,298.71,1350.19,298.72Zm-14.42-.08-4.81-.11,0-1.26,4.79.1Zm24-.06,0-1.27c1.61,0,3.21-.08,4.8-.13l0,1.26Zm-33.65-.2-4.8-.19.06-1.26,4.79.19Zm43.27-.13-.06-1.27,4.79-.23.08,1.26C1372.63,298.1,1371,298.17,1369.42,298.25Zm-52.87-.28c-1.6-.08-3.2-.16-4.81-.26l.08-1.26,4.79.26Zm62.48-.24-.09-1.26c1.61-.1,3.2-.21,4.79-.33l.1,1.26C1382.24,297.52,1380.63,297.63,1379,297.73Zm-72.08-.3c-1.6-.1-3.2-.21-4.79-.33l.08-1.26,4.79.33Zm81.66-.42-.11-1.27c1.61-.13,3.19-.28,4.78-.44l.12,1.26C1391.82,296.72,1390.22,296.87,1388.61,297Zm-91.25-.27-4.8-.39.11-1.26,4.78.39Zm100.83-.67-.14-1.26,4.77-.56.15,1.25C1401.39,295.7,1399.79,295.89,1398.19,296.07Zm-110.41-.14-4.79-.45.12-1.26,4.79.45Zm-9.57-.93-4.79-.51.15-1.26,4.77.51Zm129.54-.12-.17-1.25c1.59-.21,3.17-.44,4.75-.67l.18,1.25C1410.93,294.44,1409.34,294.67,1407.75,294.88Zm203-.49-4.1-2.5.66-1.09,4.1,2.5ZM1268.66,294l-4.77-.57.15-1.25,4.76.56Zm148.6-.48-.21-1.25c1.59-.26,3.16-.53,4.73-.81l.22,1.25C1420.43,292.94,1418.84,293.21,1417.26,293.47Zm-158.15-.68-.31,0c-1.48-.19-3-.38-4.46-.59l.17-1.25,4.45.58.31.05Zm167.63-1-.25-1.24c1.58-.3,3.15-.62,4.71-.94l.25,1.23C1429.89,291.16,1428.32,291.48,1426.74,291.78Zm-177.16-.26-4.76-.67.18-1.25,4.75.67Zm-9.52-1.37-4.75-.72.19-1.25,4.74.72Zm196.09-.34-.27-1.24c1.56-.35,3.12-.71,4.66-1.09l.3,1.23C1439.29,289.08,1437.73,289.46,1436.15,289.81Zm166.39-.46-4.07-2.56.68-1.07q2,1.29,4.07,2.56Zm-372-.68-4.75-.77.21-1.25,4.74.77Zm214.93-1.14-.31-1.23c1.55-.4,3.09-.82,4.62-1.25l.35,1.21C1448.62,286.7,1447.07,287.12,1445.5,287.53Zm-224.42-.42-4.73-.82.22-1.25,4.73.82Zm-9.47-1.66-4.72-.86.23-1.25,4.72.86Zm243.17-.52-.37-1.21c1.54-.47,3.06-.94,4.58-1.43l.38,1.2C1457.86,284,1456.32,284.46,1454.78,284.93Zm139.64-.73-4-2.62.7-1.06q2,1.32,4,2.61Zm-392.26-.5-4.72-.91.24-1.24,4.72.91ZM1463.94,282l-.41-1.21q2.28-.76,4.5-1.61l.45,1.19Q1466.23,281.18,1463.94,282Zm-271.22-.11-4.71-.95.25-1.24,4.71.95Zm-9.41-1.91-4.71-1,.27-1.24,4.69,1Zm403.07-1c-1.33-.88-2.66-1.78-4-2.67l.71-1,4,2.66ZM1473,278.62l-.46-1.18q2.23-.88,4.43-1.81l.49,1.17Q1475.23,277.73,1473,278.62Zm-299-.67-1.5-.33.26-1.24,1.5.33Zm307.92-3.08-.52-1.16c1.47-.66,2.91-1.33,4.34-2l.55,1.14C1484.77,273.52,1483.32,274.21,1481.84,274.87Zm96.59-1.3q-2-1.35-4-2.73l.72-1c1.31.92,2.63,1.82,3.94,2.72Zm-87.91-2.88-.58-1.13c1.42-.73,2.83-1.49,4.22-2.25l.61,1.11C1493.37,269.19,1492,269.94,1490.52,270.69Zm80-2.62c-1.3-.92-2.61-1.86-3.91-2.8l.75-1,3.9,2.79ZM1499,266l-.64-1.09q2.07-1.21,4.08-2.49l.67,1.07C1501.72,264.38,1500.35,265.21,1499,266Zm63.78-3.59c-1.3-.95-2.59-1.92-3.88-2.88l.76-1,3.86,2.86Zm-55.63-1.55-.71-1.05c1.33-.9,2.64-1.8,3.92-2.73l.75,1Q1509.12,259.54,1507.11,260.89Zm47.91-4.24q-1.92-1.47-3.83-2.95l.78-1c1.26,1,2.54,2,3.82,2.94Zm-40.1-1.42-.77-1q1.89-1.47,3.72-3l.81,1C1517.45,253.24,1516.2,254.25,1514.92,255.23Zm32.49-4.5c-1.27-1-2.52-2-3.75-3l.79-1q1.86,1.52,3.74,3Zm-25.08-1.68-.84-.93q1.79-1.6,3.49-3.26l.88.92Q1524.14,247.45,1522.33,249.05Zm17.6-4.37c-1.24-1-2.48-2.05-3.7-3.09l.82-1,3.68,3.07Zm-10.66-2.31-.91-.88c1.1-1.15,2.19-2.32,3.24-3.51l1,.84C1531.48,240,1530.39,241.2,1529.27,242.37Zm3.31-3.9c-1.22-1-2.43-2.1-3.63-3.16l.84-.95q1.79,1.59,3.62,3.15Zm3.1-3.31-1-.81c1-1.24,2-2.48,3-3.75l1,.76C1537.69,232.64,1536.69,233.91,1535.68,235.16Zm-10.33-3-3.55-3.25.86-.92c1.17,1.08,2.35,2.15,3.55,3.23Zm16.11-4.65-1-.72c.89-1.28,1.77-2.61,2.63-4l1.07.67C1543.27,224.82,1542.36,226.17,1541.46,227.46Zm-23.18-1.87q-1.76-1.67-3.48-3.34l.88-.9c1.15,1.11,2.31,2.22,3.47,3.31Zm28.35-6.27-1.1-.64c.8-1.37,1.56-2.77,2.31-4.19l1.12.59Q1547.84,217.22,1546.63,219.32Zm-35.26-.44q-1.71-1.69-3.39-3.41l.9-.89c1.12,1.14,2.25,2.28,3.38,3.4Zm-6.74-6.87q-1.67-1.74-3.3-3.5l.93-.87c1.08,1.17,2.18,2.34,3.28,3.49Zm46.48-1.25-1.14-.54c.67-1.41,1.33-2.88,2-4.36l1.17.5C1552.46,207.85,1551.79,209.34,1551.11,210.76Zm-53-5.8q-1.62-1.8-3.2-3.61l.95-.83c1.05,1.2,2.12,2.4,3.19,3.58Zm56.78-3.08-1.17-.45c.55-1.48,1.09-3,1.59-4.49l1.21.39Q1555.72,199.64,1554.87,201.88Zm-63.12-4.17q-1.56-1.86-3.07-3.7l1-.81c1,1.24,2,2.47,3.07,3.69Zm66.2-5-1.22-.35c.45-1.52.86-3.06,1.26-4.62l1.22.31C1558.82,189.66,1558.39,191.21,1558,192.75Zm-72.3-2.49q-1.5-1.89-3-3.8l1-.77c1,1.27,2,2.53,2.94,3.79Zm74.66-6.87-1.24-.26q.51-2.32.93-4.68l1.25.21C1561,180.26,1560.64,181.84,1560.31,183.39Zm-80.51-.78c-1-1.29-1.88-2.6-2.82-3.9l1-.73c.92,1.3,1.86,2.59,2.81,3.89Zm-5.56-7.86c-.9-1.32-1.8-2.66-2.67-4l1.06-.7q1.3,2,2.65,4Zm87.77-.85-1.25-.18c.23-1.56.43-3.14.61-4.74l1.26.15C1562.44,170.73,1562.24,172.33,1562,173.9Zm-93-7.21c-.85-1.36-1.69-2.73-2.5-4.11l1.09-.64q1.22,2.06,2.48,4.08Zm94.12-2.37-1.27-.09c.12-1.58.23-3.17.32-4.77l1.26.06C1563.33,161.13,1563.22,162.74,1563.1,164.32Zm-99-5.9c-.79-1.41-1.56-2.81-2.33-4.22l1.12-.6q1.14,2.1,2.32,4.19Zm99.53-3.72-1.26,0c0-1.32,0-2.64,0-4v-.82h1.26v.82C1563.63,152.05,1563.62,153.38,1563.59,154.7Zm-104.09-4.77c-.72-1.43-1.44-2.88-2.12-4.32l1.14-.54c.68,1.43,1.39,2.86,2.11,4.29Zm102.78-4.82c0-1.58-.12-3.18-.21-4.78l1.26-.08q.14,2.43.21,4.83Zm-106.92-3.88c-.65-1.47-1.3-2.95-1.92-4.43l1.17-.49c.62,1.48,1.25,2.95,1.91,4.41Zm106.38-5.69c-.12-1.58-.27-3.17-.43-4.77l1.26-.13c.17,1.61.31,3.21.44,4.81Zm-110.09-3.22q-.89-2.25-1.68-4.51l1.19-.43c.53,1.51,1.09,3,1.66,4.48ZM1560.77,126c-.2-1.56-.41-3.14-.65-4.74l1.25-.18c.24,1.6.45,3.19.65,4.77Zm-112.36-2.74c-.49-1.52-1-3.05-1.42-4.59l1.21-.36c.45,1.53.92,3,1.41,4.55Zm111-6.73c-.26-1.59-.53-3.17-.81-4.73l1.25-.22c.28,1.56.55,3.15.81,4.74ZM1445.69,114c-.41-1.55-.79-3.11-1.16-4.67l1.23-.28c.36,1.54.75,3.09,1.16,4.62Zm112-7c-.31-1.59-.62-3.15-.94-4.7l1.24-.25c.32,1.55.63,3.12.94,4.71Zm-114.22-2.41c-.32-1.57-.62-3.14-.89-4.73l1.25-.22c.27,1.58.56,3.14.88,4.7Zm112.27-7c-.36-1.58-.71-3.13-1.08-4.67l1.23-.29c.37,1.54.73,3.1,1.09,4.68Zm-113.9-2.54.63-.07h-.64c-.23-1.62-.43-3.16-.61-4.69l1.26-.15c.17,1.52.37,3,.59,4.6l0,.17Zm111.66-6.78c-.41-1.57-.82-3.11-1.24-4.63l1.22-.33c.43,1.52.84,3.07,1.25,4.64Zm-112.78-2.77c-.14-1.63-.26-3.23-.36-4.81l1.26-.08c.1,1.57.22,3.17.37,4.78ZM1551,79.15c-.46-1.55-.93-3.08-1.41-4.58l1.2-.38c.48,1.51,1,3,1.42,4.6ZM1440.16,76c-.06-1.64-.09-3.24-.09-4.83h1.27c0,1.58,0,3.17.08,4.78Zm107.9-6c-.52-1.53-1.06-3-1.6-4.5l1.19-.45q.81,2.24,1.61,4.54ZM1441.4,66.38l-1.26,0c0-1.64.13-3.25.23-4.82l1.27.08C1441.53,63.17,1441.45,64.76,1441.4,66.38ZM1544.74,61c-.59-1.51-1.19-3-1.81-4.43l1.17-.49c.61,1.45,1.23,2.94,1.82,4.46ZM1442,56.84l-1.26-.13c.17-1.63.37-3.23.6-4.79l1.25.18C1442.39,53.65,1442.2,55.22,1442,56.84Zm99-4.6c-.67-1.48-1.36-2.92-2-4.33l1.13-.56q1,2.13,2.07,4.36ZM1443.4,47.4l-1.23-.24c.3-1.6.64-3.19,1-4.73l1.23.3C1444.05,44.25,1443.71,45.82,1443.4,47.4Zm93.39-3.75c-.76-1.43-1.54-2.83-2.31-4.19l1.09-.62c.79,1.37,1.56,2.77,2.33,4.22Zm-91.15-5.53-1.21-.36c.46-1.57,1-3.12,1.51-4.6l1.19.44C1446.6,35.05,1446.1,36.57,1445.64,38.12ZM1532,35.37q-1.29-2.07-2.6-4l1-.71q1.33,2,2.63,4.05Zm-83.14-6.2-1.17-.5c.67-1.52,1.36-3,2.09-4.38l1.12.59C1450.21,26.23,1449.52,27.68,1448.88,29.17Zm77.78-1.7c-1-1.32-2-2.59-2.94-3.76l1-.8c1,1.19,2,2.47,3,3.8Zm-73.39-6.71-1.07-.68c.85-1.37,1.78-2.72,2.75-4l1,.76C1455,18.1,1454.1,19.41,1453.27,20.76Zm67.33-.65c-1.08-1.18-2.19-2.33-3.32-3.43l.89-.9c1.14,1.11,2.27,2.28,3.36,3.47Zm-6.82-6.63c-1.26-1.08-2.52-2.07-3.72-3l.74-1c1.24.9,2.51,1.92,3.8,3ZM1459,13.2l-.93-.85A41.3,41.3,0,0,1,1461.55,9l.83.95A43.82,43.82,0,0,0,1459,13.2Zm47.14-5.35c-1.36-.83-2.74-1.61-4.15-2.3l.56-1.13c1.44.71,2.87,1.51,4.25,2.36Zm-40-.82-.71-1a36.62,36.62,0,0,1,4.21-2.46l.57,1.13A36.2,36.2,0,0,0,1466.13,7Zm31.52-3.35a40.26,40.26,0,0,0-4.52-1.39l.3-1.23a41.94,41.94,0,0,1,4.65,1.43Zm-23.1-.8-.4-1.21A35.86,35.86,0,0,1,1478.9.48l.21,1.26A30.72,30.72,0,0,0,1474.55,2.88Zm14-1.41a32.83,32.83,0,0,0-4.72-.2l0-1.27a42.41,42.41,0,0,1,4.88.21Z"/><path class="cls-2" d="M1853.52,357.14a177.05,177.05,0,0,0,9-51.81c.1-4.08-6.23-4.07-6.33,0a171.69,171.69,0,0,1-8.8,50.13c-1.29,3.87,4.82,5.53,6.1,1.68Z"/><path class="cls-2" d="M1904.59,393.37Q1935,361.71,1968,332.69c3.06-2.69-1.43-7.15-4.48-4.47q-33,29-63.37,60.68c-2.82,2.94,1.65,7.42,4.48,4.47Z"/><path class="cls-2" d="M1929.14,459.05l40.11-11.49c3.9-1.12,2.24-7.23-1.69-6.1L1927.46,453c-3.91,1.12-2.24,7.22,1.68,6.1Z"/></g></g></svg>