<svg xmlns="http://www.w3.org/2000/svg" xmlns:xlink="http://www.w3.org/1999/xlink" viewBox="0 0 504 217"><defs><style>.cls-1{fill:url(#linear-gradient);}.cls-2{fill:url(#linear-gradient-2);}.cls-3{fill:url(#linear-gradient-3);}.cls-4{fill:#b71a22;}.cls-17,.cls-24,.cls-4{opacity:0.6;}.cls-5{fill:url(#linear-gradient-4);}.cls-6{fill:url(#linear-gradient-5);}.cls-7{fill:#ffefeb;}.cls-8{fill:url(#linear-gradient-6);}.cls-9{fill:url(#linear-gradient-7);}.cls-10,.cls-21{fill:#bf2631;}.cls-10,.cls-13{opacity:0.5;}.cls-11,.cls-17,.cls-18{fill:#efe1dc;}.cls-12{fill:#dfcec7;}.cls-13,.cls-14{fill:#efe0da;}.cls-15{fill:url(#linear-gradient-8);}.cls-16{fill:url(#linear-gradient-9);}.cls-18{opacity:0.3;}.cls-19{fill:url(#linear-gradient-10);}.cls-20{fill:url(#linear-gradient-11);}.cls-22,.cls-24{fill:#ed2c2f;}.cls-23{fill:#e02b35;}.cls-25{fill:#fff;}.cls-26{fill:#00aff0;}.cls-27{fill:none;}.cls-28{fill:url(#linear-gradient-12);}</style><linearGradient id="linear-gradient" x1="545.04" y1="31.71" x2="549.82" y2="23.8" gradientTransform="matrix(-0.99, -0.13, -0.13, 0.99, 999.17, 114.59)" gradientUnits="userSpaceOnUse"><stop offset="0" stop-color="#d01d30"/><stop offset="0.99" stop-color="#741d30"/></linearGradient><linearGradient id="linear-gradient-2" x1="561.45" y1="20.47" x2="547.67" y2="14.68" gradientTransform="matrix(-0.99, -0.13, -0.13, 0.99, 999.17, 114.59)" gradientUnits="userSpaceOnUse"><stop offset="0" stop-color="#d01d30"/><stop offset="0.79" stop-color="#e8262e"/></linearGradient><linearGradient id="linear-gradient-3" x1="558.24" y1="25.92" x2="564.43" y2="2.19" gradientTransform="matrix(-0.99, -0.13, -0.13, 0.99, 999.17, 114.59)" gradientUnits="userSpaceOnUse"><stop offset="0" stop-color="#bc1f30"/><stop offset="0.79" stop-color="#e8262e"/></linearGradient><linearGradient id="linear-gradient-4" x1="573.4" y1="4.16" x2="569.03" y2="23.66" xlink:href="#linear-gradient"/><linearGradient id="linear-gradient-5" x1="598.38" y1="4.87" x2="587.78" y2="19.41" xlink:href="#linear-gradient-2"/><linearGradient id="linear-gradient-6" x1="593.34" y1="31.9" x2="590.17" y2="11.57" gradientTransform="matrix(-0.99, -0.13, -0.13, 0.99, 999.17, 114.59)" gradientUnits="userSpaceOnUse"><stop offset="0.02" stop-color="#e6472e" stop-opacity="0.8"/><stop offset="0.99" stop-color="#e8262e" stop-opacity="0.8"/></linearGradient><linearGradient id="linear-gradient-7" x1="609.99" y1="31.1" x2="605.41" y2="1.67" xlink:href="#linear-gradient-6"/><linearGradient id="linear-gradient-8" x1="449.49" y1="43.47" x2="431.97" y2="71.65" gradientTransform="matrix(0.93, 0.37, -0.37, 0.93, 14.78, -141.05)" gradientUnits="userSpaceOnUse"><stop offset="0" stop-color="#ecded9"/><stop offset="1" stop-color="#c1abac"/></linearGradient><linearGradient id="linear-gradient-9" x1="630.31" y1="34.45" x2="607.38" y2="71.33" gradientTransform="matrix(-0.99, -0.13, -0.13, 0.99, 999.17, 114.59)" xlink:href="#linear-gradient-8"/><linearGradient id="linear-gradient-10" x1="723.54" y1="-113.85" x2="709.27" y2="-102.67" gradientTransform="matrix(-0.96, 0.29, 0.29, 0.96, 1106.32, -51.05)" gradientUnits="userSpaceOnUse"><stop offset="0" stop-color="#ece0e0"/><stop offset="1" stop-color="#af9491"/></linearGradient><linearGradient id="linear-gradient-11" x1="704.9" y1="-64.58" x2="732.13" y2="-95.83" gradientTransform="matrix(-0.96, 0.29, 0.29, 0.96, 1106.32, -51.05)" gradientUnits="userSpaceOnUse"><stop offset="0" stop-color="#d6aca0"/><stop offset="1" stop-color="#b59893"/></linearGradient><linearGradient id="linear-gradient-12" x1="450.52" y1="66.97" x2="433.31" y2="94.66" gradientTransform="matrix(0.87, 0.1, -0.1, 0.84, 26.38, -38.24)" xlink:href="#linear-gradient-8"/></defs><g id="Layer_2" data-name="Layer 2"><g id="Layer_1-2" data-name="Layer 1"><path class="cls-1" d="M459.18,67.4C461.13,68.16,455.56,79,454,81c-.15-1-1.77.58-2-.65-1.68-8.7-5.61-13.51-8.3-15.52Z"/><path class="cls-2" d="M438.86,66.74l8.44-19.59c1.74-2.12.71-2.67,3.37-.44,1.49,1.26,5.35,11.9,6.1,15,.54,2.27,2.81,3.56,2.6,5.93-2.38.54-7,1-10.91-.85a10.41,10.41,0,0,0-6.18-.63A16,16,0,0,0,438.86,66.74Z"/><path class="cls-3" d="M435.45,33.19a68,68,0,0,1,9.48,6.46c1.79,1.52,7,6.38,5.9,8.19C449.4,50.23,443,62.26,440.6,66.36a21.94,21.94,0,0,0-2.85.7c-2,.25-3.86.7-6,.13l-3-34.07C429.28,30.27,433.59,32.13,435.45,33.19Z"/><path class="cls-4" d="M431.21,36.79c.61-.65,1.5-2.8,2.29-3,2.17,4.9.8,12.53.59,17.37-.13,2.74,1.34,6.7,1.24,9.37,0,1.13-.43,4.29,1.77,4.35,4.31.13,8.39-10,9.47-9.2,2.2,1.63-2.74,8.32-4.15,10.49a18.47,18.47,0,0,0-5.31,1.09,15.34,15.34,0,0,1-3.12.31c-.23-1-.41-2.15-.49-2.53a62.14,62.14,0,0,1-1.31-9.92c-.07-4.23-.18-6.65-.19-10.88C432,42.28,430,38,431.21,36.79Z"/><path class="cls-5" d="M427.2,45.11c.29-2.11,2-8.62,4.77-8.78s1.63,5.78,1.32,7.37c-1,5.1.06,8.26.2,12.16.15,4.14,1.14,6.61.06,10.11-.21.7-.59,2.46-1.63,2.19-1.75-.48-.52-4.23-2.19-4.66l1.87.42c.71-2.83-2.3-7.49-3.27-10.26A17.12,17.12,0,0,1,427.2,45.11Z"/><path class="cls-6" d="M391.69,46.45c2.49-1.1,3-1.63,4.35-4.07,1.16-2.15,1.83-5.3,4-6.62,1.57-1,3.56-.71,5.29-1.1s3.5-1.22,5.3-1.66a72.69,72.69,0,0,1,9.76-1.21,62.76,62.76,0,0,1,8.22-.3c1.25,0,3.59.16,4.14,1.47.7,1.66-2.45,5.28-2.75,7a30.66,30.66,0,0,0-.41,8.28c.67,6.45,3.72,12.35,4.55,18.72.38,3-.55,5.53.55,8.29.79,2,1.25,2.26.33,4.28-.55,1.21-1.6,3.73-2.78,4.07,0,0-49.12-29.62-50.34-29.93C382.26,48.06,388.81,47.71,391.69,46.45Z"/><path class="cls-7" d="M373.59,71.74c3-7.55,21.12-.13,25.87,2,6.88,3,13.76,4.57,19.74,9.54,2.23,1.86,7.77,7,6.76,10.42-.93,3.18-6.64,2.54-9.13,2.93-4.19.65-8.08-1-11.92-2.75-7.3-3.26-13.73-8.25-20.69-12.2C381.08,79.86,371.42,77.2,373.59,71.74Z"/><path class="cls-8" d="M390.77,55.24c3.32-3,6.8-6.56,10.42-9.27s7.46-5.21,11.76-6.32c9.09-2.35,13.89,5.06,14.82,13.65.18,1.72-.27,15.23-1.92,14.64-9.6-3.41-19.18-6.87-28.79-10.25A63.4,63.4,0,0,1,390.77,55.24Z"/><path class="cls-9" d="M392.68,57.21a.6.6,0,0,1-.19-.06Z"/><path class="cls-10" d="M382.37,52.88c1.25.48,1.37-.59,1.43-1.65.32.14.83,0,1.15.12,0-.41.26-1,.23-1.35.42.6.9,1.36,1.66,1.49-.13-.44.09-.85.05-1.29,1,.26,1.2,1.28,2,1.53,0-.42.31-.88.34-1.2.52.5.69,1.39,1.56,1.28,0-.5.3-1.1.26-1.59.55.79,1.2,2.69,1.83.72.23.51.51,1.07.81,1.62a7.86,7.86,0,0,0,.5-1c.1,1,1,2.13,1.33.4.6.73,1.46,3.74,2.25,1.16.52.65,1.26,2.49,1.69.69.63.66.82,1.72,1.82,1.66.05-.27.14-.58.17-.86.53.27.83.86,1.33,1.27-.11-.46.08-.81.06-1.26.89.39.87,1.48,1.95,1.58a3.28,3.28,0,0,1,0-.7c.85.06,1.2,1.09,2,1.5a7.05,7.05,0,0,0,.2-.68c.76.26,1.09,1.12,1.89,1.33a7,7,0,0,1,.24-.85c.55.64.95,1.61,1.68,1.86-.25-.59,0-.89-.09-1.46.62.59.84,1.48,1.49,2.06-.05-.45.18-1,.17-1.42a7.36,7.36,0,0,1,2,2.61,5.23,5.23,0,0,1,.1-1.62c.89.78,1.47,1.94,2.37,2.75,0-.43.28-1,.26-1.46.43.64.65,1.46,1.06,2.14,0-.53.42-.89.53-1.22.32.54.5,1.34.77,1.8.09-.33.44-.78.52-1.05.58.43.53,1.22.57,2,.35-.49.76-.45,1.14-.64-.1.36,0,.86-.09,1.21.44-.25.54,0,1-.17a8.22,8.22,0,0,1-.28,1.19,1.43,1.43,0,0,1,1.53-.45c-.07.25,0,.77,0,1,.7-.29,1.26,0,1.26.89a2.51,2.51,0,0,1,.42-1c.26.69.44,1.45.63,2.13a2.22,2.22,0,0,1,.51,0c0-.33.15-.71.18-1a12,12,0,0,1,1.22,2.37c0-.46.29-1,.32-1.44a15,15,0,0,1,.82,2.19c.17-.11.25-.24.39-.34a10.3,10.3,0,0,1,.54,1.68,4,4,0,0,0,.23-.64c.73.41.57,1.36.89,2.14.09-.38.29-.71.39-1.06a13.52,13.52,0,0,1,.22,1.9c.09-.23.34-.57.4-.71.14.8.31,1.58.44,2.39.65.36.34,1.46.27,2.3.1-.13.42-.36.55-.51A6.1,6.1,0,0,1,434.3,81L382.78,54.93A2,2,0,0,1,382.37,52.88Z"/><path class="cls-11" d="M450.13,92.93A1.38,1.38,0,0,1,449,91.86c.39,0,.5-.23.86-.1a6.1,6.1,0,0,1-1.07-.89c.43-.08.53-.25.93-.12a2.66,2.66,0,0,1-1.3-1.2c.16,0,.33,0,.46,0a4.25,4.25,0,0,0-.8-1.16,3.94,3.94,0,0,1,.42-.08,1.32,1.32,0,0,0-.48-.92,2.58,2.58,0,0,1,.42-.17,7.29,7.29,0,0,1-.21-.7l15-1c.86-.25,1.42.93.31,1.1a2.79,2.79,0,0,1,.83.57c-.37,0-.71.2-1.05.22a6.11,6.11,0,0,1,.57.86c-.43.1-.58.25-.92,0a6.52,6.52,0,0,0,.71.93,1,1,0,0,1-1.19,0c.17.47.36.87.5,1.34-.45.16-.83-.12-1.2-.44a16.2,16.2,0,0,0,.39,1.78c-.44.11-.69-.25-1.05-.55a3.26,3.26,0,0,1,.64,1.51,1.47,1.47,0,0,1-.6.2,3.19,3.19,0,0,1-.66-1c.15.53.32,1.07.45,1.61a.51.51,0,0,1-.7-.2c.08.34,0,.62-.43.65a6.22,6.22,0,0,1-.65-1,1.77,1.77,0,0,1-.43,1.75,3.24,3.24,0,0,1-.34-.7.92.92,0,0,1-.75,1c-.07-.22-.17-.45-.23-.68a2.7,2.7,0,0,1-.71,1.17,3.05,3.05,0,0,1-.3-.6.79.79,0,0,1-.62.6,1.61,1.61,0,0,1-.24-.79,2.1,2.1,0,0,1-1,1.23,1.26,1.26,0,0,1-.11-1,1.91,1.91,0,0,1-.89.76,1.41,1.41,0,0,1,0-1.48c-.4.49-.54,1-1.13,1.16a1,1,0,0,1,.06-1.29c-.73,0-.94.73-1.61.84a1.09,1.09,0,0,1,.24-1.27C450.16,94.42,449.25,93.2,450.13,92.93Z"/><path class="cls-11" d="M463.06,84.2s1.55,4.87-3.33,9.08-11.08,1-11.78-4.89S463.06,84.2,463.06,84.2Z"/><path class="cls-12" d="M448,88.39c-1.2-3.56,2-8.41,4.86-10,5.13-2.76,11.28,2.49,10.11,8.11-1.08,5.21-7.66,5.33-13.89,3.61C448.34,90,448.17,89,448,88.39Z"/><path class="cls-12" d="M448.48,87.56c-.51-.27-1.56,0-1.39-.94.48-.19,1-.33,1.47-.52-.82-.35-1.77-.11-1.8-1.42a1.41,1.41,0,0,1,1.25.07,1.89,1.89,0,0,1-1.21-1.59c.78-.46,1.31.07,2.06.2-.42-.6-1-1-1.1-1.89a1.51,1.51,0,0,1,1.35.29,2.8,2.8,0,0,1-.74-1.53,1.31,1.31,0,0,1,1.27.36,4,4,0,0,1-.26-1.32,1.46,1.46,0,0,1,1.31.76c-.13-.43-.25-.86-.35-1.29a.82.82,0,0,1,1.07.47,3,3,0,0,1-.08-1.11,1.11,1.11,0,0,1,1.05.74c-.11-.48-.3-1-.41-1.55.5,0,.78.55,1.09,1-.49-1.62.09-1.48.9-.22a5.06,5.06,0,0,1,0-1.45,4,4,0,0,1,1,1.33,4.46,4.46,0,0,1-.27-1.4c.65-.18,1.26.67,1.44,1.28a3.72,3.72,0,0,1-.11-1.61,2.26,2.26,0,0,1,1,1.55,1.68,1.68,0,0,1,.19-1.44,2.41,2.41,0,0,1,1.25,1.87c0-.57-.2-1.41.51-1.51.22.62.39,1.28.57,1.92-.05-.23,0-.67,0-1a1.25,1.25,0,0,1,.48-.17c.25.55.09,1.13.3,1.74,0-.51.26-.59.47-.84.2.58.09,1.18.28,1.78a1.43,1.43,0,0,1,.59-1.18,5,5,0,0,1,.13,2.35c.1-.49.29-1,.89-1a3.23,3.23,0,0,1-.06,1.07.74.74,0,0,1,.69-.51,4.37,4.37,0,0,1-.28,2c.14-.27.26-.14.62-.34a1.49,1.49,0,0,1-.24,1,3,3,0,0,1,.73-.19,1,1,0,0,1-.2.88c.52-.08.41.75-.34,1.24.06.21.1.41.15.61l-.22.09.07.21c-.32,0-.6.19-.89.23.38.13.26.26.47.43a3.49,3.49,0,0,0-1.07.49,2.1,2.1,0,0,1,.45,1.11,1.7,1.7,0,0,1-1.23.15c.32.14.36.42.44.88a1.83,1.83,0,0,0-1.26,0c.1,0,.22,0,.32,0a2.41,2.41,0,0,1,.22.75,1.19,1.19,0,0,1-1.46-.21,6.34,6.34,0,0,1,.18.78,1,1,0,0,1-1.34-.21c.06.24.11.49.17.72-.49.16-1,0-1.1-.56a3.28,3.28,0,0,1-.05,1.09.88.88,0,0,1-.84-.36,2.11,2.11,0,0,1,0,.49c-.77.33-1.26-.36-1.43-1.09,0,.14,0,.65,0,.88a2.12,2.12,0,0,1-.41.12,6.33,6.33,0,0,1-.3-.9c.13,1.8-.95.36-1.35-.2a3,3,0,0,1-1.54.86l-.39-1.21a1.79,1.79,0,0,1-1.22.58,3.94,3.94,0,0,0,.13-1.13,1.66,1.66,0,0,1-1.17.57,1.44,1.44,0,0,0,0-1.34c-.83.8-1.45-.22-.68-.6C447.26,89.12,447.79,87.94,448.48,87.56Z"/><path class="cls-13" d="M449.68,87.85a.91.91,0,0,1-.52-.76c.21-.06.43-.17.65-.23a2.49,2.49,0,0,1-1.33-1.17c.56-.45,1.07-.08,1.6.24a4.73,4.73,0,0,1-.91-1.27,2.39,2.39,0,0,1,1.15.39,2.4,2.4,0,0,1-.5-1.1c.47,0,.85.31,1.29.48a6.59,6.59,0,0,1-.74-1.92c.76-.43,1,.49,1.77.43,0-.5-.88-3.8.92-2.32-.08-1.72-.74-2,1.14-1.29-.71-1.26.92-1.66,1.21,0a2.51,2.51,0,0,1,.48-1,7.36,7.36,0,0,1,.43,1.08c.24-.39.51-.54.72-.47a.94.94,0,0,1,.24-.18c.06.12.14.25.21.39a2.06,2.06,0,0,1,1-.38,1.68,1.68,0,0,1,.19.66c-.19.07-.31.24-.47.3.43-.18.72,0,.81.48-.26.1-.52.42-.7.5.13,0,.36.19.44.22-.24,0-.5.22-.74.27a6.4,6.4,0,0,0,.79.63,2.25,2.25,0,0,1-1,.39c.28.09.58.35.87.45a.79.79,0,0,1-.87.23,3.88,3.88,0,0,1,1.15,1.27,1.9,1.9,0,0,1-1.41-.06c.48.54,1.14,1,1.18,1.77a4.24,4.24,0,0,1-1.49-1c0,.63.68,1,.71,1.66-.63.21-1.14-.71-1.58-1.13.06.83.83,1.22.93,2.1-.56.27-1.11-.41-1.35-1,.26.71.78,1.86,0,2-.45-.48-.51-1.14-.86-1.64.2.35.51,2.13-.44,2.15l-.2-.62a1.68,1.68,0,0,1-.6,1.17,13.32,13.32,0,0,1-.39-1.37c-.16.64-.44,1.52-.94,1.77a1.55,1.55,0,0,1-.18-1.23A2.34,2.34,0,0,1,450.69,90c-.35-.6.13-1,.56-1.37-.72.17-1.91.79-1.93-.53Z"/><path class="cls-14" d="M450.37,82.07c2.55-3.64,10.53-6.17,4.12,2.92C451.14,89.75,447.65,86,450.37,82.07Z"/><path class="cls-15" d="M373.22,68.5c-.53.14-.53-.13-.32-.54s1.33-.37,1.33-.37v0a8.62,8.62,0,0,0-1-.13c-.22-.59.38-.72.78-1-1,.37-.57-.71.1-1-.1,0-.21.06-.31.09-.26-.51.41-1.1.83-1.3-.25.09-.41,0-.63,0a1.48,1.48,0,0,1,.87-.75,4.58,4.58,0,0,1-.74.13,1.39,1.39,0,0,1,.94-1.17l-.48.06a1.56,1.56,0,0,1,.93-.86,2.33,2.33,0,0,1-.59.08c-.17-.48.34-.89.79-1-.36,0-.53-.2-.37-.6s.89-.5,1.26-.62c-.35.09-.93,0-.64-.38a3.11,3.11,0,0,1,1-.33v0a.55.55,0,0,1-.64-.5,8.22,8.22,0,0,1,.87-.33c-.07,0-.31-.05-.44-.05a1.12,1.12,0,0,1-.06-.23,8.87,8.87,0,0,1,.87-.29,3.15,3.15,0,0,1-.52,0c0-.08-.05-.24-.09-.32.31-.12.76-.25,1-.32-.29-.08-.2-.16-.36-.26.38-.18.8-.19,1.15-.36a1.38,1.38,0,0,1-.32-.2,1.53,1.53,0,0,1,.7-.13.51.51,0,0,1-.4-.42,1.14,1.14,0,0,1,.71,0,.63.63,0,0,1-.35-.58,3.13,3.13,0,0,1,1.21.09.52.52,0,0,1-.4-.66,3.8,3.8,0,0,1,1.46.42c-.31-.25-.8-.38-.69-.87a3.44,3.44,0,0,1,1,.22,1.6,1.6,0,0,1-.07-.58,1.81,1.81,0,0,1,.51.13,1.36,1.36,0,0,1,.07-.25c.15,0,.32,0,.49,0v-.06a.54.54,0,0,1,.25.06,2.16,2.16,0,0,1,.59.08h0c-.59-.31-.53-.47-.66-1.11a7.15,7.15,0,0,0,1.71.08c-.64-.35-.72-.69-.5-1.4,1.19.18,1.78,1.39,2.92,1.67-.53-.52-.33-.58-.35-1.3a13.57,13.57,0,0,1,2.14,1.23c-.69-.49-.33-.4-.4-1.17a12.46,12.46,0,0,1,2.52,1.61c-.6-.58-.19-.36-.33-1.11a3.7,3.7,0,0,1,2.41,2c-.16-.44,0-.63-.09-1a3.18,3.18,0,0,1,2.26,1.47c-.37-.62-.06-.55-.09-1.08a4.08,4.08,0,0,1,1.54,1.62,5.3,5.3,0,0,1,0-.8,5.64,5.64,0,0,1,1.8,1.69c-.27-.38-.12-.29-.16-.91a3.26,3.26,0,0,1,1.57,1.44c-.26-.53-.13-.53-.22-1.07a5,5,0,0,1,1.27.94h0a.44.44,0,0,1,.34,0c0-.12,0-.24.07-.34a7.2,7.2,0,0,1,.5.58.72.72,0,0,1,.06-.33,3.42,3.42,0,0,1,.7,1h0a2.46,2.46,0,0,1-.08-.71c.45-.1.59.45.75.88h0a.93.93,0,0,1,.08-.7,2,2,0,0,1,.72,1h0a5.51,5.51,0,0,1,0-.7c.5-.11.76.53.85,1h0c0-.36,0-.73.36-.85.12.35.21.74.34,1.07a4.29,4.29,0,0,1,.14-.68,1.44,1.44,0,0,1,.48,1.08h0a6.18,6.18,0,0,0-.13-.79c.47-.21.68.35.79.82,0-.13,0-.27,0-.4.46-.08.56.39.74.73a1.63,1.63,0,0,1,.13-.82c.43.39.49,1,.8,1.46a6.89,6.89,0,0,1,0-.79,2.28,2.28,0,0,1,.66,1.3c.4-.13.2-.57.18-1,.59,0,.93,1.08,1.1,1.63.29-1.46.68-.28,1.18.48,0-.31-.08-.6-.14-.91.46.14.35.65.71,1,0-.26,0-.57,0-.8.21.44.55.81.78,1.25h0a3.85,3.85,0,0,1-.07-.57c.4.13.65.57.92.94l.17.07c0-.21,0-.45-.07-.61.4.05.57.5.74.92l.21.1a1.83,1.83,0,0,1,0-.84c.6.16.58,1,1.07,1.29-.09-.27,0-.45,0-.6.45.13.7.71.93,1.19l.12.07a2.12,2.12,0,0,1-.05-.9,1.57,1.57,0,0,1,.85,1.07,2.09,2.09,0,0,1-.05-.56c.53-.13.91.85,1.16,1.51l.07,0a2.11,2.11,0,0,1,0-.79c.43,0,.72.79,1,1.38l.15.1a2.07,2.07,0,0,1,.07-.83c.43.22.53.83.66,1.32l0,0c-.05-.39-.13-.84.34-.88.16.46.28.95.43,1.43l.1.07c-.06-.46-.17-1.1.29-.83.2.11.45,1.07.53,1.44h0c-.06-.41-.15-.85.32-.95a8.33,8.33,0,0,0,.55,1.62c-.07-.39-.1-.83.28-.94a12.45,12.45,0,0,0,.52,1.6l0,0a6.52,6.52,0,0,1,0-.76l.24-.07c.15.44.28.9.41,1.35l.07.06a.73.73,0,0,1,.27-.7c.12.38.14.77.26,1.15l.11.1c.1-.36.07-.73.33-1,.24.48.08,1,.26,1.53l0,0c0-.36.11-.67.38-.81.16.47.29,1,.43,1.45,0-.43.07-.48.34-.65.14.42.25.86.4,1.28,0-.37.17-.45.24-.63a9.43,9.43,0,0,0,.28,1.28l0,0a1.72,1.72,0,0,1,.34-.85c.16.41.17.9.33,1.35,0-.42.2-.44.42-.63a3.8,3.8,0,0,0,.23,1,1.26,1.26,0,0,1,.43-.61,3.46,3.46,0,0,1,.07,1.16c0-.37.2-.48.43-.68a11.21,11.21,0,0,1,0,1.3.38.38,0,0,1,.09-.09,2.83,2.83,0,0,0,.16-.46,4.8,4.8,0,0,1,.19.92c0,.15.09.3.13.46h0c.16-.29.21-.19.42-.37,0,.22.05.49,0,.71a.68.68,0,0,1,.75-.49,2.39,2.39,0,0,1-.15,1.44l0,0c.19-.23.38-.24.69-.24-.08.28-.19.64-.27,1,.08.15.14.31.21.47a1.28,1.28,0,0,1,.56-.18,6.06,6.06,0,0,1-.24,1.35.68.68,0,0,0,0,.14,1.09,1.09,0,0,1,.76-.33.91.91,0,0,1-.34,1,5.08,5.08,0,0,1,.86-.24,7.16,7.16,0,0,1-.91,1.31,1.6,1.6,0,0,1,.82-.33,4.85,4.85,0,0,1-.9,1.19,1.79,1.79,0,0,1,.77-.12,6.11,6.11,0,0,1-1.28,1.31h0a2.16,2.16,0,0,1,1.21-.32,2.35,2.35,0,0,1-1.31,1.06c.48,0,.91-.28,1.36-.24A1.6,1.6,0,0,1,433,84.31a3.64,3.64,0,0,1,1.16-.18c.1.48-.38.66-.86.75.63.05-.12.86-.85,1.11.19,0,.41,0,.59-.08.29.56-.3.72-.79.84a1.81,1.81,0,0,0,.25,0,1.21,1.21,0,0,1,.07.45,2.42,2.42,0,0,1-.7.19,4.69,4.69,0,0,1,.54.06.26.26,0,0,1,.05.19,6.09,6.09,0,0,1-1.44.57c.47,0,.91-.12.94.52-.4.15-.81.28-1.22.41a.38.38,0,0,1,.43.32,4.53,4.53,0,0,1-1.15.3c.29,0,.77,0,.83.45a11.36,11.36,0,0,1-1.5.42h0c.4-.1.84,0,.87.47a7.43,7.43,0,0,0-.92.11c.35,0,.68,0,.77.39-.33.22-.75.15-1.07.25.14,0,.31.09.48.1a.5.5,0,0,1,.07.29,1.08,1.08,0,0,1-.79.11l.14.1a3.46,3.46,0,0,1-1.19.33H428a.73.73,0,0,1,.06.48,2,2,0,0,1-.83.11c.26.09.48.3.31.6s-1.19.06-1.43,0c.42.1.25.14.45.4a1.13,1.13,0,0,1-.82.15.59.59,0,0,1,.31.59c-.55.36-1.06-.05-1.48-.43l-.25.11c4.84-9.12-41.4-27.52-50.42-23.76l-.19.26c-.33.5-.55,1.73-1.17,1.71,0-.33.06-.45.28-.54a.48.48,0,0,1-.09-.54.41.41,0,0,0-.07.11c0-.12.07-.23.1-.34l-.06,0a2.61,2.61,0,0,1,0-1.18l0-.09s.12.1.05.12a4.6,4.6,0,0,1,.15-.92l0-.08S372.43,68.79,373.22,68.5Z"/><path class="cls-16" d="M372.91,71.65l-.06.06.09-.07Z"/><path class="cls-17" d="M373.42,70.84a2.35,2.35,0,0,1,.78-.47,2.21,2.21,0,0,1-.08-.46,1.2,1.2,0,0,1,1,.23l.19,0a1.89,1.89,0,0,1-.21-1,7.4,7.4,0,0,1,1.67.91h.06a1.65,1.65,0,0,1-.43-1.07c.63,0,1.21.57,1.71,1a3,3,0,0,1-.46-1.3c.61-.17,1.53.76,2,1.48h0a3.1,3.1,0,0,1-.35-1.41A6.19,6.19,0,0,1,381,70.34h0c-.16-.51-.32-1-.44-1.54.62,0,1.57,1.14,1.81,1.76h0a3.78,3.78,0,0,1-.28-1.48c.68,0,1.57,1.15,1.93,1.76a3.08,3.08,0,0,1-.27-1.7c.81.13,1.34,1.27,1.68,1.9a8.9,8.9,0,0,1-.41-1.36c.69-.4,1.65.73,1.95,1.47a2,2,0,0,1-.13-1.34,5.06,5.06,0,0,1,1.75,1.86c-.16-.5-.31-1-.42-1.5a3.78,3.78,0,0,1,1.73,1.5c-.09-.32-.18-.64-.26-1,.61-.19,1.28.91,1.5,1.46a6.93,6.93,0,0,1-.3-1.08c.46,0,.95.54,1.33,1.05a4.53,4.53,0,0,1-.06-.71,1.93,1.93,0,0,1,1.31,1.13c0-.21,0-.43-.06-.64.64-.11,1.5.71,1.8,1.27a3.07,3.07,0,0,1-.17-.94c.78.11,1.23,1,1.69,1.63-.14-.46-.28-.92-.38-1.38a4.51,4.51,0,0,1,1.54,1.78,1.7,1.7,0,0,1-.06-1.15c.7.22.9,1.1,1.18,1.68a1.78,1.78,0,0,1,.05-1.17c.63.26.73,1.23.86,1.76h0c-.07-.37-.35-1.59.23-1.38.16,0,.3.46.42.91l0-.35a1.71,1.71,0,0,0,.3-.09c.15.46.29.92.42,1.39l2,.74a.94.94,0,0,1,0-.64c.57,0,.91.62,1.3,1.07-.14-.36,0-.51,0-.73a3.81,3.81,0,0,1,1.61,1.38,7.29,7.29,0,0,1-.32-1.13c.76-.33,1.07.88,1.54,1.28a4.24,4.24,0,0,1-.19-.8c.78-.39,1.13,1.13,1.62,1.6a8.63,8.63,0,0,1-.22-.91c.63-.19,1,1,1.37,1.56a4.26,4.26,0,0,1-.22-1.33c.74.07,1,1.3,1.44,1.82-.08-.51-.19-1.11.08-1.4.42.61.72,1.27,1.08,1.92a3.6,3.6,0,0,0,.13-.79,3,3,0,0,1,.29-.09,12.68,12.68,0,0,1,1,1.73h0c-.09-.39-.11-1.11.39-1,.31,0,.82,1.2,1.09,1.79l.08,0c0-.25,0-.51,0-.74a2.33,2.33,0,0,1,.44-.1,13,13,0,0,1,.86,1.54l0,0a6.6,6.6,0,0,1,.07-.77,3.84,3.84,0,0,1,1.09,1.42l.11,0c0-.8,1,0,1.38.92l0,0c0-.24-.05-.48-.08-.7.78-.38,1.21.88,1.5,1.61l.07,0c0-.29,0-.63,0-.9.78-.13,1.19,1.28,1.5,1.91a1.76,1.76,0,0,1-.13-1.23,2,2,0,0,1,.84,1.14.48.48,0,0,1,.41-.49c.22.61.52,1.69.62,2.09,0-.59-.13-1.3.57-1.33.25.64-.05,1.26.2,1.92a.91.91,0,0,1,.69-.94c.08.55,0,1.14,0,1.7.23-.48.46-.4.89-.6a1.82,1.82,0,0,1-.22,1.57,1.2,1.2,0,0,1,1-.54A1.35,1.35,0,0,1,426.6,91c1-.76,1.36,1.09-.1,1.29.14,0,.59.1.76.1.2.9-.62,1.07-1.29,1.07h0c.23,0,.44.14.66.18a1.68,1.68,0,0,1,.19.66c-.6.31-1.2.13-1.81.35l.21-.42a7,7,0,0,1-1,.69C414.48,100.29,366.32,77.8,373.42,70.84Z"/><path class="cls-18" d="M373.5,71.14a9.83,9.83,0,0,1,3.63-6.1c-.56-.26-.38-.61.61-.83a.86.86,0,0,1-.83-.84,6,6,0,0,1,1.41-.1c-.29-.18-.33-.47-.56-.7a3.11,3.11,0,0,1,1.79.36,6.76,6.76,0,0,1-.24-.85,1.89,1.89,0,0,1,1.27,1,4.07,4.07,0,0,1-.33-1,1.33,1.33,0,0,1,1.43.87,3.53,3.53,0,0,1-.15-.93c.62-.09,1.28.5,1.61,1.07h0a2.81,2.81,0,0,1-.09-1.15c.59,0,.93.62,1.26,1.11h.05a2.93,2.93,0,0,1,0-1.18c.57.18.81.92,1.22,1.22h.2c-.07-.24,0-.53-.05-.75a.72.72,0,0,1,1,.28c-.36-1.41.89.13,1.24.6-.36-1.63.62-.81,1,.15-.05-.52.17-.52.29-.8a3.53,3.53,0,0,1,.45,1.1h.06a1.73,1.73,0,0,1,.43-1.13c.13.39.25.8.36,1.21a3.59,3.59,0,0,1,.48-1.11,9.17,9.17,0,0,0,.35,1.08c0-.55.12-.7.56-.85a7,7,0,0,0,.31,1.28c.08-.39.41-.56.64-.83a2.91,2.91,0,0,1,0,1.18h0a.9.9,0,0,1,.9-.6c0,.28,0,.59,0,.89l.09,0a.79.79,0,0,1,.74-.43c0,.19,0,.43,0,.67l.08,0a1.06,1.06,0,0,1,.89-.6,3.18,3.18,0,0,1-.16.86l0,0c.3-.38.79-.27,1.36.09,0,.14,0,.28,0,.42l1.11.46a7.29,7.29,0,0,0-1.1-.88c0-.3,0-.6,0-.89a10.06,10.06,0,0,1,1,1.67c-.08-.36,0-.51.05-.86a2.65,2.65,0,0,1,.95,1.3,2.2,2.2,0,0,1,.09-1.37c.42.53.65,1.52,1.14,2l.15.07a2.46,2.46,0,0,1,0-1.63,5.12,5.12,0,0,1,1.3,2.11,11.33,11.33,0,0,1,0-1.66c.59.32.69,1.34,1,2a8.44,8.44,0,0,1,.05-1.89c.44.65.5,1.52.85,2.14a4,4,0,0,1,.34-1.49,14.71,14.71,0,0,0,.39,2.14c.06-.48,0-1,.55-1.18.21.47.33,1,.51,1.52.09-.32.43-.51.58-.72a7.93,7.93,0,0,0,.21,1.38,1,1,0,0,1,.47-1c.35.52.11,1.11.32,1.71,0-.13.16-.46.17-.65a1.84,1.84,0,0,1,.56-.14,5.94,5.94,0,0,0,.37,1.58h0c.19-1.58,1.18.1,1.61.65,0-.25,0-.51,0-.71.48.49.67,1.35,1.21,1.75-.06-.38,0-.76,0-1.14.69-.11.89,1,1.07,1.63,0-.32.05-.75,0-1.09l.33-.09c.22.64.37,1.32.61,2,.06-.52-.16-1.3.5-1.44a13.93,13.93,0,0,0,.4,1.76,1.53,1.53,0,0,1,.32-1.37c.25.73.25,1.51.56,2.22,0-.35-.26-1.71.43-1.44.4.16.67,1.54.76,1.91-.11-.51-.12-1.12.45-1.21.25.57.38,1.26.61,1.86a2.38,2.38,0,0,0,0-.38c.14-.11.37-.1.51-.2.22.67.41,1.37.6,2.06,0-.55.13-1.07.59-1.3a4.92,4.92,0,0,0,.47,2.13,1.94,1.94,0,0,1,.43-1.38c.35.65.23,1.46.49,2.1,0-.55,0-1,.53-1.18.2.63.13,1.34.55,1.86-.09-.52.06-.87.56-.94.16.63,0,1.29.19,1.92.09-.49.3-.55.62-.79,0,.54,0,1.08,0,1.63,0-.53.18-1,.7-1.1a3.09,3.09,0,0,1,0,1.57,3.54,3.54,0,0,1,.45-.84,5.59,5.59,0,0,1,0,2.12,1.16,1.16,0,0,1,.78-1,3.56,3.56,0,0,1,0,1.46.78.78,0,0,1,.51-.22,7.6,7.6,0,0,1-.2,1.41c.1-.51.32-.54.74-.69a1.93,1.93,0,0,1-.16,1.22c.07,0,.18-.06.37-.15a2.13,2.13,0,0,1-.29,1.38l.06.11a4.1,4.1,0,0,1,.57,0,.86.86,0,0,0-.3.5c.1.21.19.42.28.62a3.53,3.53,0,0,0,.76-.2c0,.49-.34.85-.39,1.3.62,2.27.06,4.15-2.08,5.33C414.56,100.59,371.35,81.11,373.5,71.14Z"/><path class="cls-11" d="M373.3,74.4c-.7-.09-1.13-.82-1.63-1.25a2,2,0,0,1,1.06-.08c-.07-.18,0-.62-.12-.86a1.25,1.25,0,0,1,.58,0,2.84,2.84,0,0,1,.11-.48c1.16.82,2.05,2.56,3.18,3.58s2.32,2.34,3.65,3.37c5.15,4,11.38,6.4,16.95,9.68,4.14,2.45,8.56,3.63,12.89,5.51A15,15,0,0,0,414.06,95a30.48,30.48,0,0,0,4.38.65c2.39-.08,6-.41,6.22-2.36,0,.08.44.83.48.93a2.6,2.6,0,0,1,1.22,1.4,2,2,0,0,1-1.37-.49,2.68,2.68,0,0,1,.3,1c-.69.48-1.16-.28-1.44-.87.19.66.77,1.67-.2,1.75a6,6,0,0,1-.33-1.24c-.23.42-.42,1.49-1.06,1.48s-.43-.56-.21-.91a3,3,0,0,1-1.31,1c-.12-.44.23-.79.6-1.07a7.31,7.31,0,0,1-2,.88,1.34,1.34,0,0,1-.1-.43,5.46,5.46,0,0,0,.63-.46c-.7.1-1.39.88-2,.49.15-.14.27-.39.48-.53-.14,0-1.23.76-1.61.66s-.72-.6-.21-1c-.65.25-1.88.66-2.35,0,.15-.09.23-.18.36-.27-.62.13-1.62,1-1.94.24.14-.08.28-.18.44-.26-1.08.47-2.85-.43-1.32-.62-.83.06-1.74.52-2.44-.19.22-.08.52-.31.68-.37-.69.17-1.56.45-2.12,0l.14,0a4.05,4.05,0,0,1-1.75-.31l.24-.13c-.89-.24-1.83-.28-2.73-.5.16,0,.32-.12.48-.15-.83.11-3-.37-3.49-1,.18,0,.37-.17.57-.21-.65.2-2.58-.13-2.79-.86.09-.06.2-.06.29-.13-.64-.38-1.62-.33-2.34-.66.09,0,.3-.18.44-.23a2.18,2.18,0,0,1-1.7-.46l.25-.08a1.61,1.61,0,0,1-1.3-.49,3.87,3.87,0,0,1,.53-.32,6.31,6.31,0,0,1-1.28-.2c0-.07.15-.14.19-.21-.77,0-2.08-.16-2.53-.91l.31-.24c-.62-.38-1.54-.39-2.11-1,.21,0,.42-.19.64-.22a3,3,0,0,1-1.63-.48l.16-.06a2.08,2.08,0,0,1-1.75-.7l.47-.11a4.51,4.51,0,0,1-2.57-1,5,5,0,0,1,.49-.2c-.56-.09-3.29-.6-1.4-1.15-.57.16-1.63.28-1.77-.46a3.4,3.4,0,0,0,.34-.12c-.63.15-1.85-.17-1.38-.86a1.6,1.6,0,0,1-1.46-.53c.21-.08.41-.31.7-.33a3.84,3.84,0,0,1-2.24-.82c.16-.14.23-.36.35-.48-.55-.16-1.59-.13-1.78-.81l.1,0a1.2,1.2,0,0,1-1.33-.83,1.74,1.74,0,0,0,.23-.25,2,2,0,0,1-1.51-.86c.15,0,.33-.14.49-.18-.59-.22-1.67-.53-2-1.1A6.92,6.92,0,0,1,373.3,74.4Z"/><polygon class="cls-19" points="386.94 53.42 386.94 53.42 386.94 53.42 386.94 53.42"/><path class="cls-20" d="M388.9,82.66l-.13.2a3,3,0,0,0-1.12-1c-.07.13-.18.26-.24.4-.27-.61-.33-1.42-1.09-1.17,0-.17-.06-.34-.08-.5-.14.13-.42.2-.57.33,0-.22-.24-.46-.26-.68-.07.16-.21.32-.27.48a11.72,11.72,0,0,0-.53-1.32c-.05.17-.18.35-.23.52-.12-.24-.4-.45-.51-.7,0,.23-.13.51-.14.74-.33-.4-.6-.85-.89-1.28,0,.24-.06.51,0,.75a4.62,4.62,0,0,0-.93-1.33c0,.2-.2.47-.24.68a4.69,4.69,0,0,0-.79-.93c-.12.12-.42.2-.53.32-.42-.41-.78-.89-1.22-1.27-.06.14-.19.3-.24.45a21.13,21.13,0,0,0-1.59-1.82c0,.19-.13.44-.14.64-.63-1-1.59-1.69-2.24-2.65-.44-.64,2.18-.19,2.14-.81.91.19,1.76.79,2.67,1a19.75,19.75,0,0,0,2.92.53c0,1,1.89.83,2.6.82-.15.15-.22.37-.35.51a3.07,3.07,0,0,0,1.56-.14c.11.6.79.54,1.32.41-.07.91.78.8,1.38.5-1.32,1.11,1.06,1.48,1.94.71.26.5,1.39.74,1.85.9.29.1.52.16.88.29s.83.42,1,.47c.65.25,1.46.42,2,.66.71.33.91.67,1.9.58.27.49,1.76,1,2.18,1.13s1,.15,1.42.31.37.71,1.07.59a1.21,1.21,0,0,0-.26.2c.31.93,1,.49,1.63.65a9.28,9.28,0,0,0,2,.59c.12.69.86.84,1.46.77a2.74,2.74,0,0,0,2,1.25.69.69,0,0,0-.24.18c.3.65,1.13.71,1.78.66-.19.08-.34.23-.52.32a2.33,2.33,0,0,0,2.19.49.8.8,0,0,0-.32.13c.34.64,1.29.77,2,.78-.08,0-.2.08-.28.12.18.59.51.5.94.71s.71.13,1.22.49,1.87,1,2,1.5c.51,0,.82,1,1.2,1.12.24.75.25,2,1.11,2.3-.35-.13-1.31.21-1.3.56-.21-.16-.56-.14-.78-.29a2,2,0,0,0-.13.29,10.44,10.44,0,0,0-1.18-.73,7.55,7.55,0,0,0,.16.8,2.46,2.46,0,0,0-1.48-1,4.86,4.86,0,0,0-.11.65c-.44-.35-.87-.88-1.46-.92,0,.15,0,.33,0,.5a2,2,0,0,0-1.06-.7,1.27,1.27,0,0,0-.18.27c-.43-.46-1-1.17-1.56-.55A3.69,3.69,0,0,0,410.51,92a2.33,2.33,0,0,0-.14.33c-.34-.5-1-1-1.36-.34A7.33,7.33,0,0,0,408,91.3a1.93,1.93,0,0,0-.3.27c-.48-.44-1-1.2-1.69-.66-.45-.43-1.38-1.69-1.85-.73a4.56,4.56,0,0,1-1-.8l-.29.24a9.87,9.87,0,0,1-1.12-1.12c-.05.17-.18.34-.22.51-.48-.44-1.16-1.31-1.71-.8-.25-.74-.59-.41-.93-.59a2.44,2.44,0,0,1-1.26-.86c-.08.08-.16.17-.25.25-.11-.2-.41-.4-.53-.6a1.94,1.94,0,0,1-.29.21,5.8,5.8,0,0,0-.85-.93c-.07.15-.24.31-.3.47a7.2,7.2,0,0,0-1-1.21c0,.17-.17.35-.21.53a3.12,3.12,0,0,0-.91-.83c0,.18-.16.37-.19.55a10.2,10.2,0,0,0-1.53-1.55c0,.23-.11.54-.09.78-.87-.28-1.08-1.39-1.79-1.88a5.3,5.3,0,0,0,.05,1A1.61,1.61,0,0,0,388.9,82.66Z"/><path class="cls-18" d="M398.91,88.76c.27-.05.6-.34.81-.4-.66-.42-1.92-1-2-1.88.41-.09.84.23,1.29.42a2.56,2.56,0,0,1-1-1.92c.58-.34,1.06.28,1.43.77a2.28,2.28,0,0,1-.06-1.48,4,4,0,0,1,1.28,1.59,3.46,3.46,0,0,1-.18-.65.73.73,0,0,1,1.19.31,1.83,1.83,0,0,0,0-.33c.68-.12,1.34,1,1.94,1.4a2.91,2.91,0,0,1-.39-1.52A2.51,2.51,0,0,1,405,86.39a1.18,1.18,0,0,1,.13-1.31,8.07,8.07,0,0,1,1.46,2.15,3.56,3.56,0,0,1-.06-1.45c.83,0,1.38,1.46,1.72,2.19a4.74,4.74,0,0,1-.13-.93c.84-.37,1.61,1,1.69,1.78-.13-1.94,1.43.28,1.66.83,0-1.39,1.48.06,1.56.74a3.58,3.58,0,0,1,0-.74c.63.1,1.42,1,2,1.39a1.59,1.59,0,0,1-.52-1.48,3.21,3.21,0,0,1,1.85.94,3.75,3.75,0,0,1-.57-1.48,1.57,1.57,0,0,1,.58-.1c.11-.78.71-1.21,1.07,0-.07-.33,0-.89.54-.65.69.32.77,1,1,1.75a.83.83,0,0,1,.95-.77,4.12,4.12,0,0,1,.31,2.26,1.4,1.4,0,0,1,1.22-.73,1.1,1.1,0,0,1-.47,1.51c1.39-.1.85,1.38-.14,1.62.5-.05.8.29.81.84a1.24,1.24,0,0,1-1.38.05c.35.23.23.39.41.77a1.24,1.24,0,0,1-1.55-.24,4.46,4.46,0,0,1,.23.68,2.86,2.86,0,0,1-2.2-.81,3,3,0,0,1,.12.71,2.7,2.7,0,0,1-2-1c.05.13,0,.24.08.48-1,.5-1.73-.58-2.4-1.17,0,1.75-1.95,0-2.39-.71-.35.84-1.74-.06-1.82-.93a2.45,2.45,0,0,1-1.17.12c-.62-.13-.56-.41-.85-.53a3.51,3.51,0,0,0-1.85-.16c.12-.46-.19-.34.37-.73a2.46,2.46,0,0,1-1.7-.22c-.24-.16.09-.61,0-.63-.69-.38-2.07.2-2.6-.58a4.51,4.51,0,0,0,.25-.45c-.76-.2-1.57-.23-2.31-.4A.45.45,0,0,1,398.91,88.76Z"/><path class="cls-18" d="M386.63,80.79c-.07-.9,1-.28,1.63-.42-.7-.44-1.43-.64-1.5-1.64.69-.4,1.55.24,2.17.7a2.45,2.45,0,0,1-.31-1.33c.78-.21,2.13,1.2,2.67,1.77a2.44,2.44,0,0,1-.23-1.67c1,.15,1.92,1.75,2.53,2.57a3.49,3.49,0,0,1-.06-1.07c.8-.32,2.08,2,2.57,2.69-.72-3,1.59.12,2.17.86,0-.57-.45-1.61.47-1.27.65.24,1.27,2,1.68,2.5.08-.47,0-1,.47-1.19.55.68.82,1.53,1.4,2.19a1.57,1.57,0,0,1-.05-1.37c.66.17,1.59,2,1.89,2.71a.15.15,0,0,0,.17-.09,4.76,4.76,0,0,1-.18-1.19c.87.06,1.05,1.31,1.69,1.84a3.81,3.81,0,0,1-.14-1.06,6.92,6.92,0,0,1,1.72,2.41c-.07-.43.12-.76.64-.5s1.16,2.17,1.36,2.73l.4-.26a.58.58,0,0,1-.07-.34A1.63,1.63,0,0,1,410,91a1.71,1.71,0,0,1-1.71-.52c-.91.1-2.11-.08-2.15-1.25.24,1.47-1.67.73-2.29,0-.83.08-2.22-1-1.59-1.35-1.26.17-3.52-.14-1.72-1.19-.65,0-3.39,1.21-3.86.52s.78-1,1.1-1.41c-.75.18-3,.75-3.07-.37a4.56,4.56,0,0,1,.67-.4c-1,.16-3-.14-3.29-1.13a4.31,4.31,0,0,1,.68-.32c-1.21.16-3.92-.34-4.18-1.39a5.89,5.89,0,0,1,1.11.12C389.22,82.19,386.67,81.44,386.63,80.79Z"/><path class="cls-21" d="M404.37,39.79c-5.82,5.84-9,3.77-8.33,2.59,1.16-2.15,1.83-5.3,4-6.62,1.57-1,3.56-.71,5.29-1.1s3.5-1.22,5.3-1.66a72.69,72.69,0,0,1,9.76-1.21c1.11-.12,2.24-.2,3.38-.25l.09.16S410.16,34,404.37,39.79Z"/><path class="cls-22" d="M432.34,32c.41-.12.76,1.47,1.08,1.76q-.54,1.08-1,2.19a17.6,17.6,0,0,0-3,8c-.36,4.18,2.63,14.9,2.63,14.9s-4-10.34-4.41-14.6C427.05,38,430.71,32.49,432.34,32Z"/><path class="cls-23" d="M433.42,33.74a11.24,11.24,0,0,1,1.1,4.43l-1.93-2.66Z"/><path class="cls-24" d="M433.42,33.74l1.1,4.43a45.3,45.3,0,0,1-.23,8.61s15.26-3.06,12.62,8.47l3.92-7.41S439.76,36.6,433.42,33.74Z"/><path class="cls-24" d="M456.23,61.84s-2.2,5-4.11,2.18-2.05-9.86-3.44-12.63l2-4.68S453,51.28,456.23,61.84Z"/><path class="cls-22" d="M457.43,74.33s4-5.14,1.67-7.67c0,0-8,1.62-11.62-.36,0,0,2.66,2.4,9.44,2.44C456.92,68.74,460.84,68,457.43,74.33Z"/><g id="Layer_2-2" data-name="Layer 2"><g id="Layer_1-2-2" data-name="Layer 1-2"><path class="cls-25" d="M119,95.42V73a12.44,12.44,0,0,1,12.71-12.16c.22,0,.45,0,.67,0a12.26,12.26,0,0,1,11.49,12.45c0,14.18.15,28.36-.06,42.54a16.51,16.51,0,0,0,12.35,16.37,23.06,23.06,0,0,0,14.24-.84c4.28-1.71,6.35-5.42,6.8-9.71.84-8,1.25-16,1.86-24,.28-3.66.51-7.33,1-11a23.13,23.13,0,0,1,9.15-15.84,44.26,44.26,0,0,1,13.25-7.51,53.48,53.48,0,0,1,15.47-2.5,43.84,43.84,0,0,1,25.92,6.61,39.91,39.91,0,0,1,18.06,25,38.77,38.77,0,0,1,1,11.81l.08,40a12.1,12.1,0,0,1-13.82,12.49,12.34,12.34,0,0,1-10.85-12.32c0-14-.29-28,.09-42.06.26-10.46-9.18-18.54-19.62-17.22-8.1,1-13.17,5.7-15.87,13.24a7.62,7.62,0,0,0-.33,2.23c-.15,5.32-.22,10.63-.47,16a41.7,41.7,0,0,1-10,25.62,39.83,39.83,0,0,1-24.24,14,40.73,40.73,0,0,1-31-6.78c-11.88-8.15-17.82-19.59-17.9-34C119,108.75,119,102.08,119,95.42Z"/><path class="cls-25" d="M398.82,157a55.89,55.89,0,0,1-25.39-6.59,60.47,60.47,0,0,1-10.14-6.54,11.19,11.19,0,0,1-4.08-11.9,11.62,11.62,0,0,1,8.93-9.07c4.34-1.14,8.13.08,11.65,2.78a32.2,32.2,0,0,0,16.8,7,23,23,0,0,0,12.77-2.48,6.9,6.9,0,0,0,2.86-2.65c.77-1.28.64-2-.57-2.87a22.47,22.47,0,0,0-5.19-2.7c-4.53-1.78-9.33-2.49-14-3.52-7-1.53-13.84-3.59-19.82-7.81-7-4.91-11.1-11.4-11.31-20.06a25,25,0,0,1,5.61-16.21c5.45-7.14,13-10.69,21.58-12.51,12.3-2.66,23.71-.16,34.42,6.15a61,61,0,0,1,6,3.9,12.15,12.15,0,0,1,3.55,14.86c-2.29,4.83-8.22,7.5-13.63,6.31-2.83-.63-5.07-2.3-7.48-3.69-3.12-1.79-6.27-3.59-9.88-4.16-4.76-.77-9.33-.24-13.41,2.59-2.68,1.86-2.65,2.51.21,4a38.7,38.7,0,0,0,11.06,3.42c8,1.58,15.83,3.54,23.07,7.42,6.89,3.71,12,9,14.22,16.66,2.62,9.07.3,17.07-5.58,24.15-5.54,6.66-13,10.13-21.25,12.18A44.83,44.83,0,0,1,398.82,157Z"/><path class="cls-25" d="M34,90.6V37.52C34,30,39.08,24.44,46.58,24.37c7.31-.07,13.2,5,13.21,12.71q.08,46.67,0,93.33c0,1.59,0,1.59,1.56,1.59h46.71c4.66,0,8.61,1.57,11.39,5.47,5.35,7.53.93,17-7.21,19.05a15.87,15.87,0,0,1-4,.48H47.51A13.84,13.84,0,0,1,39,154.41a12.06,12.06,0,0,1-5-10.13V90.6Z"/><path class="cls-25" d="M319.37,157c-14.73-.41-27.84-5.83-38.15-17.25a45.64,45.64,0,0,1-.39-61.14c12.32-13.7,27.81-19.42,46.06-17.31A50.52,50.52,0,0,1,351.8,71.44a11.52,11.52,0,0,1,4.59,11.2c-.61,5-3.67,8-8.28,9.59-4.28,1.45-8.16.48-11.79-2A28.12,28.12,0,0,0,319,85c-11.13.38-21.24,8-24.06,18.4a20.84,20.84,0,0,0,4.28,19.47c9.2,11.21,24.58,13.26,36.89,5,2.65-1.78,5.42-3,8.62-2.73,6.41.52,12.21,4.9,11.82,12.36a11.9,11.9,0,0,1-5.45,9.67A57,57,0,0,1,319.37,157Z"/><path class="cls-26" d="M451,127.77a14.79,14.79,0,1,1-10,14v-.07A14.58,14.58,0,0,1,451,127.77Z"/><path class="cls-26" d="M147.87,179.14A14.75,14.75,0,1,1,162.51,194h-.06A14.77,14.77,0,0,1,147.87,179.14Z"/><rect class="cls-27" width="504" height="217"/></g></g><path class="cls-28" d="M368.34,68.83c-.57.14-.57-.13-.36-.53a1.3,1.3,0,0,1,.94-.52v0c-.2,0-.45,0-.63,0-.26-.59.4-.73.82-1-1.05.39-.63-.69.09-1-.11,0-.22,0-.33.09-.29-.51.42-1.11.87-1.32-.27.1-.44,0-.68,0a1.58,1.58,0,0,1,.93-.77,3.71,3.71,0,0,1-.81.14c0-.46.5-1,1-1.18l-.52.07a1.64,1.64,0,0,1,1-.87,3.42,3.42,0,0,1-.63.09c-.2-.48.35-.9.83-1-.39,0-.57-.19-.41-.6s.95-.51,1.35-.63c-.37.09-1,.06-.7-.37a3.22,3.22,0,0,1,1.11-.35v0c-.35,0-.65-.12-.7-.49.28-.12.62-.25.94-.35-.09,0-.35,0-.49,0a1.19,1.19,0,0,1-.07-.23c.31-.11.63-.22.94-.31a3.76,3.76,0,0,1-.57,0,1.5,1.5,0,0,0-.1-.32c.34-.12.82-.27,1.08-.34-.32-.07-.22-.16-.39-.26.41-.18.86-.2,1.24-.37a1.28,1.28,0,0,1-.36-.2,1.66,1.66,0,0,1,.76-.14.53.53,0,0,1-.45-.41,1.36,1.36,0,0,1,.78-.05.62.62,0,0,1-.39-.57,3.64,3.64,0,0,1,1.31.07.53.53,0,0,1-.45-.66,4.6,4.6,0,0,1,1.59.4c-.34-.24-.86-.37-.76-.85a3.55,3.55,0,0,1,1,.2,1.6,1.6,0,0,1-.08-.58,2.12,2.12,0,0,1,.55.12,1.44,1.44,0,0,1,.08-.25,4.35,4.35,0,0,0,.53,0l0-.06a.67.67,0,0,1,.28.06,2.56,2.56,0,0,1,.64.07h0c-.65-.3-.59-.46-.74-1.1a7.8,7.8,0,0,0,1.86.05c-.71-.34-.8-.67-.57-1.39,1.29.17,2,1.37,3.2,1.63-.59-.51-.37-.58-.41-1.29a14.41,14.41,0,0,1,2.35,1.19c-.76-.48-.37-.4-.46-1.17A14,14,0,0,1,387.14,53c-.66-.58-.21-.36-.38-1.11a4,4,0,0,1,2.65,1.94c-.18-.43-.05-.63-.12-1a3.49,3.49,0,0,1,2.49,1.44c-.41-.62-.08-.56-.12-1.08a4.34,4.34,0,0,1,1.71,1.59,4.19,4.19,0,0,1-.06-.8,6.08,6.08,0,0,1,2,1.67c-.3-.38-.15-.28-.2-.91a3.5,3.5,0,0,1,1.74,1.42c-.3-.52-.16-.53-.27-1.07a5.73,5.73,0,0,1,1.4.92h0a.55.55,0,0,1,.36,0,2.41,2.41,0,0,0,.07-.35c.19.18.38.38.56.58a.61.61,0,0,1,0-.33,3.25,3.25,0,0,1,.78,1h0a2.15,2.15,0,0,1-.11-.71c.49-.11.65.44.83.87h0a.81.81,0,0,1,.07-.7,2,2,0,0,1,.8,1h0a5.62,5.62,0,0,1,0-.7c.54-.11.84.52.95,1h0c0-.37,0-.73.37-.86.14.35.25.74.39,1.07a4.66,4.66,0,0,1,.15-.69,1.43,1.43,0,0,1,.54,1.07h0a3.79,3.79,0,0,0-.15-.79c.51-.22.74.34.87.81,0-.14,0-.28-.05-.4.5-.09.61.38.82.72a1.51,1.51,0,0,1,.12-.82c.48.37.56,1,.9,1.44a6.91,6.91,0,0,1,0-.79,2.27,2.27,0,0,1,.74,1.29c.43-.13.21-.57.17-1,.65,0,1,1.07,1.23,1.62.29-1.47.74-.29,1.3.46-.05-.31-.11-.6-.18-.91.5.13.4.65.79,1,0-.26,0-.57,0-.8.25.44.62.8.88,1.24h0a3.9,3.9,0,0,1-.08-.57c.43.13.71.57,1,.92l.19.08c-.05-.21-.05-.45-.09-.61.44,0,.63.49.82.91l.23.09a1.71,1.71,0,0,1,0-.84c.66.15.65,1,1.2,1.27-.11-.26,0-.45,0-.59.5.12.78.7,1,1.18l.14.06a2,2,0,0,1-.07-.9,1.66,1.66,0,0,1,.95,1.06,1.76,1.76,0,0,1-.07-.56c.56-.14,1,.84,1.29,1.5l.07,0a2.17,2.17,0,0,1-.06-.8c.47-.05.8.79,1.08,1.37l.16.1a2.13,2.13,0,0,1,.06-.84c.47.22.6.83.74,1.32l0,0c-.05-.39-.16-.84.36-.89.18.46.32,1,.49,1.42l.11.07c-.07-.46-.21-1.09.3-.83a4,4,0,0,1,.61,1.44h0c-.07-.42-.17-.85.34-1a7.39,7.39,0,0,0,.63,1.61c-.09-.39-.13-.83.28-.94a12.62,12.62,0,0,0,.59,1.59l.05,0a6.61,6.61,0,0,1-.05-.76l.27-.07c.17.44.31.89.46,1.34l.08.06a.69.69,0,0,1,.28-.7c.14.38.17.77.3,1.15l.13.09c.1-.36.05-.73.34-1,.26.47.11,1,.31,1.52l0,0c0-.36.1-.68.39-.82.18.47.34,1,.49,1.45-.05-.44.07-.49.36-.67.17.42.29.87.46,1.28,0-.36.17-.45.25-.63a10.48,10.48,0,0,0,.33,1.28l0,0a1.68,1.68,0,0,1,.35-.85c.19.41.21.9.39,1.35,0-.42.21-.45.44-.64a3.73,3.73,0,0,0,.27,1c.06-.31.32-.45.46-.61a3.22,3.22,0,0,1,.09,1.16c0-.37.21-.49.46-.69a11.38,11.38,0,0,1,.08,1.31.47.47,0,0,1,.1-.1,4.51,4.51,0,0,0,.17-.46,5.27,5.27,0,0,1,.22.91l.15.46v0c.17-.3.22-.19.45-.38,0,.22.06.49.05.71a.72.72,0,0,1,.79-.5,2.12,2.12,0,0,1-.13,1.44l0,0a.82.82,0,0,1,.74-.25c-.08.28-.19.65-.27,1a4,4,0,0,1,.23.46,1.5,1.5,0,0,1,.61-.18,5.17,5.17,0,0,1-.24,1.35l0,.14a1.28,1.28,0,0,1,.82-.34c.2.38,0,.75-.35,1a7.63,7.63,0,0,1,.93-.25,7.53,7.53,0,0,1-.95,1.33,1.68,1.68,0,0,1,.87-.34,4.63,4.63,0,0,1-.95,1.2,2.13,2.13,0,0,1,.84-.13,6.36,6.36,0,0,1-1.36,1.33h0a2.46,2.46,0,0,1,1.3-.34,2.47,2.47,0,0,1-1.4,1.09c.52,0,1-.3,1.47-.27a1.63,1.63,0,0,1-1.22,1.17,4.24,4.24,0,0,1,1.25-.2c.13.48-.39.67-.92.77.69,0-.11.86-.89,1.13.2,0,.44-.06.64-.09.33.55-.31.72-.84.84h.26a1,1,0,0,1,.09.44,2.86,2.86,0,0,1-.76.21,3.7,3.7,0,0,1,.59.05.2.2,0,0,1,.06.18,6.55,6.55,0,0,1-1.55.59c.51,0,1-.13,1,.52-.43.15-.87.28-1.31.42a.42.42,0,0,1,.47.32,6.45,6.45,0,0,1-1.24.32c.31,0,.83,0,.9.43a10.81,10.81,0,0,1-1.61.44h0c.43-.1.91,0,.95.46-.32,0-.66.07-1,.13.37,0,.73,0,.84.37-.35.23-.81.16-1.15.27.15,0,.33.08.51.1a.39.39,0,0,1,.09.29,1.26,1.26,0,0,1-.86.12l.15.09a3.76,3.76,0,0,1-1.28.36h.23a.69.69,0,0,1,.08.48,2.14,2.14,0,0,1-.9.12c.28.09.53.3.35.6s-1.3.08-1.56,0c.47.09.27.14.5.4a1.36,1.36,0,0,1-.88.16.59.59,0,0,1,.34.59c-.59.36-1.15,0-1.61-.41l-.27.11c5.06-9.21-45.51-26.94-55.22-23l-.2.25c-.35.51-.56,1.75-1.24,1.74,0-.33.06-.45.29-.55a.45.45,0,0,1-.1-.54.76.76,0,0,0-.08.11c0-.11.07-.23.11-.34l-.07,0a.91.91,0,0,1,.37-1.1l0-.09c-.12,0-.24,0-.32,0a1,1,0,0,1,.52-.84l0-.08C367.5,70.22,367.49,69.14,368.34,68.83Z"/></g></g></svg>