<svg xmlns="http://www.w3.org/2000/svg" viewBox="0 0 435.81 170.52"><defs><style>.cls-1{fill:#fff;}.cls-2{fill:#00aeef;}</style></defs><g id="Layer_2" data-name="Layer 2"><g id="Layer_1-2" data-name="Layer 1"><path class="cls-1" d="M84.19,71.24c0-7.48,0-15,0-22.44A12.46,12.46,0,0,1,97.6,36.64a12.26,12.26,0,0,1,11.49,12.47c0,14.2.15,28.39,0,42.59a16.51,16.51,0,0,0,12.35,16.38,23,23,0,0,0,14.26-.83c4.3-1.72,6.36-5.42,6.82-9.73.84-8,1.25-16,1.86-24,.28-3.67.51-7.35.94-11a23.39,23.39,0,0,1,9.16-15.87,44.64,44.64,0,0,1,13.27-7.52,53.56,53.56,0,0,1,15.55-2.49c9.31-.36,18,1.59,25.95,6.62a40,40,0,0,1,18.08,25,39,39,0,0,1,1.09,9.26q0,21.42,0,42.83c0,7.77-6.29,13.34-13.84,12.36a12.38,12.38,0,0,1-10.87-12.33c0-14-.29-28.09.1-42.11C204,67.76,194.56,59.68,184.1,61c-8.11,1-13.19,5.72-15.88,13.25a7.13,7.13,0,0,0-.33,2.25c-.15,5.31-.22,10.63-.48,15.94a41.85,41.85,0,0,1-10,25.65,39.92,39.92,0,0,1-24.27,14.06,40.84,40.84,0,0,1-31-6.8c-11.89-8.15-17.84-19.61-17.91-34C84.16,84.6,84.19,77.92,84.19,71.24Z"/><path class="cls-1" d="M364.86,132.79a55.76,55.76,0,0,1-25.39-6.59,59.83,59.83,0,0,1-10.14-6.57,11.19,11.19,0,0,1-4.07-11.9,11.6,11.6,0,0,1,8.92-9.06c4.35-1.14,8.14.07,11.66,2.77,5,3.8,10.47,6.45,16.8,7A22.94,22.94,0,0,0,375.41,106a7,7,0,0,0,2.86-2.65c.76-1.28.63-2-.57-2.87a22.5,22.5,0,0,0-5.2-2.69c-4.53-1.79-9.32-2.49-14-3.52-7-1.54-13.83-3.59-19.81-7.81-7-4.92-11.11-11.41-11.32-20.06A25.07,25.07,0,0,1,333,50.16C338.44,43,346,39.48,354.56,37.64c12.3-2.66,23.71-.16,34.43,6.15a60.71,60.71,0,0,1,6,3.89,12.15,12.15,0,0,1,3.56,14.86c-2.29,4.83-8.22,7.5-13.63,6.31-2.83-.62-5.07-2.29-7.48-3.68-3.13-1.8-6.27-3.59-9.88-4.17-4.76-.76-9.33-.24-13.42,2.6-2.68,1.85-2.65,2.5.22,4,3.46,1.85,7.25,2.66,11.06,3.42,8,1.57,15.83,3.53,23.06,7.41,6.9,3.71,12,9,14.23,16.66,2.61,9.07.3,17.08-5.58,24.15-5.55,6.67-13,10.13-21.25,12.18A45.72,45.72,0,0,1,364.86,132.79Z"/><path class="cls-1" d="M0,66.31Q0,39.75,0,13.18C0,5.66,5.1.07,12.6,0c7.31-.07,13.21,5,13.22,12.73q.08,46.72,0,93.44c0,1.6,0,1.6,1.57,1.6H74.17c4.67,0,8.63,1.58,11.4,5.48,5.36,7.55.93,17-7.21,19.08a16.17,16.17,0,0,1-4,.47q-30.39,0-60.79,0A13.71,13.71,0,0,1,5,130.2a12.07,12.07,0,0,1-5-10.15q0-24.64,0-49.3Z"/><path class="cls-1" d="M285.42,132.83c-14.73-.4-27.84-5.83-38.15-17.25a44.5,44.5,0,0,1-11.94-31.75,44.36,44.36,0,0,1,11.54-29.38C259.19,40.74,274.69,35,292.93,37.13a50.39,50.39,0,0,1,24.91,10.15,11.53,11.53,0,0,1,4.6,11.21c-.61,4.95-3.68,8-8.29,9.58-4.28,1.46-8.16.49-11.79-2A27.93,27.93,0,0,0,285,60.88c-11.14.37-21.25,8-24.06,18.39a20.8,20.8,0,0,0,4.27,19.47c9.2,11.21,24.58,13.26,36.9,5,2.64-1.77,5.41-3,8.61-2.73,6.41.53,12.21,4.9,11.82,12.37a11.88,11.88,0,0,1-5.44,9.66A57,57,0,0,1,285.42,132.83Z"/><path class="cls-2" d="M421,102.86a14.76,14.76,0,1,1-14.73,14.71A14.78,14.78,0,0,1,421,102.86Z"/><path class="cls-2" d="M113.91,155.66a14.75,14.75,0,1,1,14.59,14.86A14.79,14.79,0,0,1,113.91,155.66Z"/></g></g></svg>