<?xml version="1.0" encoding="utf-8"?>
<!-- Generator: Adobe Illustrator 24.2.0, SVG Export Plug-In . SVG Version: 6.00 Build 0)  -->
<svg version="1.1" id="Layer_1" xmlns="http://www.w3.org/2000/svg" xmlns:xlink="http://www.w3.org/1999/xlink" x="0px" y="0px"
	 viewBox="0 0 504 217.4" style="enable-background:new 0 0 504 217.4;" xml:space="preserve">
<style type="text/css">
	.st0{fill:#FFFFFF;}
	.st1{fill:#00AFF0;}
	.st2{fill:none;}
</style>
<g id="Layer_2_1_">
	<g id="Layer_1-2">
		<path class="st0" d="M119,95.6c0-7.5,0-15,0-22.4c0.2-6.9,5.8-12.3,12.7-12.2c0.2,0,0.5,0,0.7,0c6.5,0.5,11.6,5.9,11.5,12.5
			c0,14.2,0.1,28.4-0.1,42.5c-0.2,7.7,4.9,14.4,12.3,16.4c4.7,1.2,9.7,0.9,14.2-0.8c4.3-1.7,6.4-5.4,6.8-9.7c0.8-8,1.2-16,1.9-24
			c0.3-3.7,0.5-7.3,1-11c0.8-6.6,4-11.7,9.1-15.8c4-3.2,8.4-5.8,13.3-7.5c5-1.6,10.2-2.4,15.5-2.5c9.1-0.6,18.2,1.8,25.9,6.6
			c9.1,5.6,15.6,14.6,18.1,25c0.9,3.9,1.3,7.8,1,11.8c0,13.4,0.1,26.7,0.1,40c0.3,6.8-5,12.4-11.7,12.6c-0.7,0-1.4,0-2.1-0.1
			c-6.2-0.8-10.9-6.1-10.8-12.3c0-14-0.3-28,0.1-42.1c0.3-10.5-9.2-18.5-19.6-17.2c-8.1,1-13.2,5.7-15.9,13.2
			c-0.2,0.7-0.3,1.5-0.3,2.2c-0.1,5.3-0.2,10.6-0.5,16c-0.3,9.4-3.9,18.5-10,25.6c-6.1,7.5-14.7,12.4-24.2,14c-10.8,2-22-0.4-31-6.8
			c-11.9-8.2-17.8-19.6-17.9-34C119,108.9,119,102.3,119,95.6z"/>
		<path class="st0" d="M398.8,157.1c-8.9-0.2-17.6-2.4-25.4-6.6c-3.6-1.8-7-4-10.1-6.5c-3.7-2.8-5.3-7.5-4.1-11.9
			c0.9-4.5,4.4-8.1,8.9-9.1c4.3-1.1,8.1,0.1,11.6,2.8c4.8,3.9,10.6,6.3,16.8,7c4.4,0.4,8.8-0.4,12.8-2.5c1.2-0.6,2.2-1.5,2.9-2.6
			c0.8-1.3,0.6-2-0.6-2.9c-1.6-1.1-3.3-2-5.2-2.7c-4.5-1.8-9.3-2.5-14-3.5c-7-1.5-13.8-3.6-19.8-7.8c-7-4.9-11.1-11.4-11.3-20.1
			c-0.1-5.9,1.9-11.6,5.6-16.2c5.5-7.1,13-10.7,21.6-12.5c12.3-2.7,23.7-0.2,34.4,6.2c2.1,1.2,4.1,2.5,6,3.9c4.5,3.5,6,9.7,3.5,14.9
			c-2.3,4.8-8.2,7.5-13.6,6.3c-2.8-0.6-5.1-2.3-7.5-3.7c-3.1-1.8-6.3-3.6-9.9-4.2c-4.8-0.8-9.3-0.2-13.4,2.6c-2.7,1.9-2.6,2.5,0.2,4
			c3.5,1.7,7.2,2.8,11.1,3.4c8,1.6,15.8,3.5,23.1,7.4c6.9,3.7,12,9,14.2,16.7c2.6,9.1,0.3,17.1-5.6,24.1c-5.5,6.7-13,10.1-21.3,12.2
			C406.2,156.7,402.5,157.1,398.8,157.1z"/>
		<path class="st0" d="M34,90.8V37.7c0-7.5,5.1-13.1,12.6-13.2c7.3-0.1,13.2,5,13.2,12.7c0,31.1,0,62.2,0,93.3c0,1.6,0,1.6,1.6,1.6
			h46.7c4.7,0,8.6,1.6,11.4,5.5c5.4,7.5,0.9,17-7.2,19c-1.3,0.3-2.6,0.5-4,0.5H47.6c-3,0.1-6-0.8-8.5-2.6c-3.2-2.3-5.1-6.1-5-10.1
			c0-16.4,0-32.8,0-49.2L34,90.8L34,90.8z"/>
		<path class="st0" d="M319.4,157.2c-14.7-0.4-27.8-5.8-38.1-17.3c-15.8-17.3-16-43.7-0.4-61.1c12.3-13.7,27.8-19.4,46.1-17.3
			c9.1,1.1,17.7,4.6,24.9,10.2c3.5,2.6,5.3,6.9,4.6,11.2c-0.6,5-3.7,8-8.3,9.6c-4.3,1.4-8.2,0.5-11.8-2c-5.1-3.6-11.2-5.4-17.4-5.2
			c-11.1,0.4-21.2,8-24.1,18.4c-2,6.8-0.4,14.1,4.3,19.5c9.2,11.2,24.6,13.3,36.9,5c2.6-1.8,5.4-3,8.6-2.7
			c6.4,0.5,12.2,4.9,11.8,12.4c-0.1,3.9-2.2,7.5-5.5,9.7C341.7,153.7,330.7,157.1,319.4,157.2z"/>
		<path class="st1" d="M451,127.9c10.7-3.4,20.5,5.2,19.4,15.6c-0.7,6.8-6.2,12.3-13,13c-8.9,1-16.4-5.9-16.5-14.6v-0.1
			C441,135.6,445,129.8,451,127.9z"/>
		<path class="st1" d="M147.9,179.3c0.1-8.4,7.1-15.1,15.6-14.6c7.5,0.4,13.6,6.6,13.9,14.1c0.3,8.5-6.5,15.4-14.8,15.3
			c0,0,0,0-0.1,0C154.3,194.1,147.8,187.4,147.9,179.3z"/>
		<rect y="0.2" class="st2" width="504" height="217"/>
	</g>
</g>
</svg>
