<?xml version="1.0" encoding="utf-8"?>
<!-- Generator: Adobe Illustrator 24.2.0, SVG Export Plug-In . SVG Version: 6.00 Build 0)  -->
<svg version="1.1" id="Layer_1" xmlns="http://www.w3.org/2000/svg" xmlns:xlink="http://www.w3.org/1999/xlink" x="0px" y="0px"
	 viewBox="0 0 504 217.4" style="enable-background:new 0 0 504 217.4;" xml:space="preserve">
<style type="text/css">
	.st0{fill:url(#SVGID_1_);}
	.st1{fill:url(#SVGID_2_);}
	.st2{fill:url(#SVGID_3_);}
	.st3{opacity:0.6;fill:#B71A22;}
	.st4{fill:url(#SVGID_4_);}
	.st5{fill:url(#SVGID_5_);}
	.st6{fill:#FFEFEB;}
	.st7{fill:url(#SVGID_6_);}
	.st8{fill:url(#SVGID_7_);}
	.st9{opacity:0.5;fill:#BF2631;}
	.st10{fill:#EFE1DC;}
	.st11{fill:#DFCEC7;}
	.st12{opacity:0.5;fill:#EFE0DA;}
	.st13{fill:#EFE0DA;}
	.st14{fill:url(#SVGID_8_);}
	.st15{fill:url(#SVGID_9_);}
	.st16{opacity:0.6;fill:#EFE1DC;}
	.st17{opacity:0.3;fill:#EFE1DC;}
	.st18{fill:url(#SVGID_10_);}
	.st19{fill:url(#SVGID_11_);}
	.st20{fill:#BF2631;}
	.st21{fill:#ED2C2F;}
	.st22{fill:#E02B35;}
	.st23{opacity:0.6;fill:#ED2C2F;}
	.st24{fill:#FFFFFF;}
	.st25{fill:#00AFF0;}
	.st26{fill:none;}
	.st27{fill:url(#SVGID_12_);}
</style>
<rect x="-1039.8" y="91.8" width="589.8" height="284.9"/>
<g>
	
		<linearGradient id="SVGID_1_" gradientUnits="userSpaceOnUse" x1="416.0356" y1="323.1511" x2="420.8191" y2="315.2399" gradientTransform="matrix(-0.9911 -0.1329 -0.1329 0.9911 781.0431 100.0387)">
		<stop  offset="0" style="stop-color:#D01D30"/>
		<stop  offset="0.9949" style="stop-color:#741D30"/>
	</linearGradient>
	<path class="st0" d="M330.2,358.8c2,0.8-3.6,11.6-5.2,13.6c-0.2-1-1.8,0.6-2-0.7c-1.7-8.7-5.6-13.5-8.3-15.5L330.2,358.8z"/>
	
		<linearGradient id="SVGID_2_" gradientUnits="userSpaceOnUse" x1="432.4518" y1="311.9105" x2="418.6652" y2="306.1235" gradientTransform="matrix(-0.9911 -0.1329 -0.1329 0.9911 781.0431 100.0387)">
		<stop  offset="0" style="stop-color:#D01D30"/>
		<stop  offset="0.7908" style="stop-color:#E8262E"/>
	</linearGradient>
	<path class="st1" d="M309.9,358.2l8.4-19.6c1.7-2.1,0.7-2.7,3.4-0.4c1.5,1.3,5.4,11.9,6.1,15c0.5,2.3,2.8,3.6,2.6,5.9
		c-2.4,0.5-7,1-10.9-0.9c-2-0.9-4.1-0.9-6.2-0.6C312.1,357.7,311,357.9,309.9,358.2z"/>
	
		<linearGradient id="SVGID_3_" gradientUnits="userSpaceOnUse" x1="429.2354" y1="317.3601" x2="435.4332" y2="293.6316" gradientTransform="matrix(-0.9911 -0.1329 -0.1329 0.9911 781.0431 100.0387)">
		<stop  offset="0" style="stop-color:#BC1F30"/>
		<stop  offset="0.7908" style="stop-color:#E8262E"/>
	</linearGradient>
	<path class="st2" d="M306.4,324.6c3.1,1.8,6.7,4.1,9.5,6.5c1.8,1.5,7,6.4,5.9,8.2c-1.4,2.4-7.9,14.4-10.2,18.5
		c-1,0.2-1.9,0.4-2.9,0.7c-2,0.3-3.9,0.7-6,0.1l-3-34.1C300.3,321.7,304.6,323.6,306.4,324.6z"/>
	<path class="st3" d="M302.2,328.2c0.6-0.7,1.5-2.8,2.3-3c2.2,4.9,0.8,12.5,0.6,17.4c-0.1,2.7,1.3,6.7,1.2,9.4
		c0,1.1-0.4,4.3,1.8,4.4c4.3,0.1,8.4-10,9.5-9.2c2.2,1.6-2.7,8.3-4.1,10.5c-1.8,0.1-3.6,0.5-5.3,1.1c-1.3,0.2-2.5,0.4-3.1,0.3
		c-0.2-1.1-0.4-2.2-0.5-2.5c-0.6-3-1.3-6.9-1.3-9.9c-0.1-4.2-0.2-6.6-0.2-10.9C303,333.7,301,329.5,302.2,328.2z"/>
	
		<linearGradient id="SVGID_4_" gradientUnits="userSpaceOnUse" x1="444.4026" y1="295.5995" x2="440.0295" y2="315.0964" gradientTransform="matrix(-0.9911 -0.1329 -0.1329 0.9911 781.0431 100.0387)">
		<stop  offset="0" style="stop-color:#D01D30"/>
		<stop  offset="0.9949" style="stop-color:#741D30"/>
	</linearGradient>
	<path class="st4" d="M298.2,336.5c0.3-2.1,2-8.6,4.8-8.8c2.6-0.2,1.6,5.8,1.3,7.4c-1,5.1,0.1,8.3,0.2,12.2
		c0.2,4.1,1.1,6.6,0.1,10.1c-0.2,0.7-0.6,2.5-1.6,2.2c-1.8-0.5-0.5-4.2-2.2-4.7l1.9,0.4c0.7-2.8-2.3-7.5-3.3-10.3
		C298.3,342.1,297.8,339.6,298.2,336.5z"/>
	<g>
		
			<linearGradient id="SVGID_5_" gradientUnits="userSpaceOnUse" x1="469.375" y1="296.3072" x2="458.7833" y2="310.8484" gradientTransform="matrix(-0.9911 -0.1329 -0.1329 0.9911 781.0431 100.0387)">
			<stop  offset="0" style="stop-color:#D01D30"/>
			<stop  offset="0.7908" style="stop-color:#E8262E"/>
		</linearGradient>
		<path class="st5" d="M262.7,337.9c2.5-1.1,3-1.6,4.3-4.1c1.2-2.1,1.8-5.3,4-6.6c1.6-1,3.6-0.7,5.3-1.1c1.8-0.4,3.5-1.2,5.3-1.7
			c3.2-0.8,6.5-0.9,9.8-1.2c2.7-0.3,5.5-0.4,8.2-0.3c1.2,0,3.6,0.2,4.1,1.5c0.7,1.7-2.4,5.3-2.7,7c-0.5,2.7-0.7,5.5-0.4,8.3
			c0.7,6.5,3.7,12.4,4.6,18.7c0.4,3-0.6,5.5,0.6,8.3c0.8,2,1.2,2.3,0.3,4.3c-0.6,1.2-1.6,3.7-2.8,4.1c0,0-49.1-29.6-50.3-29.9
			C253.3,339.5,259.8,339.2,262.7,337.9z"/>
	</g>
	<path class="st6" d="M244.6,363.2c3-7.5,21.1-0.1,25.9,2c6.9,3,13.8,4.6,19.7,9.5c2.2,1.9,7.8,7,6.8,10.4c-0.9,3.2-6.6,2.5-9.1,2.9
		c-4.2,0.7-8.1-1-11.9-2.8c-7.3-3.3-13.7-8.3-20.7-12.2C252.1,371.3,242.4,368.6,244.6,363.2z"/>
	<g>
		
			<linearGradient id="SVGID_6_" gradientUnits="userSpaceOnUse" x1="464.3371" y1="323.3446" x2="461.1677" y2="303.0074" gradientTransform="matrix(-0.9911 -0.1329 -0.1329 0.9911 781.0431 100.0387)">
			<stop  offset="1.530610e-02" style="stop-color:#E6472E;stop-opacity:0.8"/>
			<stop  offset="0.9949" style="stop-color:#E8262E;stop-opacity:0.8"/>
		</linearGradient>
		<path class="st7" d="M261.8,346.7c3.3-3,6.8-6.6,10.4-9.3c3.6-2.7,7.5-5.2,11.8-6.3c9.1-2.3,13.9,5.1,14.8,13.7
			c0.2,1.7-0.3,15.2-1.9,14.6c-9.6-3.4-19.2-6.9-28.8-10.3C265.9,348.4,263.8,347.7,261.8,346.7z"/>
		
			<linearGradient id="SVGID_7_" gradientUnits="userSpaceOnUse" x1="480.9923" y1="322.5357" x2="476.407" y2="293.1129" gradientTransform="matrix(-0.9911 -0.1329 -0.1329 0.9911 781.0431 100.0387)">
			<stop  offset="1.530610e-02" style="stop-color:#E6472E;stop-opacity:0.8"/>
			<stop  offset="0.9949" style="stop-color:#E8262E;stop-opacity:0.8"/>
		</linearGradient>
		<path class="st8" d="M263.7,348.7c-0.1,0-0.1,0-0.2-0.1L263.7,348.7z"/>
	</g>
	<path class="st9" d="M253.4,344.3c1.3,0.5,1.4-0.6,1.4-1.6c0.3,0.1,0.8,0,1.2,0.1c0-0.4,0.3-1,0.2-1.4c0.4,0.6,0.9,1.4,1.7,1.5
		c-0.1-0.4,0.1-0.8,0.1-1.3c1,0.3,1.2,1.3,2,1.5c0-0.4,0.3-0.9,0.3-1.2c0.5,0.5,0.7,1.4,1.6,1.3c0-0.5,0.3-1.1,0.3-1.6
		c0.6,0.8,1.2,2.7,1.8,0.7c0.2,0.5,0.5,1.1,0.8,1.6c0.1-0.3,0.4-0.6,0.5-1c0.1,1,1,2.1,1.3,0.4c0.6,0.7,1.5,3.7,2.3,1.2
		c0.5,0.7,1.3,2.5,1.7,0.7c0.6,0.7,0.8,1.7,1.8,1.7c0-0.3,0.1-0.6,0.2-0.9c0.5,0.3,0.8,0.9,1.3,1.3c-0.1-0.5,0.1-0.8,0.1-1.3
		c0.9,0.4,0.9,1.5,2,1.6c0-0.3,0-0.4,0-0.7c0.9,0.1,1.2,1.1,2,1.5c0-0.2,0.2-0.4,0.2-0.7c0.8,0.3,1.1,1.1,1.9,1.3
		c0-0.3,0.2-0.7,0.2-0.9c0.5,0.6,1,1.6,1.7,1.9c-0.3-0.6,0-0.9-0.1-1.5c0.6,0.6,0.8,1.5,1.5,2.1c-0.1-0.4,0.2-1,0.2-1.4
		c0.8,0.5,1.5,1.7,2,2.6c-0.1-0.6,0-1,0.1-1.6c0.9,0.8,1.5,1.9,2.4,2.8c0-0.4,0.3-1,0.3-1.5c0.4,0.6,0.7,1.5,1.1,2.1
		c0-0.5,0.4-0.9,0.5-1.2c0.3,0.5,0.5,1.3,0.8,1.8c0.1-0.3,0.4-0.8,0.5-1c0.6,0.4,0.5,1.2,0.6,2c0.4-0.5,0.8-0.5,1.1-0.6
		c-0.1,0.4,0,0.9-0.1,1.2c0.4-0.3,0.5,0,1-0.2c-0.1,0.3-0.1,0.9-0.3,1.2c0.4-0.4,0.9-0.6,1.5-0.4c-0.1,0.2,0.1,0.8,0,1.1
		c0.7-0.3,1.3,0,1.3,0.9c0-0.5,0.3-0.8,0.4-1c0.3,0.7,0.4,1.4,0.6,2.1c0.1,0,0.4,0,0.5,0c0-0.3,0.2-0.7,0.2-1
		c0.5,0.6,0.8,1.6,1.2,2.4c0-0.5,0.3-1,0.3-1.4c0.4,0.7,0.6,1.5,0.8,2.2c0.2-0.1,0.2-0.2,0.4-0.3c0.2,0.5,0.5,1.1,0.5,1.7
		c0.1-0.2,0.2-0.4,0.2-0.6c0.7,0.4,0.6,1.4,0.9,2.1c0.1-0.4,0.3-0.7,0.4-1.1c0.1,0.5,0.2,1.7,0.2,1.9c0.1-0.2,0.3-0.6,0.4-0.7
		c0.1,0.8,0.3,1.6,0.4,2.4c0.6,0.4,0.3,1.5,0.3,2.3c0.1-0.1,0.4-0.4,0.6-0.5c0.6,0.8,0.9,2.6,0.8,3.6l-51.5-26
		C253.4,346.1,253.1,345.1,253.4,344.3z"/>
	<g>
		<path class="st10" d="M321.1,384.4c-0.4,0-1.1-0.5-1.1-1.1c0.4,0,0.5-0.2,0.9-0.1c-0.4-0.3-0.8-0.5-1.1-0.9
			c0.4-0.1,0.5-0.3,0.9-0.1c-0.6-0.2-1-0.7-1.3-1.2c0.2,0,0.3-0.1,0.5,0c-0.1-0.3-0.5-0.8-0.8-1.2c0.1,0,0.3-0.1,0.4-0.1
			c-0.1-0.4-0.2-0.7-0.5-0.9c0.1,0,0.3-0.1,0.4-0.2c-0.1-0.2-0.3-0.8-0.2-0.7l15-1c0.9-0.2,1.4,0.9,0.3,1.1c0.3,0.1,0.6,0.3,0.8,0.6
			c-0.4,0.1-0.7,0.2-1.1,0.2c0.2,0.2,0.4,0.6,0.6,0.9c-0.4,0.1-0.6,0.2-0.9,0c0.2,0.4,0.5,0.6,0.7,0.9c-0.4,0.3-0.8,0.2-1.2,0
			c0.2,0.5,0.4,0.9,0.5,1.3c-0.4,0.2-0.8-0.1-1.2-0.4c0,0.6,0.3,1.2,0.4,1.8c-0.4,0.1-0.7-0.3-1-0.5c0.3,0.4,0.6,1,0.6,1.5
			c-0.1,0.1-0.4,0.2-0.6,0.2c-0.3-0.3-0.5-0.6-0.7-0.9c0.2,0.5,0.3,1.1,0.4,1.6c-0.3,0.2-0.5,0-0.7-0.2c0.1,0.3,0,0.6-0.4,0.6
			c-0.2-0.3-0.5-0.6-0.6-1c0.2,0.6,0,1.4-0.4,1.8c-0.1-0.2-0.3-0.5-0.3-0.7c0,0.5-0.2,1-0.7,1c-0.1-0.2-0.2-0.5-0.2-0.7
			c-0.1,0.4-0.4,0.9-0.7,1.2c-0.1-0.2-0.2-0.4-0.3-0.6c-0.1,0.3-0.3,0.5-0.6,0.6c-0.1-0.3-0.2-0.5-0.2-0.8c-0.2,0.5-0.6,1-1,1.2
			c-0.2-0.3-0.2-0.6-0.1-0.9c-0.2,0.4-0.6,0.7-0.9,0.8c-0.3-0.5-0.3-1,0-1.5c-0.4,0.5-0.5,1-1.1,1.2c-0.3-0.4-0.3-0.9,0.1-1.3
			c-0.7,0-0.9,0.7-1.6,0.8c-0.2-0.4-0.1-0.9,0.2-1.3C321.2,385.9,320.3,384.6,321.1,384.4z"/>
		<path class="st10" d="M334.1,375.6c0,0,1.6,4.9-3.3,9.1c-4.8,4.1-11.1,1-11.8-4.9C318.2,373.9,334.1,375.6,334.1,375.6z"/>
		<path class="st11" d="M319,379.8c-1.2-3.6,2-8.4,4.9-10c5.1-2.8,11.3,2.5,10.1,8.1c-1.1,5.2-7.7,5.3-13.9,3.6
			C319.3,381.4,319.2,380.5,319,379.8z"/>
		<path class="st11" d="M319.5,379c-0.5-0.3-1.6,0-1.4-0.9c0.5-0.2,1-0.3,1.5-0.5c-0.8-0.3-1.8-0.1-1.8-1.4c0.4-0.2,0.9-0.1,1.2,0.1
			c-0.6-0.4-1.1-0.7-1.2-1.6c0.8-0.5,1.3,0.1,2.1,0.2c-0.4-0.6-1-1-1.1-1.9c0.4-0.2,1,0,1.4,0.3c-0.4-0.5-0.7-0.8-0.7-1.5
			c0.4-0.1,0.9,0,1.3,0.4c-0.2-0.4-0.3-0.9-0.3-1.3c0.5,0,1,0.3,1.3,0.8c-0.1-0.4-0.3-0.9-0.4-1.3c0.4-0.2,0.9,0.1,1.1,0.5
			c-0.1-0.4-0.1-0.8-0.1-1.1c0.5,0,0.8,0.3,1,0.7c-0.1-0.5-0.3-1-0.4-1.5c0.5,0,0.8,0.6,1.1,1c-0.5-1.6,0.1-1.5,0.9-0.2
			c0-0.5-0.1-1,0-1.4c0.4,0.3,0.7,0.8,1,1.3c-0.2-0.4-0.3-0.9-0.3-1.4c0.7-0.2,1.3,0.7,1.4,1.3c-0.1-0.5-0.3-1.1-0.1-1.6
			c0.6,0.2,0.9,0.9,1.1,1.6c-0.1-0.5-0.1-1,0.2-1.4c0.7,0.3,1.1,1.1,1.3,1.9c0-0.6-0.2-1.4,0.5-1.5c0.2,0.6,0.4,1.3,0.6,1.9
			c0-0.2,0-0.7,0-0.9c0.2-0.1,0.3-0.2,0.5-0.2c0.3,0.5,0.1,1.1,0.3,1.7c0-0.5,0.3-0.6,0.5-0.8c0.2,0.6,0.1,1.2,0.3,1.8
			c0.1-0.5,0.2-0.9,0.6-1.2c0.3,0.7,0.2,1.6,0.1,2.4c0.1-0.5,0.3-1,0.9-1c0.1,0.4,0,0.7-0.1,1.1c0.1-0.3,0.3-0.5,0.7-0.5
			c0.1,0.6,0,1.4-0.3,2c0.1-0.3,0.3-0.1,0.6-0.3c0.1,0.3,0,0.7-0.2,1.1c0.2-0.1,0.5-0.2,0.7-0.2c0.1,0.3,0,0.6-0.2,0.9
			c0.5-0.1,0.4,0.7-0.3,1.2c0.1,0.2,0.1,0.4,0.1,0.6c-0.1,0-0.1,0.1-0.2,0.1c0,0.1,0,0.1,0.1,0.2c-0.3,0-0.6,0.2-0.9,0.2
			c0.4,0.1,0.3,0.3,0.5,0.4c-0.4,0.1-0.8,0.3-1.1,0.5c0.3,0.3,0.4,0.7,0.5,1.1c-0.4,0.2-0.8,0.2-1.2,0.1c0.3,0.1,0.4,0.4,0.4,0.9
			c-0.4-0.1-0.9-0.2-1.3,0c0.1,0,0.2,0,0.3,0.1c0.1,0.2,0.2,0.5,0.2,0.8c-0.5,0.3-1.1,0.2-1.5-0.2c0.1,0.2,0.1,0.6,0.2,0.8
			c-0.5,0.3-1.1,0.2-1.3-0.2c0.1,0.2,0.1,0.5,0.2,0.7c-0.5,0.2-1,0-1.1-0.6c0.1,0.4,0,0.8,0,1.1c-0.4,0-0.7-0.1-0.8-0.4
			c0,0.2,0,0.3,0,0.5c-0.8,0.3-1.3-0.4-1.4-1.1c0,0.1,0,0.7,0,0.9c-0.1,0.1-0.3,0.1-0.4,0.1c-0.1-0.3-0.3-0.6-0.3-0.9
			c0.1,1.8-1,0.4-1.3-0.2c-0.5,0.4-0.9,0.8-1.5,0.9c-0.1-0.4-0.3-0.8-0.4-1.2c-0.3,0.3-0.8,0.6-1.2,0.6c0.1-0.3,0.1-0.7,0.1-1.1
			c-0.3,0.4-0.7,0.5-1.2,0.6c0.2-0.4,0.2-0.9,0-1.3c-0.8,0.8-1.5-0.2-0.7-0.6C318.3,380.6,318.8,379.4,319.5,379z"/>
		<path class="st12" d="M320.7,379.3c-0.3-0.1-0.5-0.4-0.5-0.8c0.2-0.1,0.4-0.2,0.6-0.2c-0.5-0.1-1.1-0.7-1.3-1.2
			c0.6-0.4,1.1-0.1,1.6,0.2c-0.4-0.4-0.7-0.8-0.9-1.3c0.4,0,0.8,0.2,1.2,0.4c-0.3-0.3-0.4-0.7-0.5-1.1c0.5,0,0.9,0.3,1.3,0.5
			c-0.2-0.6-0.7-1.2-0.7-1.9c0.8-0.4,1,0.5,1.8,0.4c0-0.5-0.9-3.8,0.9-2.3c-0.1-1.7-0.7-2,1.1-1.3c-0.7-1.3,0.9-1.7,1.2,0
			c0.1-0.4,0.3-0.7,0.5-1c0.1,0.3,0.3,0.8,0.4,1.1c0.2-0.4,0.5-0.5,0.7-0.5c0.1-0.1,0.1-0.1,0.2-0.2c0.1,0.1,0.1,0.3,0.2,0.4
			c0.3-0.2,0.6-0.3,1-0.4c0.1,0.2,0.2,0.5,0.2,0.7c-0.2,0.1-0.3,0.2-0.5,0.3c0.4-0.2,0.7,0,0.8,0.5c-0.3,0.1-0.5,0.4-0.7,0.5
			c0.1,0,0.4,0.2,0.4,0.2c-0.2,0-0.5,0.2-0.7,0.3c0.2,0.1,0.5,0.5,0.8,0.6c-0.3,0.1-0.6,0.4-1,0.4c0.3,0.1,0.6,0.3,0.9,0.4
			c-0.3,0.3-0.6,0.4-0.9,0.2c0.5,0.3,0.9,0.8,1.1,1.3c-0.5,0.2-1,0.1-1.4-0.1c0.5,0.5,1.1,1,1.2,1.8c-0.5-0.2-1-0.6-1.5-1
			c0,0.6,0.7,1,0.7,1.7c-0.6,0.2-1.1-0.7-1.6-1.1c0.1,0.8,0.8,1.2,0.9,2.1c-0.6,0.3-1.1-0.4-1.4-1c0.3,0.7,0.8,1.9,0,2
			c-0.5-0.5-0.5-1.1-0.9-1.6c0.2,0.3,0.5,2.1-0.4,2.1c-0.1-0.2-0.1-0.4-0.2-0.6c0,0.5-0.3,0.9-0.6,1.2c-0.2-0.4-0.3-0.9-0.4-1.4
			c-0.2,0.6-0.4,1.5-0.9,1.8c-0.2-0.4-0.3-0.8-0.2-1.2c-0.3,0.6-1,1.2-1.6,1.3c-0.4-0.6,0.1-1,0.6-1.4c-0.7,0.2-1.9,0.8-1.9-0.5
			C320.4,379.4,320.6,379.4,320.7,379.3z"/>
		<path class="st13" d="M321.4,373.5c2.6-3.6,10.5-6.2,4.1,2.9C322.1,381.2,318.7,377.4,321.4,373.5z"/>
	</g>
	
		<linearGradient id="SVGID_8_" gradientUnits="userSpaceOnUse" x1="320.4932" y1="334.9146" x2="302.9724" y2="363.0939" gradientTransform="matrix(0.9305 0.3662 -0.3662 0.9305 112.5268 -73.5722)">
		<stop  offset="0" style="stop-color:#ECDED9"/>
		<stop  offset="1" style="stop-color:#C1ABAC"/>
	</linearGradient>
	<path class="st14" d="M244.2,359.9c-0.5,0.1-0.5-0.1-0.3-0.5c0.2-0.3,1.3-0.4,1.3-0.4l0,0c0,0-0.9-0.1-1-0.1
		c-0.2-0.6,0.4-0.7,0.8-1c-1,0.4-0.6-0.7,0.1-1c-0.1,0-0.2,0.1-0.3,0.1c-0.3-0.5,0.4-1.1,0.8-1.3c-0.3,0.1-0.4,0-0.6,0
		c0.2-0.3,0.5-0.6,0.9-0.8c-0.2,0.1-0.5,0.1-0.7,0.1c0-0.5,0.5-1,0.9-1.2c-0.2,0-0.3,0-0.5,0.1c0.1-0.4,0.5-0.7,0.9-0.9
		c-0.2,0-0.4,0.1-0.6,0.1c-0.2-0.5,0.3-0.9,0.8-1c-0.4,0-0.5-0.2-0.4-0.6c0.2-0.4,0.9-0.5,1.3-0.6c-0.3,0.1-0.9,0-0.6-0.4
		c0.1-0.1,0.7-0.3,1-0.3c0,0,0,0,0,0c-0.3,0-0.6-0.1-0.6-0.5c0.3-0.1,0.6-0.2,0.9-0.3c-0.1,0-0.3,0-0.4,0c0,0-0.1-0.2-0.1-0.2
		c0.3-0.1,0.6-0.2,0.9-0.3c-0.2,0-0.3,0-0.5,0c0-0.1,0-0.2-0.1-0.3c0.3-0.1,0.8-0.3,1-0.3c-0.3-0.1-0.2-0.2-0.4-0.3
		c0.4-0.2,0.8-0.2,1.2-0.4c-0.2-0.1-0.2-0.2-0.3-0.2c0.2-0.1,0.5-0.1,0.7-0.1c-0.2,0-0.3-0.2-0.4-0.4c0.2-0.1,0.5-0.1,0.7,0
		c-0.2-0.1-0.3-0.3-0.4-0.6c0.4-0.1,0.8,0,1.2,0.1c-0.3-0.1-0.5-0.3-0.4-0.7c0.5,0,1,0.2,1.5,0.4c-0.3-0.3-0.8-0.4-0.7-0.9
		c0.3,0,0.7,0.1,1,0.2c-0.1-0.2-0.1-0.4-0.1-0.6c0.1,0,0.3,0.1,0.5,0.1c0-0.1,0-0.2,0.1-0.3c0.1,0,0.3,0,0.5,0c0,0,0,0,0-0.1
		c0.1,0,0.2,0,0.3,0.1c0.2,0,0.4,0,0.6,0.1c0,0,0,0,0,0c-0.6-0.3-0.5-0.5-0.7-1.1c0.6,0.1,1.2,0.1,1.7,0.1c-0.6-0.3-0.7-0.7-0.5-1.4
		c1.2,0.2,1.8,1.4,2.9,1.7c-0.5-0.5-0.3-0.6-0.4-1.3c0.8,0.2,1.4,0.9,2.1,1.2c-0.7-0.5-0.3-0.4-0.4-1.2c0.8,0.4,1.8,1,2.5,1.6
		c-0.6-0.6-0.2-0.4-0.3-1.1c1,0.2,1.9,1.1,2.4,2c-0.2-0.4,0-0.6-0.1-1c0.9,0,1.7,0.7,2.3,1.5c-0.4-0.6-0.1-0.6-0.1-1.1
		c0.7,0.3,1.1,1,1.5,1.6c-0.1-0.3,0-0.5,0-0.8c0.7,0.3,1.3,1,1.8,1.7c-0.3-0.4-0.1-0.3-0.2-0.9c0.7,0.3,1.2,0.8,1.6,1.4
		c-0.3-0.5-0.1-0.5-0.2-1.1c0.4,0.2,0.9,0.6,1.3,0.9c0,0,0,0,0,0c0.1,0,0.2,0,0.3,0c0-0.1,0.1-0.2,0.1-0.3c0.2,0.2,0.3,0.4,0.5,0.6
		c0-0.1,0-0.2,0.1-0.3c0.3,0.2,0.5,0.6,0.7,1c0,0,0,0,0,0c-0.1-0.2-0.1-0.5-0.1-0.7c0.5-0.1,0.6,0.5,0.7,0.9c0,0,0,0,0,0
		c-0.1-0.2,0-0.5,0.1-0.7c0.3,0.2,0.6,0.6,0.7,1c0,0,0,0,0,0c-0.1-0.2,0-0.5,0-0.7c0.5-0.1,0.8,0.5,0.9,1c0,0,0,0,0,0
		c0-0.4,0-0.7,0.4-0.8c0.1,0.3,0.2,0.7,0.3,1.1c0-0.2,0.1-0.5,0.1-0.7c0.3,0.2,0.4,0.6,0.5,1.1c0,0,0,0,0,0c0-0.3-0.1-0.5-0.1-0.8
		c0.5-0.2,0.7,0.4,0.8,0.8c0-0.1,0-0.3,0-0.4c0.5-0.1,0.6,0.4,0.7,0.7c0-0.2,0-0.6,0.1-0.8c0.4,0.4,0.5,1,0.8,1.5c0-0.2,0-0.6,0-0.8
		c0.4,0.3,0.6,0.8,0.7,1.3c0.4-0.1,0.2-0.6,0.2-1c0.6,0,0.9,1.1,1.1,1.6c0.3-1.5,0.7-0.3,1.2,0.5c0-0.3-0.1-0.6-0.1-0.9
		c0.5,0.1,0.4,0.7,0.7,1c0-0.3,0-0.6,0-0.8c0.2,0.4,0.6,0.8,0.8,1.3c0,0,0,0,0,0c0-0.2-0.1-0.4-0.1-0.6c0.4,0.1,0.6,0.6,0.9,0.9
		c0.1,0,0.1,0.1,0.2,0.1c0-0.2,0-0.4-0.1-0.6c0.4,0,0.6,0.5,0.7,0.9c0.1,0,0.1,0.1,0.2,0.1c-0.1-0.3-0.1-0.6,0-0.8
		c0.6,0.2,0.6,1,1.1,1.3c-0.1-0.3,0-0.4,0-0.6c0.5,0.1,0.7,0.7,0.9,1.2c0,0,0.1,0,0.1,0.1c-0.1-0.3-0.1-0.6,0-0.9
		c0.4,0.1,0.7,0.6,0.8,1.1c0-0.2-0.1-0.4-0.1-0.6c0.5-0.1,0.9,0.8,1.2,1.5c0,0,0,0,0.1,0c-0.1-0.3-0.1-0.5,0-0.8
		c0.4,0,0.7,0.8,1,1.4c0.1,0,0.1,0.1,0.1,0.1c0-0.3,0-0.6,0.1-0.8c0.4,0.2,0.5,0.8,0.7,1.3c0,0,0,0,0,0c0-0.4-0.1-0.8,0.3-0.9
		c0.2,0.5,0.3,1,0.4,1.4c0,0,0.1,0,0.1,0.1c-0.1-0.5-0.2-1.1,0.3-0.8c0.2,0.1,0.4,1.1,0.5,1.4c0,0,0,0,0,0c-0.1-0.4-0.1-0.8,0.3-1
		c0.2,0.5,0.3,1.2,0.5,1.6c-0.1-0.4-0.1-0.8,0.3-0.9c0.2,0.5,0.3,1.1,0.5,1.6c0,0,0,0,0,0c-0.1-0.2,0-0.5,0-0.8c0.1,0,0.2,0,0.2-0.1
		c0.1,0.4,0.3,0.9,0.4,1.3c0,0,0,0,0.1,0.1c0-0.3,0-0.6,0.3-0.7c0.1,0.4,0.1,0.8,0.3,1.2c0,0,0.1,0.1,0.1,0.1c0.1-0.4,0.1-0.7,0.3-1
		c0.2,0.5,0.1,1,0.3,1.5c0,0,0,0,0,0c0-0.4,0.1-0.7,0.4-0.8c0.2,0.5,0.3,1,0.4,1.4c0-0.4,0.1-0.5,0.3-0.7c0.1,0.4,0.3,0.9,0.4,1.3
		c0-0.4,0.2-0.5,0.2-0.6c0.1,0.4,0.1,0.9,0.3,1.3c0,0,0,0,0,0c0-0.3,0.2-0.6,0.3-0.8c0.2,0.4,0.2,0.9,0.3,1.3c0-0.4,0.2-0.4,0.4-0.6
		c0,0.3,0.1,0.7,0.2,1c0.1-0.3,0.3-0.5,0.4-0.6c0.1,0.4,0.1,0.8,0.1,1.2c0-0.4,0.2-0.5,0.4-0.7c0.1,0.4,0,0.9,0,1.3
		c0,0,0.1-0.1,0.1-0.1c0.1-0.2,0.1-0.3,0.2-0.5c0.1,0.1,0.1,0.6,0.2,0.9c0,0.2,0.1,0.3,0.1,0.5c0,0,0,0,0,0c0.2-0.3,0.2-0.2,0.4-0.4
		c0,0.2,0,0.5,0,0.7c0.1-0.3,0.4-0.5,0.7-0.5c0.2,0.5,0,1-0.1,1.4c0,0,0,0,0,0c0.2-0.2,0.4-0.2,0.7-0.2c-0.1,0.3-0.2,0.6-0.3,1
		c0.1,0.2,0.1,0.3,0.2,0.5c0.2-0.1,0.4-0.2,0.6-0.2c0,0.5-0.1,0.9-0.2,1.3c0,0,0,0.1,0,0.1c0.2-0.2,0.5-0.3,0.8-0.3
		c0.2,0.4,0,0.7-0.3,1c0.3-0.1,0.6-0.2,0.9-0.2c-0.2,0.5-0.6,0.9-0.9,1.3c0.2-0.2,0.5-0.3,0.8-0.3c-0.2,0.4-0.5,0.8-0.9,1.2
		c0.3-0.1,0.5-0.1,0.8-0.1c-0.3,0.4-0.9,1-1.3,1.3c0,0,0,0,0,0c0.3-0.2,0.8-0.3,1.2-0.3c-0.2,0.5-0.8,0.9-1.3,1.1
		c0.5,0,0.9-0.3,1.4-0.2c-0.1,0.6-0.6,1-1.1,1.2c0.4-0.1,0.8-0.2,1.2-0.2c0.1,0.5-0.4,0.7-0.9,0.8c0.6,0.1-0.1,0.9-0.8,1.1
		c0.2,0,0.4,0,0.6-0.1c0.3,0.6-0.3,0.7-0.8,0.8c0.1,0,0.2,0,0.2,0c0.1,0.1,0.1,0.3,0.1,0.4c-0.2,0.1-0.5,0.2-0.7,0.2
		c0.2,0,0.4,0,0.5,0.1c0,0.1,0.1,0.1,0,0.2c-0.4,0.3-1,0.4-1.4,0.6c0.5,0,0.9-0.1,0.9,0.5c-0.4,0.1-0.8,0.3-1.2,0.4
		c0.2,0,0.4,0.1,0.4,0.3c-0.4,0.2-0.8,0.2-1.2,0.3c0.3,0,0.8,0,0.8,0.4c-0.4,0.3-1,0.2-1.5,0.4c0,0,0,0,0,0c0.4-0.1,0.8,0,0.9,0.5
		c-0.3,0-0.6,0.1-0.9,0.1c0.3,0,0.7,0,0.8,0.4c-0.3,0.2-0.7,0.1-1.1,0.3c0.1,0,0.3,0.1,0.5,0.1c0.1,0.1,0.1,0.2,0.1,0.3
		c-0.2,0.2-0.5,0.2-0.8,0.1c0,0,0.1,0.1,0.1,0.1c-0.4,0.2-0.8,0.3-1.2,0.3c0.1,0,0.1,0,0.2,0c0.1,0.2,0.1,0.3,0.1,0.5
		c-0.3,0.1-0.5,0.1-0.8,0.1c0.3,0.1,0.5,0.3,0.3,0.6c-0.2,0.4-1.2,0.1-1.4,0c0.4,0.1,0.2,0.1,0.4,0.4c-0.3,0.1-0.5,0.2-0.8,0.1
		c0.2,0.1,0.3,0.3,0.3,0.6c-0.6,0.4-1.1-0.1-1.5-0.4c-0.1,0-0.2,0.1-0.2,0.1c4.8-9.1-41.4-27.5-50.4-23.8c-0.1,0.1-0.1,0.2-0.2,0.3
		c-0.3,0.5-0.6,1.7-1.2,1.7c0-0.3,0.1-0.5,0.3-0.5c-0.1-0.2-0.2-0.4-0.1-0.5c0,0,0,0.1-0.1,0.1c0-0.1,0.1-0.2,0.1-0.3c0,0,0,0-0.1,0
		c-0.2-0.4,0-1.2,0-1.2l0-0.1c0,0,0.1,0.1,0,0.1c0-0.4,0.2-0.9,0.2-0.9l0-0.1C243.9,361,243.4,360.2,244.2,359.9z"/>
	
		<linearGradient id="SVGID_9_" gradientUnits="userSpaceOnUse" x1="501.3062" y1="325.8893" x2="478.3758" y2="362.769" gradientTransform="matrix(-0.9911 -0.1329 -0.1329 0.9911 781.0431 100.0387)">
		<stop  offset="0" style="stop-color:#ECDED9"/>
		<stop  offset="1" style="stop-color:#C1ABAC"/>
	</linearGradient>
	<path class="st15" d="M243.9,363.1C243.9,363.1,243.9,363.1,243.9,363.1C243.9,363.1,243.9,363.1,243.9,363.1
		C243.9,363.1,243.9,363.1,243.9,363.1z"/>
	<path class="st16" d="M244.4,362.3c0.2-0.2,0.5-0.3,0.8-0.5c0-0.1-0.1-0.3-0.1-0.5c0.4-0.1,0.7,0,1,0.2c0.1,0,0.1,0,0.2,0
		c-0.2-0.3-0.2-0.6-0.2-1c0.6,0.2,1.1,0.6,1.7,0.9c0,0,0,0,0.1,0c-0.3-0.3-0.4-0.6-0.4-1.1c0.6,0,1.2,0.6,1.7,1.1
		c-0.3-0.4-0.4-0.8-0.5-1.3c0.6-0.2,1.5,0.8,2,1.5c0,0,0,0,0,0c-0.2-0.5-0.4-0.9-0.3-1.4c0.6,0.2,1.3,1.1,1.7,1.6c0,0,0,0,0.1,0
		c-0.2-0.5-0.3-1-0.4-1.5c0.6,0,1.6,1.1,1.8,1.8c0,0,0,0,0,0c-0.2-0.5-0.3-1-0.3-1.5c0.7,0,1.6,1.2,1.9,1.8
		c-0.2-0.5-0.4-1.2-0.3-1.7c0.8,0.1,1.3,1.3,1.7,1.9c-0.2-0.4-0.3-0.9-0.4-1.4c0.7-0.4,1.7,0.7,2,1.5c-0.2-0.5-0.3-0.9-0.1-1.3
		c0.8,0.3,1.3,1.2,1.8,1.9c-0.2-0.5-0.3-1-0.4-1.5c0.5,0.2,1.4,0.9,1.7,1.5c-0.1-0.3-0.2-0.6-0.3-1c0.6-0.2,1.3,0.9,1.5,1.5
		c-0.2-0.3-0.2-0.7-0.3-1.1c0.5,0,1,0.5,1.3,1.1c0-0.2-0.1-0.5-0.1-0.7c0.5,0.1,1.1,0.6,1.3,1.1c0-0.2,0-0.4-0.1-0.6
		c0.6-0.1,1.5,0.7,1.8,1.3c-0.2-0.3-0.1-0.7-0.2-0.9c0.8,0.1,1.2,1,1.7,1.6c-0.1-0.5-0.3-0.9-0.4-1.4c0.7,0.4,1.1,1.1,1.5,1.8
		c-0.2-0.4-0.2-0.8-0.1-1.1c0.7,0.2,0.9,1.1,1.2,1.7c-0.1-0.4-0.1-0.9,0.1-1.2c0.6,0.3,0.7,1.2,0.9,1.8c0,0,0,0,0,0
		c-0.1-0.4-0.3-1.6,0.2-1.4c0.2,0.1,0.3,0.5,0.4,0.9c0-0.1,0-0.2,0-0.4c0.1,0,0.2-0.1,0.3-0.1c0.2,0.5,0.3,0.9,0.4,1.4
		c0.7,0.2,1.3,0.5,2,0.7c-0.1-0.2-0.1-0.4,0-0.6c0.6,0,0.9,0.6,1.3,1.1c-0.1-0.4,0-0.5,0-0.7c0.6,0.2,1.2,0.8,1.6,1.4
		c-0.2-0.3-0.2-0.8-0.3-1.1c0.8-0.3,1.1,0.9,1.5,1.3c-0.1-0.2-0.1-0.6-0.2-0.8c0.8-0.4,1.1,1.1,1.6,1.6c-0.1-0.3-0.1-0.6-0.2-0.9
		c0.6-0.2,1,1,1.4,1.6c-0.1-0.4-0.2-0.9-0.2-1.3c0.7,0.1,1,1.3,1.4,1.8c-0.1-0.5-0.2-1.1,0.1-1.4c0.4,0.6,0.7,1.3,1.1,1.9
		c0-0.2,0.2-0.5,0.1-0.8c0,0,0.3-0.1,0.3-0.1c0.4,0.5,0.6,1.2,1,1.7c0,0,0,0,0,0c-0.1-0.4-0.1-1.1,0.4-1c0.3,0,0.8,1.2,1.1,1.8
		c0,0,0,0,0.1,0c0-0.3,0-0.5,0-0.7c0.1,0,0.3-0.1,0.4-0.1c0.3,0.5,0.7,1,0.9,1.5c0,0,0,0,0,0c0-0.3,0.1-0.6,0.1-0.8
		c0.4,0.2,0.8,0.9,1.1,1.4c0.1,0,0,0,0.1,0c0-0.8,1,0,1.4,0.9c0,0,0,0,0,0c0-0.2,0-0.5-0.1-0.7c0.8-0.4,1.2,0.9,1.5,1.6
		c0,0,0,0,0.1,0c0-0.3,0-0.6,0-0.9c0.8-0.1,1.2,1.3,1.5,1.9c-0.2-0.4-0.2-0.8-0.1-1.2c0.4,0.2,0.7,0.7,0.8,1.1
		c0-0.2,0.1-0.4,0.4-0.5c0.2,0.6,0.5,1.7,0.6,2.1c0-0.6-0.1-1.3,0.6-1.3c0.2,0.6-0.1,1.3,0.2,1.9c0-0.5,0.2-0.8,0.7-0.9
		c0.1,0.6,0,1.1,0,1.7c0.2-0.5,0.5-0.4,0.9-0.6c0.2,0.5,0,1.1-0.2,1.6c0.2-0.3,0.6-0.5,1-0.5c0.2,0.5-0.2,1.2-0.6,1.5
		c1-0.8,1.4,1.1-0.1,1.3c0.1,0,0.6,0.1,0.8,0.1c0.2,0.9-0.6,1.1-1.3,1.1c0,0,0,0,0,0c0.2,0,0.4,0.1,0.7,0.2c0.1,0.2,0.2,0.5,0.2,0.7
		c-0.6,0.3-1.2,0.1-1.8,0.3l0.2-0.4c-0.3,0.2-0.6,0.5-1,0.7C285.5,391.7,237.3,369.2,244.4,362.3z"/>
	<path class="st17" d="M244.5,362.6c0.6-2.8,1.9-4.8,3.6-6.1c-0.6-0.3-0.4-0.6,0.6-0.8c-0.4,0-0.8-0.3-0.8-0.8
		c0.5-0.2,0.9-0.1,1.4-0.1c-0.3-0.2-0.3-0.5-0.6-0.7c0.6-0.1,1.3,0.1,1.8,0.4c-0.2-0.2-0.1-0.6-0.2-0.8c0.5,0.1,1,0.5,1.3,1
		c-0.2-0.3-0.2-0.7-0.3-1c0.6-0.2,1.1,0.3,1.4,0.9c-0.1-0.3-0.1-0.7-0.1-0.9c0.6-0.1,1.3,0.5,1.6,1.1c0,0,0,0,0,0
		c-0.1-0.4-0.1-0.8-0.1-1.2c0.6,0,0.9,0.6,1.3,1.1c0,0,0,0,0,0c-0.1-0.4-0.1-0.8,0-1.2c0.6,0.2,0.8,0.9,1.2,1.2c0.1,0,0.1,0,0.2,0
		c-0.1-0.2,0-0.5-0.1-0.8c0.4-0.2,0.8,0,1,0.3c-0.4-1.4,0.9,0.1,1.2,0.6c-0.4-1.6,0.6-0.8,1,0.1c0-0.5,0.2-0.5,0.3-0.8
		c0.2,0.3,0.3,0.7,0.5,1.1c0,0,0,0,0.1,0c0-0.4,0.1-0.9,0.4-1.1c0.1,0.4,0.3,0.8,0.4,1.2c0.1-0.4,0.3-0.8,0.5-1.1
		c0.1,0.3,0.3,0.9,0.4,1.1c0-0.5,0.1-0.7,0.6-0.8c0.1,0.4,0.1,0.9,0.3,1.3c0.1-0.4,0.4-0.6,0.6-0.8c0.1,0.3,0,0.8,0,1.2c0,0,0,0,0,0
		c0.1-0.4,0.5-0.6,0.9-0.6c0,0.3,0,0.6,0,0.9c0,0,0.1,0,0.1,0c0.1-0.3,0.4-0.4,0.7-0.4c0,0.2,0,0.4,0,0.7c0,0,0.1,0,0.1,0
		c0.2-0.3,0.5-0.6,0.9-0.6c0,0.3-0.1,0.6-0.2,0.9c0,0,0,0,0,0c0.3-0.4,0.8-0.3,1.4,0.1c0,0.1,0,0.3,0,0.4c0.4,0.1,0.7,0.3,1.1,0.5
		c-0.4-0.4-0.8-0.7-1.1-0.9c0-0.3,0-0.6,0-0.9c0.4,0.4,0.7,1.1,1,1.7c-0.1-0.4,0-0.5,0-0.9c0.4,0.2,0.7,0.8,0.9,1.3
		c-0.1-0.5-0.1-0.9,0.1-1.4c0.4,0.5,0.7,1.5,1.1,2c0,0,0.1,0,0.1,0.1c-0.2-0.5-0.2-1.1,0-1.6c0.6,0.4,1,1.4,1.3,2.1
		c0-0.5-0.1-1.2,0-1.7c0.6,0.3,0.7,1.3,1,2c0-0.6-0.1-1.3,0.1-1.9c0.4,0.6,0.5,1.5,0.9,2.1c0-0.5,0.1-1,0.3-1.5
		c0.2,0.7,0.1,1.5,0.4,2.1c0.1-0.5,0-1,0.5-1.2c0.2,0.5,0.3,1,0.5,1.5c0.1-0.3,0.4-0.5,0.6-0.7c0.1,0.5,0,0.9,0.2,1.4
		c0-0.4,0.1-0.8,0.5-1c0.3,0.5,0.1,1.1,0.3,1.7c0-0.1,0.2-0.5,0.2-0.6c0.2-0.1,0.4-0.1,0.6-0.1c0.1,0.5,0.2,1.1,0.4,1.6c0,0,0,0,0,0
		c0.2-1.6,1.2,0.1,1.6,0.7c0-0.2,0-0.5,0-0.7c0.5,0.5,0.7,1.3,1.2,1.7c-0.1-0.4,0-0.8,0-1.1c0.7-0.1,0.9,1,1.1,1.6
		c0-0.3,0.1-0.8,0-1.1c0.1,0,0.2-0.1,0.3-0.1c0.2,0.6,0.4,1.3,0.6,2c0.1-0.5-0.2-1.3,0.5-1.4c0.2,0.6,0.2,1.2,0.4,1.8
		c-0.1-0.5,0-1.1,0.3-1.4c0.2,0.7,0.3,1.5,0.6,2.2c0-0.4-0.3-1.7,0.4-1.4c0.4,0.2,0.7,1.5,0.8,1.9c-0.1-0.5-0.1-1.1,0.4-1.2
		c0.2,0.6,0.4,1.3,0.6,1.9c0-0.1,0-0.3,0-0.4c0.1-0.1,0.4-0.1,0.5-0.2c0.2,0.7,0.4,1.4,0.6,2.1c0-0.5,0.1-1.1,0.6-1.3
		c0.1,0.7,0.1,1.5,0.5,2.1c0-0.5,0.1-1.1,0.4-1.4c0.3,0.6,0.2,1.5,0.5,2.1c0-0.5,0-1,0.5-1.2c0.2,0.6,0.1,1.3,0.5,1.9
		c-0.1-0.5,0.1-0.9,0.6-0.9c0.2,0.6,0,1.3,0.2,1.9c0.1-0.5,0.3-0.5,0.6-0.8c0,0.5,0,1.1,0,1.6c0-0.5,0.2-1,0.7-1.1
		c0.2,0.5,0.1,1.1,0,1.6c0.1-0.3,0.3-0.6,0.5-0.8c0.3,0.7,0,1.4,0,2.1c0.1-0.5,0.3-0.9,0.8-1c0.1,0.5,0.1,1,0,1.5
		c0.1-0.1,0.3-0.2,0.5-0.2c0,0.5-0.1,0.9-0.2,1.4c0.1-0.5,0.3-0.5,0.7-0.7c0.1,0.4,0,0.8-0.2,1.2c0.1,0,0.2-0.1,0.4-0.1
		c0.1,0.5-0.1,0.9-0.3,1.4c0,0,0,0.1,0.1,0.1c0.2,0,0.4,0.1,0.6,0c-0.2,0.1-0.3,0.3-0.3,0.5c0.1,0.2,0.2,0.4,0.3,0.6
		c0.2-0.1,0.6-0.1,0.8-0.2c0,0.5-0.3,0.8-0.4,1.3c0.6,2.3,0.1,4.1-2.1,5.3C285.6,392,242.3,372.6,244.5,362.6z"/>
	<path class="st10" d="M244.3,365.8c-0.7-0.1-1.1-0.8-1.6-1.3c0.4-0.1,0.7-0.2,1.1-0.1c-0.1-0.2,0-0.6-0.1-0.9
		c0.2,0,0.3-0.1,0.6-0.1c0-0.2,0.1-0.4,0.1-0.5c1.2,0.8,2,2.6,3.2,3.6c1.2,1.1,2.3,2.3,3.6,3.4c5.2,4,11.4,6.4,17,9.7
		c4.1,2.4,8.6,3.6,12.9,5.5c1.3,0.6,2.7,1,4.1,1.2c1.5,0.2,2.9,0.7,4.4,0.6c2.4-0.1,6-0.4,6.2-2.4c0,0.1,0.4,0.8,0.5,0.9
		c0.5,0.3,1.1,0.9,1.2,1.4c-0.4,0.1-1-0.2-1.4-0.5c0.2,0.3,0.3,0.6,0.3,1c-0.7,0.5-1.2-0.3-1.4-0.9c0.2,0.7,0.8,1.7-0.2,1.7
		c-0.2-0.4-0.3-0.8-0.3-1.2c-0.2,0.4-0.4,1.5-1.1,1.5c-0.5,0-0.4-0.6-0.2-0.9c-0.4,0.4-0.7,0.8-1.3,1c-0.1-0.4,0.2-0.8,0.6-1.1
		c-0.7,0.4-1.2,0.7-2,0.9c-0.1-0.2-0.1-0.3-0.1-0.4c0.3-0.1,0.5-0.4,0.6-0.5c-0.7,0.1-1.4,0.9-2,0.5c0.1-0.1,0.3-0.4,0.5-0.5
		c-0.1,0-1.2,0.8-1.6,0.7c-0.5-0.1-0.7-0.6-0.2-1c-0.7,0.3-1.9,0.7-2.4,0c0.1-0.1,0.2-0.2,0.4-0.3c-0.6,0.1-1.6,1.1-1.9,0.2
		c0.1-0.1,0.3-0.2,0.4-0.3c-1.1,0.5-2.8-0.4-1.3-0.6c-0.8,0.1-1.7,0.5-2.4-0.2c0.2-0.1,0.5-0.3,0.7-0.4c-0.7,0.2-1.6,0.4-2.1-0.1
		c0,0,0.1,0,0.1-0.1c-0.6,0.1-1.2-0.1-1.7-0.3c0.1,0,0.2-0.1,0.2-0.1c-0.9-0.2-1.8-0.3-2.7-0.5c0.2,0,0.3-0.1,0.5-0.2
		c-0.8,0.1-3-0.4-3.5-1c0.2,0,0.4-0.2,0.6-0.2c-0.7,0.2-2.6-0.1-2.8-0.9c0.1-0.1,0.2-0.1,0.3-0.1c-0.6-0.4-1.6-0.3-2.3-0.7
		c0.1,0,0.3-0.2,0.4-0.2c-0.6,0.2-1.3-0.2-1.7-0.5c0.1,0,0.2-0.1,0.2-0.1c-0.5,0.1-0.9-0.2-1.3-0.5c0.1-0.1,0.3-0.3,0.5-0.3
		c-0.4-0.1-0.9,0-1.3-0.2c0-0.1,0.2-0.1,0.2-0.2c-0.8,0-2.1-0.2-2.5-0.9c0.1-0.1,0.2-0.2,0.3-0.2c-0.6-0.4-1.5-0.4-2.1-1
		c0.2-0.1,0.4-0.2,0.6-0.2c-0.6,0-1.1-0.2-1.6-0.5c0.1,0,0.1,0,0.2-0.1c-0.6,0.1-1.4-0.3-1.7-0.7c0.2,0,0.3-0.1,0.5-0.1
		c-0.7,0-2.2-0.5-2.6-1c0.2-0.1,0.3-0.1,0.5-0.2c-0.6-0.1-3.3-0.6-1.4-1.2c-0.6,0.2-1.6,0.3-1.8-0.5c0.1,0,0.2-0.1,0.3-0.1
		c-0.6,0.1-1.8-0.2-1.4-0.9c-0.5,0-1.1-0.1-1.5-0.5c0.2-0.1,0.4-0.3,0.7-0.3c-0.7,0-1.8-0.3-2.2-0.8c0.2-0.1,0.2-0.4,0.3-0.5
		c-0.6-0.2-1.6-0.1-1.8-0.8c0,0,0.1,0,0.1,0c-0.5,0.1-1.2-0.2-1.3-0.8c0.1-0.1,0.2-0.2,0.2-0.3c-0.6-0.1-1.2-0.4-1.5-0.9
		c0.2,0,0.3-0.1,0.5-0.2c-0.6-0.2-1.7-0.5-2-1.1C243.7,366.1,244,365.9,244.3,365.8z"/>
	
		<linearGradient id="SVGID_10_" gradientUnits="userSpaceOnUse" x1="594.5434" y1="177.5934" x2="580.2669" y2="188.7663" gradientTransform="matrix(-0.9565 0.2917 0.2917 0.9565 768.9083 -0.7462)">
		<stop  offset="0" style="stop-color:#ECE0E0"/>
		<stop  offset="1" style="stop-color:#AF9491"/>
	</linearGradient>
	<polygon class="st18" points="257.9,344.9 257.9,344.9 257.9,344.9 	"/>
	
		<linearGradient id="SVGID_11_" gradientUnits="userSpaceOnUse" x1="575.9006" y1="226.8562" x2="603.1324" y2="195.6094" gradientTransform="matrix(-0.9565 0.2917 0.2917 0.9565 768.9083 -0.7462)">
		<stop  offset="0" style="stop-color:#D6ACA0"/>
		<stop  offset="1" style="stop-color:#B59893"/>
	</linearGradient>
	<path class="st19" d="M259.9,374.1c0,0.1-0.1,0.1-0.1,0.2c-0.3-0.4-0.7-0.8-1.1-1c-0.1,0.1-0.2,0.3-0.2,0.4
		c-0.3-0.6-0.3-1.4-1.1-1.2c0-0.2-0.1-0.3-0.1-0.5c-0.1,0.1-0.4,0.2-0.6,0.3c0-0.2-0.2-0.5-0.3-0.7c-0.1,0.2-0.2,0.3-0.3,0.5
		c-0.2-0.4-0.3-0.9-0.5-1.3c0,0.2-0.2,0.4-0.2,0.5c-0.1-0.2-0.4-0.5-0.5-0.7c0,0.2-0.1,0.5-0.1,0.7c-0.3-0.4-0.6-0.9-0.9-1.3
		c0,0.2-0.1,0.5,0,0.7c-0.2-0.5-0.5-1-0.9-1.3c0,0.2-0.2,0.5-0.2,0.7c-0.2-0.3-0.5-0.7-0.8-0.9c-0.1,0.1-0.4,0.2-0.5,0.3
		c-0.4-0.4-0.8-0.9-1.2-1.3c-0.1,0.1-0.2,0.3-0.2,0.5c-0.6-0.6-0.9-1.3-1.6-1.8c0,0.2-0.1,0.4-0.1,0.6c-0.6-1-1.6-1.7-2.2-2.6
		c-0.4-0.6,2.2-0.2,2.1-0.8c0.9,0.2,1.8,0.8,2.7,1c0.1,0,2.9,0.7,2.9,0.5c0,1,1.9,0.8,2.6,0.8c-0.1,0.1-0.2,0.4-0.3,0.5
		c0.5,0.2,1.1-0.1,1.6-0.1c0.1,0.6,0.8,0.5,1.3,0.4c-0.1,0.9,0.8,0.8,1.4,0.5c-1.3,1.1,1.1,1.5,1.9,0.7c0.3,0.5,1.4,0.7,1.8,0.9
		c0.3,0.1,0.5,0.2,0.9,0.3c0.4,0.1,0.8,0.4,1,0.5c0.7,0.2,1.5,0.4,2,0.7c0.7,0.3,0.9,0.7,1.9,0.6c0.3,0.5,1.8,1,2.2,1.1
		c0.5,0.2,1,0.1,1.4,0.3c0.4,0.2,0.4,0.7,1.1,0.6c-0.1,0.1-0.2,0.1-0.3,0.2c0.3,0.9,1,0.5,1.6,0.7c0.7,0.2,1.2,0.6,2,0.6
		c0.1,0.7,0.9,0.8,1.5,0.8c0.2,0.5,1.5,1.3,2,1.2c-0.1,0-0.2,0.1-0.2,0.2c0.3,0.7,1.1,0.7,1.8,0.7c-0.2,0.1-0.3,0.2-0.5,0.3
		c0.5,0.6,1.5,0.7,2.2,0.5c-0.1,0-0.2,0.1-0.3,0.1c0.3,0.6,1.3,0.8,2,0.8c-0.1,0.1-0.2,0.1-0.3,0.1c0.2,0.6,0.5,0.5,0.9,0.7
		c0.5,0.2,0.7,0.1,1.2,0.5c0.4,0.3,1.9,1,2,1.5c0.5-0.1,0.8,0.9,1.2,1.1c0.2,0.8,0.3,2,1.1,2.3c-0.3-0.1-1.3,0.2-1.3,0.6
		c-0.2-0.2-0.6-0.1-0.8-0.3c-0.1,0.1-0.1,0.2-0.1,0.3c-0.4-0.2-0.8-0.5-1.2-0.7c0.1,0.2,0.1,0.6,0.2,0.8c-0.4-0.5-0.9-0.9-1.5-1
		c0,0.2-0.1,0.4-0.1,0.7c-0.4-0.4-0.9-0.9-1.5-0.9c0,0.2,0,0.3,0,0.5c-0.3-0.3-0.6-0.6-1.1-0.7c-0.1,0.1-0.1,0.2-0.2,0.3
		c-0.4-0.5-1-1.2-1.6-0.5c-0.5-0.4-0.9-0.9-1.6-1.1c-0.1,0.1-0.1,0.2-0.1,0.3c-0.3-0.5-1-1-1.4-0.3c-0.3-0.3-0.7-0.5-1.1-0.7
		c-0.1,0.1-0.2,0.2-0.3,0.3c-0.5-0.4-1.1-1.2-1.7-0.7c-0.4-0.4-1.4-1.7-1.8-0.7c-0.4-0.2-0.7-0.5-1-0.8c-0.1,0.1-0.2,0.2-0.3,0.2
		c-0.4-0.3-0.8-0.7-1.1-1.1c0,0.2-0.2,0.3-0.2,0.5c-0.5-0.4-1.2-1.3-1.7-0.8c-0.2-0.7-0.6-0.4-0.9-0.6c-0.4-0.2-0.8-0.2-1.3-0.9
		c-0.1,0.1-0.2,0.2-0.3,0.3c-0.1-0.2-0.4-0.4-0.5-0.6c-0.1,0.1-0.2,0.1-0.3,0.2c-0.2-0.3-0.5-0.7-0.8-0.9c-0.1,0.2-0.2,0.3-0.3,0.5
		c-0.3-0.4-0.6-0.9-1-1.2c0,0.2-0.2,0.4-0.2,0.5c-0.2-0.3-0.6-0.6-0.9-0.8c0,0.2-0.2,0.4-0.2,0.5c-0.5-0.5-0.9-1.2-1.5-1.6
		c0,0.2-0.1,0.5-0.1,0.8c-0.9-0.3-1.1-1.4-1.8-1.9c0,0.3,0,0.7,0.1,1C260.5,374.6,260.3,374.3,259.9,374.1z"/>
	<path class="st17" d="M269.9,380.2c0.3,0,0.6-0.3,0.8-0.4c-0.7-0.4-1.9-1-1.9-1.9c0.4-0.1,0.8,0.2,1.3,0.4c-0.7-0.4-0.8-1.2-1-1.9
		c0.6-0.3,1.1,0.3,1.4,0.8c-0.2-0.5-0.2-1-0.1-1.5c0.5,0.2,1,1,1.3,1.6c-0.1-0.2-0.1-0.4-0.2-0.6c0.5-0.4,1-0.2,1.2,0.3
		c0-0.1,0-0.2,0-0.3c0.7-0.1,1.3,1,1.9,1.4c-0.3-0.4-0.4-1-0.4-1.5c0.6,0,1.5,0.7,1.8,1.3c-0.2-0.5-0.2-1,0.1-1.3
		c0.6,0.5,1,1.5,1.5,2.1c-0.1-0.5-0.2-1-0.1-1.4c0.8,0,1.4,1.5,1.7,2.2c-0.1-0.3-0.1-0.6-0.1-0.9c0.8-0.4,1.6,1,1.7,1.8
		c-0.1-1.9,1.4,0.3,1.7,0.8c0-1.4,1.5,0.1,1.6,0.7c-0.1-0.2,0-0.5,0-0.7c0.6,0.1,1.4,1,2,1.4c-0.4-0.3-0.6-0.9-0.5-1.5
		c0.4-0.1,1.4,0.5,1.8,0.9c-0.3-0.4-0.5-0.9-0.6-1.5c0.2-0.1,0.4-0.1,0.6-0.1c0.1-0.8,0.7-1.2,1.1,0c-0.1-0.3,0-0.9,0.5-0.7
		c0.7,0.3,0.8,1,1,1.7c0.1-0.5,0.4-0.8,1-0.8c0.3,0.7,0.4,1.5,0.3,2.3c0.2-0.5,0.7-0.7,1.2-0.7c0.3,0.6,0.1,1.2-0.5,1.5
		c1.4-0.1,0.9,1.4-0.1,1.6c0.5,0,0.8,0.3,0.8,0.8c-0.4,0.3-0.9,0.3-1.4,0.1c0.4,0.2,0.2,0.4,0.4,0.8c-0.5,0.3-1.2,0.2-1.6-0.2
		c0.1,0.2,0.1,0.4,0.2,0.7c-0.5,0.2-1.8-0.3-2.2-0.8c0.1,0.2,0.1,0.4,0.1,0.7c-0.7,0.1-1.5-0.4-2-1c0.1,0.1,0,0.2,0.1,0.5
		c-1,0.5-1.7-0.6-2.4-1.2c0,1.7-2-0.1-2.4-0.7c-0.4,0.8-1.7-0.1-1.8-0.9c-0.4,0.1-0.8,0.2-1.2,0.1c-0.6-0.1-0.6-0.4-0.8-0.5
		c-0.6-0.2-0.9-0.2-1.9-0.2c0.1-0.5-0.2-0.3,0.4-0.7c-0.5,0.1-1.3,0.1-1.7-0.2c-0.2-0.2,0.1-0.6,0-0.6c-0.7-0.4-2.1,0.2-2.6-0.6
		c0.1-0.1,0.2-0.4,0.2-0.5c-0.8-0.2-1.6-0.2-2.3-0.4C269.9,380.4,269.9,380.3,269.9,380.2z"/>
	<path class="st17" d="M257.6,372.2c-0.1-0.9,1-0.3,1.6-0.4c-0.7-0.4-1.4-0.6-1.5-1.6c0.7-0.4,1.6,0.2,2.2,0.7
		c-0.2-0.3-0.3-0.9-0.3-1.3c0.8-0.2,2.1,1.2,2.7,1.8c-0.2-0.5-0.4-1.1-0.2-1.7c1,0.1,1.9,1.8,2.5,2.6c-0.1-0.4,0-0.7-0.1-1.1
		c0.8-0.3,2.1,2,2.6,2.7c-0.7-3,1.6,0.1,2.2,0.9c0-0.6-0.5-1.6,0.5-1.3c0.7,0.2,1.3,2,1.7,2.5c0.1-0.5,0-1,0.5-1.2
		c0.5,0.7,0.8,1.5,1.4,2.2c-0.2-0.4-0.2-0.9,0-1.4c0.7,0.2,1.6,2,1.9,2.7c0.1,0,0.1,0,0.2-0.1c-0.1-0.4-0.2-0.8-0.2-1.2
		c0.9,0.1,1,1.3,1.7,1.8c-0.1-0.3-0.1-0.7-0.1-1.1c0.4,0.2,1.3,1.6,1.7,2.4c-0.1-0.4,0.1-0.8,0.6-0.5c0.5,0.2,1.2,2.2,1.4,2.7
		l0.4-0.3c-0.1-0.1-0.1-0.2-0.1-0.3c0.2,0.2,0.2,0.4,0.3,0.6c-0.6,0.3-1.2-0.1-1.7-0.5c-0.9,0.1-2.1-0.1-2.2-1.3
		c0.2,1.5-1.7,0.7-2.3,0c-0.8,0.1-2.2-1-1.6-1.3c-1.3,0.2-3.5-0.1-1.7-1.2c-0.7,0-3.4,1.2-3.9,0.5c-0.4-0.6,0.8-1,1.1-1.4
		c-0.8,0.2-3,0.7-3.1-0.4c0.2-0.1,0.4-0.3,0.7-0.4c-1,0.2-3-0.1-3.3-1.1c0.2-0.1,0.4-0.2,0.7-0.3c-1.2,0.2-3.9-0.3-4.2-1.4
		c0.4,0,0.8,0,1.1,0.1C260.2,373.6,257.7,372.9,257.6,372.2z"/>
	<path class="st20" d="M275.4,331.2c-5.8,5.8-9,3.8-8.3,2.6c1.2-2.1,1.8-5.3,4-6.6c1.6-1,3.6-0.7,5.3-1.1c1.8-0.4,3.5-1.2,5.3-1.7
		c3.2-0.8,6.5-0.9,9.8-1.2c1.1-0.1,2.2-0.2,3.4-0.3l0.1,0.2C294.8,323.1,281.2,325.4,275.4,331.2z"/>
	<path class="st21" d="M303.3,323.4c0.4-0.1,0.8,1.5,1.1,1.8c-0.4,0.7-0.7,1.5-1,2.2c-0.9,1.6-2.6,4.1-3,8
		c-0.4,4.2,2.6,14.9,2.6,14.9s-4-10.3-4.4-14.6C298,329.5,301.7,323.9,303.3,323.4z"/>
	<path class="st22" d="M304.4,325.2c0,0,1.2,2.4,1.1,4.4l-1.9-2.7L304.4,325.2z"/>
	<path class="st23" d="M304.4,325.2l1.1,4.4c0,0,0.4,5.4-0.2,8.6c0,0,15.3-3.1,12.6,8.5l3.9-7.4C321.8,339.3,310.8,328,304.4,325.2z
		"/>
	<path class="st23" d="M327.2,353.3c0,0-2.2,5-4.1,2.2c-1.9-2.8-2.1-9.9-3.4-12.6l2-4.7C321.7,338.2,324,342.7,327.2,353.3z"/>
	<path class="st21" d="M328.4,365.8c0,0,4-5.1,1.7-7.7c0,0-8,1.6-11.6-0.4c0,0,2.7,2.4,9.4,2.4C327.9,360.2,331.8,359.4,328.4,365.8
		z"/>
</g>
<g id="Layer_2_1_">
	<g id="Layer_1-2">
		<path class="st24" d="M-10,386.9c0-7.5,0-15,0-22.4c0.2-6.9,5.8-12.3,12.7-12.2c0.2,0,0.5,0,0.7,0c6.5,0.4,11.6,5.9,11.5,12.4
			c0,14.2,0.1,28.4-0.1,42.5c-0.2,7.7,4.9,14.4,12.3,16.4c4.7,1.2,9.7,0.9,14.2-0.8c4.3-1.7,6.4-5.4,6.8-9.7c0.8-8,1.2-16,1.9-24
			c0.3-3.7,0.5-7.3,1-11c0.8-6.6,4-11.7,9.1-15.8c4-3.2,8.4-5.8,13.3-7.5c5-1.6,10.2-2.4,15.5-2.5c9.1-0.6,18.2,1.8,25.9,6.6
			c9.1,5.6,15.6,14.6,18.1,25c0.9,3.9,1.3,7.8,1,11.8c0,13.4,0.1,26.7,0.1,40c0.3,6.8-5,12.4-11.7,12.6c-0.7,0-1.4,0-2.1-0.1
			c-6.2-0.8-10.9-6.1-10.8-12.3c0-14-0.3-28,0.1-42.1c0.3-10.5-9.2-18.5-19.6-17.2c-8.1,1-13.2,5.7-15.9,13.2
			c-0.2,0.7-0.3,1.5-0.3,2.2c-0.1,5.3-0.2,10.6-0.5,16c-0.3,9.4-3.9,18.5-10,25.6c-6.1,7.5-14.7,12.4-24.2,14c-10.8,2-22-0.4-31-6.8
			c-11.9-8.2-17.8-19.6-17.9-34C-10,400.2-10,393.5-10,386.9z"/>
		<path class="st24" d="M269.8,448.4c-8.9-0.2-17.6-2.4-25.4-6.6c-3.6-1.8-7-4-10.1-6.5c-3.7-2.8-5.3-7.5-4.1-11.9
			c0.9-4.5,4.4-8.1,8.9-9.1c4.3-1.1,8.1,0.1,11.6,2.8c4.8,3.9,10.6,6.3,16.8,7c4.4,0.4,8.8-0.4,12.8-2.5c1.2-0.6,2.2-1.5,2.9-2.6
			c0.8-1.3,0.6-2-0.6-2.9c-1.6-1.1-3.3-2-5.2-2.7c-4.5-1.8-9.3-2.5-14-3.5c-7-1.5-13.8-3.6-19.8-7.8c-7-4.9-11.1-11.4-11.3-20.1
			c-0.1-5.9,1.9-11.6,5.6-16.2c5.5-7.1,13-10.7,21.6-12.5c12.3-2.7,23.7-0.2,34.4,6.2c2.1,1.2,4.1,2.5,6,3.9c4.5,3.5,6,9.7,3.5,14.9
			c-2.3,4.8-8.2,7.5-13.6,6.3c-2.8-0.6-5.1-2.3-7.5-3.7c-3.1-1.8-6.3-3.6-9.9-4.2c-4.8-0.8-9.3-0.2-13.4,2.6c-2.7,1.9-2.6,2.5,0.2,4
			c3.5,1.7,7.2,2.8,11.1,3.4c8,1.6,15.8,3.5,23.1,7.4c6.9,3.7,12,9,14.2,16.7c2.6,9.1,0.3,17.1-5.6,24.1c-5.5,6.7-13,10.1-21.3,12.2
			C277.2,447.9,273.5,448.4,269.8,448.4z"/>
		<path class="st24" d="M-95,382V329c0-7.5,5.1-13.1,12.6-13.2c7.3-0.1,13.2,5,13.2,12.7c0,31.1,0,62.2,0,93.3c0,1.6,0,1.6,1.6,1.6
			h46.7c4.7,0,8.6,1.6,11.4,5.5c5.4,7.5,0.9,17-7.2,19c-1.3,0.3-2.6,0.5-4,0.5h-60.7c-3,0.1-6-0.8-8.5-2.6c-3.2-2.3-5.1-6.1-5-10.1
			c0-16.4,0-32.8,0-49.2V382z"/>
		<path class="st24" d="M190.4,448.4c-14.7-0.4-27.8-5.8-38.1-17.3c-15.8-17.3-16-43.7-0.4-61.1c12.3-13.7,27.8-19.4,46.1-17.3
			c9.1,1.1,17.7,4.6,24.9,10.2c3.5,2.6,5.3,6.9,4.6,11.2c-0.6,5-3.7,8-8.3,9.6c-4.3,1.5-8.2,0.5-11.8-2c-5.1-3.6-11.2-5.4-17.4-5.2
			c-11.1,0.4-21.2,8-24.1,18.4c-2,6.8-0.4,14.1,4.3,19.5c9.2,11.2,24.6,13.3,36.9,5c2.6-1.8,5.4-3,8.6-2.7
			c6.4,0.5,12.2,4.9,11.8,12.4c-0.1,3.9-2.2,7.5-5.5,9.7C212.7,445,201.7,448.4,190.4,448.4z"/>
		<path class="st25" d="M322,419.2c10.7-3.4,20.5,5.2,19.4,15.6c-0.7,6.8-6.2,12.3-13,13c-8.9,1-16.4-5.9-16.5-14.6l0-0.1
			C312,426.9,316,421.1,322,419.2z"/>
		<path class="st25" d="M18.9,470.6c0.1-8.4,7.1-15.1,15.6-14.6c7.5,0.4,13.6,6.6,13.9,14.1c0.3,8.5-6.5,15.4-14.8,15.3
			c0,0,0,0-0.1,0C25.3,485.3,18.8,478.7,18.9,470.6z"/>
		<rect x="-129" y="291.4" class="st26" width="504" height="217"/>
	</g>
</g>
<linearGradient id="SVGID_12_" gradientUnits="userSpaceOnUse" x1="321.5229" y1="358.4128" x2="304.3099" y2="386.097" gradientTransform="matrix(0.8672 9.867225e-02 -9.623923e-02 0.8445 37.2936 19.8095)">
	<stop  offset="0" style="stop-color:#ECDED9"/>
	<stop  offset="1" style="stop-color:#C1ABAC"/>
</linearGradient>
<path class="st27" d="M239.3,360.3c-0.6,0.1-0.6-0.1-0.4-0.5c0.2-0.3,0.6-0.4,0.9-0.5c0,0,0,0,0,0c-0.2,0-0.4,0-0.6,0
	c-0.3-0.6,0.4-0.7,0.8-1c-1.1,0.4-0.6-0.7,0.1-1c-0.1,0-0.2,0.1-0.3,0.1c-0.3-0.5,0.4-1.1,0.9-1.3c-0.3,0.1-0.4,0-0.7,0
	c0.2-0.3,0.5-0.6,0.9-0.8c-0.2,0.1-0.5,0.1-0.8,0.1c0-0.5,0.5-1,1-1.2c-0.2,0-0.4,0-0.5,0.1c0.1-0.4,0.5-0.7,1-0.9
	c-0.2,0.1-0.4,0.1-0.6,0.1c-0.2-0.5,0.4-0.9,0.8-1c-0.4,0.1-0.6-0.2-0.4-0.6c0.2-0.4,1-0.5,1.3-0.6c-0.4,0.1-1,0.1-0.7-0.4
	c0.1-0.1,0.8-0.3,1.1-0.3c0,0,0,0,0,0c-0.3,0-0.7-0.1-0.7-0.5c0.3-0.1,0.6-0.3,0.9-0.3c-0.1,0-0.3,0-0.5,0c0,0-0.1-0.2-0.1-0.2
	c0.3-0.1,0.6-0.2,0.9-0.3c-0.2,0-0.4,0-0.6,0c0-0.1-0.1-0.2-0.1-0.3c0.3-0.1,0.8-0.3,1.1-0.3c-0.3-0.1-0.2-0.2-0.4-0.3
	c0.4-0.2,0.9-0.2,1.2-0.4c-0.2,0-0.3-0.1-0.4-0.2c0.2-0.1,0.5-0.2,0.8-0.1c-0.2,0-0.4-0.2-0.4-0.4c0.2-0.1,0.5-0.1,0.8,0
	c-0.2-0.1-0.4-0.3-0.4-0.6c0.4-0.1,0.9,0,1.3,0.1c-0.4-0.1-0.5-0.3-0.5-0.7c0.5,0,1.1,0.2,1.6,0.4c-0.3-0.2-0.9-0.4-0.8-0.9
	c0.4,0,0.7,0.1,1,0.2c-0.1-0.2-0.1-0.4-0.1-0.6c0.1,0,0.3,0,0.6,0.1c0-0.1,0-0.2,0.1-0.3c0.2,0,0.3,0,0.5,0c0,0,0,0,0-0.1
	c0.1,0,0.2,0,0.3,0.1c0.2,0,0.5,0,0.6,0.1c0,0,0,0,0,0c-0.7-0.3-0.6-0.5-0.7-1.1c0.6,0.1,1.3,0.1,1.9,0.1c-0.7-0.3-0.8-0.7-0.6-1.4
	c1.3,0.2,2,1.4,3.2,1.6c-0.6-0.5-0.4-0.6-0.4-1.3c0.8,0.2,1.6,0.8,2.3,1.2c-0.8-0.5-0.4-0.4-0.5-1.2c0.9,0.4,1.9,1,2.8,1.6
	c-0.7-0.6-0.2-0.4-0.4-1.1c1.1,0.2,2.1,1,2.7,1.9c-0.2-0.4-0.1-0.6-0.1-1c1,0,1.8,0.7,2.5,1.4c-0.4-0.6-0.1-0.6-0.1-1.1
	c0.7,0.3,1.2,0.9,1.7,1.6c-0.1-0.3,0-0.5-0.1-0.8c0.8,0.3,1.4,1,2,1.7c-0.3-0.4-0.1-0.3-0.2-0.9c0.7,0.3,1.3,0.8,1.7,1.4
	c-0.3-0.5-0.2-0.5-0.3-1.1c0.5,0.2,1,0.6,1.4,0.9c0,0,0,0,0,0c0.1,0,0.3,0,0.4,0c0-0.1,0.1-0.2,0.1-0.3c0.2,0.2,0.4,0.4,0.6,0.6
	c0-0.1,0-0.2,0-0.3c0.3,0.2,0.6,0.6,0.8,1c0,0,0,0,0,0c-0.1-0.2-0.1-0.5-0.1-0.7c0.5-0.1,0.6,0.4,0.8,0.9c0,0,0,0,0,0
	c-0.1-0.2-0.1-0.5,0.1-0.7c0.3,0.2,0.6,0.6,0.8,1c0,0,0,0,0,0c-0.1-0.2,0-0.5,0-0.7c0.5-0.1,0.8,0.5,0.9,1c0,0,0,0,0,0
	c0-0.4,0-0.7,0.4-0.9c0.1,0.3,0.3,0.7,0.4,1.1c0-0.2,0.1-0.5,0.1-0.7c0.3,0.2,0.5,0.6,0.5,1.1c0,0,0,0,0,0c0-0.3-0.1-0.5-0.2-0.8
	c0.5-0.2,0.7,0.3,0.9,0.8c0-0.1,0-0.3,0-0.4c0.5-0.1,0.6,0.4,0.8,0.7c0-0.2,0-0.6,0.1-0.8c0.5,0.4,0.6,1,0.9,1.4c0-0.2,0-0.6,0-0.8
	c0.4,0.3,0.6,0.8,0.7,1.3c0.4-0.1,0.2-0.6,0.2-1c0.6,0,1,1.1,1.2,1.6c0.3-1.5,0.7-0.3,1.3,0.5c-0.1-0.3-0.1-0.6-0.2-0.9
	c0.5,0.1,0.4,0.6,0.8,1c0-0.3,0-0.6,0-0.8c0.2,0.4,0.6,0.8,0.9,1.2c0,0,0,0,0,0c-0.1-0.2-0.1-0.4-0.1-0.6c0.4,0.1,0.7,0.6,1,0.9
	c0.1,0,0.1,0.1,0.2,0.1c0-0.2-0.1-0.4-0.1-0.6c0.4,0,0.6,0.5,0.8,0.9c0.1,0,0.2,0.1,0.2,0.1c-0.1-0.3-0.1-0.6,0-0.8
	c0.7,0.2,0.7,1,1.2,1.3c-0.1-0.3,0-0.4,0-0.6c0.5,0.1,0.8,0.7,1,1.2c0,0,0.1,0,0.1,0.1c-0.1-0.3-0.1-0.6-0.1-0.9
	c0.5,0.1,0.8,0.6,0.9,1.1c0-0.2-0.1-0.4-0.1-0.6c0.6-0.1,1,0.8,1.3,1.5c0,0,0,0,0.1,0c-0.1-0.3-0.1-0.5-0.1-0.8
	c0.5-0.1,0.8,0.8,1.1,1.4c0.1,0,0.1,0.1,0.2,0.1c0-0.3,0-0.6,0.1-0.8c0.5,0.2,0.6,0.8,0.7,1.3c0,0,0,0,0,0c-0.1-0.4-0.2-0.8,0.4-0.9
	c0.2,0.5,0.3,1,0.5,1.4c0,0,0.1,0,0.1,0.1c-0.1-0.5-0.2-1.1,0.3-0.8c0.2,0.1,0.5,1.1,0.6,1.4c0,0,0,0,0,0c-0.1-0.4-0.2-0.8,0.3-1
	c0.2,0.5,0.3,1.2,0.6,1.6c-0.1-0.4-0.1-0.8,0.3-0.9c0.2,0.5,0.3,1.1,0.6,1.6c0,0,0,0,0,0c-0.1-0.2,0-0.5,0-0.8c0.1,0,0.2,0,0.3-0.1
	c0.2,0.4,0.3,0.9,0.5,1.3c0,0,0,0,0.1,0.1c0-0.3,0-0.6,0.3-0.7c0.1,0.4,0.2,0.8,0.3,1.1c0,0,0.1,0.1,0.1,0.1c0.1-0.4,0.1-0.7,0.3-1
	c0.3,0.5,0.1,1,0.3,1.5c0,0,0,0,0,0c0-0.4,0.1-0.7,0.4-0.8c0.2,0.5,0.3,1,0.5,1.4c0-0.4,0.1-0.5,0.4-0.7c0.2,0.4,0.3,0.9,0.5,1.3
	c0-0.4,0.2-0.5,0.2-0.6c0.1,0.4,0.2,0.9,0.3,1.3c0,0,0,0,0,0c0-0.3,0.2-0.6,0.3-0.9c0.2,0.4,0.2,0.9,0.4,1.3c0-0.4,0.2-0.4,0.4-0.6
	c0,0.3,0.1,0.7,0.3,1c0.1-0.3,0.3-0.5,0.5-0.6c0.1,0.4,0.1,0.8,0.1,1.2c0-0.4,0.2-0.5,0.5-0.7c0.1,0.4,0,0.9,0.1,1.3
	c0,0,0.1-0.1,0.1-0.1c0.1-0.2,0.1-0.3,0.2-0.5c0.1,0.1,0.2,0.6,0.2,0.9c0.1,0.2,0.1,0.3,0.1,0.5c0,0,0,0,0,0
	c0.2-0.3,0.2-0.2,0.4-0.4c0,0.2,0.1,0.5,0,0.7c0.1-0.3,0.4-0.5,0.8-0.5c0.2,0.5,0,1-0.1,1.4c0,0,0,0,0,0c0.2-0.2,0.4-0.2,0.7-0.3
	c-0.1,0.3-0.2,0.7-0.3,1c0.1,0.2,0.2,0.3,0.2,0.5c0.2-0.1,0.4-0.2,0.6-0.2c0,0.5-0.1,0.9-0.2,1.4c0,0,0,0.1,0,0.1
	c0.2-0.2,0.5-0.3,0.8-0.3c0.2,0.4,0,0.7-0.3,1c0.3-0.1,0.7-0.2,0.9-0.3c-0.2,0.5-0.6,0.9-1,1.3c0.2-0.2,0.5-0.3,0.9-0.3
	c-0.2,0.4-0.6,0.9-0.9,1.2c0.3-0.1,0.6-0.2,0.8-0.1c-0.3,0.4-0.9,1-1.4,1.3c0,0,0,0,0,0c0.4-0.2,0.9-0.4,1.3-0.3
	c-0.2,0.5-0.9,0.9-1.4,1.1c0.5,0,1-0.3,1.5-0.3c-0.1,0.6-0.6,1-1.2,1.2c0.4-0.1,0.9-0.2,1.2-0.2c0.1,0.5-0.4,0.7-0.9,0.8
	c0.7,0-0.1,0.9-0.9,1.1c0.2,0,0.4-0.1,0.6-0.1c0.3,0.6-0.3,0.7-0.8,0.8c0.1,0,0.2,0,0.3,0c0.1,0.1,0.1,0.3,0.1,0.4
	c-0.2,0.1-0.5,0.2-0.8,0.2c0.2,0,0.4,0,0.6,0.1c0,0.1,0.1,0.1,0.1,0.2c-0.4,0.3-1,0.4-1.5,0.6c0.5,0,1-0.1,1,0.5
	c-0.4,0.2-0.9,0.3-1.3,0.4c0.2,0,0.4,0.1,0.5,0.3c-0.4,0.2-0.8,0.2-1.2,0.3c0.3,0,0.8,0,0.9,0.4c-0.5,0.3-1.1,0.2-1.6,0.4
	c0,0,0,0,0,0c0.4-0.1,0.9-0.1,0.9,0.5c-0.3,0-0.7,0.1-1,0.1c0.4,0,0.7,0,0.8,0.4c-0.4,0.2-0.8,0.2-1.2,0.3c0.2,0,0.3,0.1,0.5,0.1
	c0.1,0.1,0.1,0.2,0.1,0.3c-0.3,0.2-0.6,0.2-0.9,0.1c0.1,0,0.1,0.1,0.2,0.1c-0.4,0.2-0.8,0.3-1.3,0.4c0.1,0,0.2,0,0.2,0
	c0.1,0.2,0.1,0.3,0.1,0.5c-0.3,0.1-0.6,0.1-0.9,0.1c0.3,0.1,0.5,0.3,0.3,0.6c-0.2,0.4-1.3,0.1-1.6,0c0.5,0.1,0.3,0.1,0.5,0.4
	c-0.3,0.1-0.6,0.2-0.9,0.2c0.2,0.1,0.3,0.3,0.3,0.6c-0.6,0.4-1.2,0-1.6-0.4c-0.1,0-0.2,0.1-0.3,0.1c5.1-9.2-45.5-26.9-55.2-23
	c-0.1,0.1-0.2,0.2-0.2,0.3c-0.4,0.5-0.6,1.7-1.2,1.7c0-0.3,0.1-0.5,0.3-0.5c-0.2-0.2-0.2-0.4-0.1-0.5c0,0-0.1,0.1-0.1,0.1
	c0-0.1,0.1-0.2,0.1-0.3c0,0-0.1,0-0.1,0c-0.2-0.4,0-0.8,0.4-1.1c0,0,0-0.1,0-0.1c-0.1,0-0.2,0-0.3,0c0-0.4,0.2-0.6,0.5-0.8
	c0,0,0-0.1,0-0.1C238.5,361.7,238.5,360.6,239.3,360.3z"/>
</svg>
