<svg xmlns="http://www.w3.org/2000/svg" viewBox="0 0 800.3 246.25"><defs><style>.cls-1{fill:#d1effa;}.cls-2{fill:#00a8e1;}.cls-3{fill:#fff;}.cls-4{fill:#232f3e;}</style></defs><g id="Layer_2" data-name="Layer 2"><g id="Layer_1-2" data-name="Layer 1"><g id="Layer_2-2" data-name="Layer 2"><g id="Ebene_1" data-name="Ebene 1"><path class="cls-1" d="M396.5,246.25v-.4a1.9,1.9,0,0,1,1.7-.7c2.9-.1,5.7-.1,8.6,0a2.19,2.19,0,0,1,1.7.7v.4Z"/><path class="cls-2" d="M408.5,245.85q-6-.15-12,0c-5.5-.3-11-.5-16.5-.9a286.52,286.52,0,0,1-43.3-6.6c-49.1-11.4-92.2-34.3-129.8-67.6-3.5-3.1-6.8-6.3-10.2-9.5a7.36,7.36,0,0,1-1.9-2.7,3.68,3.68,0,0,1,.7-4,3.54,3.54,0,0,1,4-.9,21,21,0,0,1,2.6,1.3,389.09,389.09,0,0,0,116.2,48,423.66,423.66,0,0,0,41.7,7.5,383.74,383.74,0,0,0,60.6,2.7,321.18,321.18,0,0,0,32.5-2.7,392.93,392.93,0,0,0,74.2-16.9A350,350,0,0,0,564.5,179a8.35,8.35,0,0,1,6-.8,6.21,6.21,0,0,1,4.5,7.5,6.94,6.94,0,0,1-.5,1.3,11,11,0,0,1-3.3,3.8,222.62,222.62,0,0,1-37,23.5,293.07,293.07,0,0,1-78.3,26.5A343.41,343.41,0,0,1,408.5,245.85Z"/><path class="cls-2" d="M260.4,43.15c2.5-1.5,5.1-3.1,7.8-4.5a44.7,44.7,0,0,1,22.7-5c5.7.3,10.9,1.9,14.9,6.1,3.8,3.9,5.2,8.7,5.6,13.9.1,1.1.1,2.2.1,3.4v51.8c0,4.5-.6,5.1-5.1,5.1H294.2a19.27,19.27,0,0,1-2.4-.1,2.76,2.76,0,0,1-2.4-2.3,18.29,18.29,0,0,1-.2-3.3V62a16.91,16.91,0,0,0-.6-5.5,7.48,7.48,0,0,0-6.8-5.5,35.3,35.3,0,0,0-17.2,3.3,1.65,1.65,0,0,0-1.2,1.8v52.6a14.15,14.15,0,0,1-.2,2.9,2.39,2.39,0,0,1-2.5,2.4h0c-1.5.1-3,.1-4.6.1H245.5c-3.7,0-4.5-.9-4.5-4.6V62.15a22.92,22.92,0,0,0-.5-5.2,7.55,7.55,0,0,0-7-6,35.2,35.2,0,0,0-17.5,3.4,1.6,1.6,0,0,0-1.1,1.9v53.3c0,3.7-.8,4.5-4.5,4.5H197c-3.5,0-4.4-1-4.4-4.4V40.25a9.86,9.86,0,0,1,.3-2.4,2.92,2.92,0,0,1,2.8-1.9h12.5c1.8,0,2.9,1.1,3.5,2.8.5,1.4.8,2.7,1.3,4.2,1,0,1.6-.7,2.3-1.1,5.5-3.4,11.3-6.3,17.8-7.5a37.88,37.88,0,0,1,15,0,18.74,18.74,0,0,1,11.6,7.8,4.35,4.35,0,0,0,.6.7C260.2,43,260.3,43,260.4,43.15Z"/><path class="cls-3" d="M467.7,93c.6-2,1.2-3.9,1.8-5.9,4.6-15.5,9.2-30.9,13.8-46.4l.6-1.8a4.08,4.08,0,0,1,4-2.9h15.2c3.8,0,4.6,1.1,3.3,4.7l-6,15.9c-6.7,17.4-13.4,34.9-20.1,52.3-.2.6-.5,1.2-.7,1.8a4.87,4.87,0,0,1-5,3.3q-6.6-.15-13.2,0c-3.1.1-4.9-1.3-6-4.1-2.5-6.6-5.1-13.3-7.6-19.9-6-15.7-12.1-31.4-18.1-47.2a17.87,17.87,0,0,1-1.3-3.9c-.3-2,.4-3,2.4-3,5.7-.1,11.4,0,17,0,2.4,0,3.5,1.6,4.1,3.7,1.1,3.8,2.2,7.7,3.4,11.5,4.1,13.9,8.1,27.9,12.2,41.8C467.4,93,467.5,93,467.7,93Z"/><path class="cls-2" d="M112.6,47a3,3,0,0,0,1.7-1.2,69.1,69.1,0,0,1,5.7-5.1,26.61,26.61,0,0,1,18.2-5.5c2.6.1,3.5.9,3.7,3.4.2,3.4.1,6.9.1,10.3a18.8,18.8,0,0,1-.2,4.1c-.4,1.8-1.1,2.5-2.9,2.7a28.08,28.08,0,0,1-4.1-.1c-6.7-.6-13.2.7-19.5,2.8-1.4.5-1.4,1.5-1.4,2.6v48a22.6,22.6,0,0,1-.1,2.6,2.41,2.41,0,0,1-2.4,2.3,16.2,16.2,0,0,1-2.2.1h-13a16.2,16.2,0,0,1-2.2-.1,2.68,2.68,0,0,1-2.4-2.5,19.27,19.27,0,0,1-.1-2.4V41c0-4.6.5-5.1,5.1-5.1h9.6c2.6,0,3.8.9,4.5,3.4S112,44.25,112.6,47Z"/><path class="cls-2" d="M580.4,148.35c6.6.2,13.1.6,19.5,2.3a32.38,32.38,0,0,1,5.2,1.9,6.74,6.74,0,0,1,4.1,5.5,41,41,0,0,1,.3,8.6A110.27,110.27,0,0,1,594.1,215a66.7,66.7,0,0,1-11.6,14.3,8.25,8.25,0,0,1-3.2,2c-1.9.5-3.1-.5-3.2-2.4a10.88,10.88,0,0,1,.7-3c3.5-9.4,6.9-18.7,9.6-28.4a99.24,99.24,0,0,0,3.4-16.2,30.09,30.09,0,0,0,.1-6,7.8,7.8,0,0,0-5.6-7.3,38.79,38.79,0,0,0-9.6-1.8,157.87,157.87,0,0,0-27.5,1.2l-12.1,1.5c-1.3.1-2.5,0-3.2-1.2a3.38,3.38,0,0,1,.3-3.6,10,10,0,0,1,3-2.8c7.4-5.3,15.7-8.5,24.5-10.6A119.26,119.26,0,0,1,580.4,148.35Z"/><path class="cls-3" d="M538.5,75v36c-.2,2-1.1,2.9-3.1,3-5.4.1-10.7.1-16.1,0-2,0-2.9-1-3.1-2.9a12.1,12.1,0,0,1-.1-1.9V40c.1-3.1.9-4,4-4h14.4c3.1,0,4,.9,4,4V75Z"/><path class="cls-2" d="M151.6,74.75V39.25c.1-2.4,1-3.3,3.4-3.4q7.8-.15,15.6,0c2.3,0,3,.7,3.2,3a22.6,22.6,0,0,1,.1,2.6v66.6c0,1.1-.1,2.2-.2,3.3a2.49,2.49,0,0,1-2.4,2.3,9.7,9.7,0,0,1-1.7.1H155.7a6.6,6.6,0,0,1-1.4-.1,2.89,2.89,0,0,1-2.7-2.6,19.27,19.27,0,0,1-.1-2.4C151.6,97.55,151.6,86.15,151.6,74.75Z"/><path class="cls-2" d="M163.2.05a12.49,12.49,0,0,1,4.7.7c5.4,1.8,8.2,6.5,7.7,12.6a11.17,11.17,0,0,1-9.5,10.2,18.85,18.85,0,0,1-6.7,0c-5.7-1.1-9.9-5.3-9.5-12.5C150.5,4,155.2.05,163.2.05Z"/><path class="cls-3" d="M527.4.05a12.09,12.09,0,0,1,5.9,1,10.52,10.52,0,0,1,6.8,9.3c.8,9.1-5.3,13.7-13.4,13.5a18.59,18.59,0,0,1-3.3-.4c-6.2-1.5-9.4-6.3-8.8-13.2.5-5.5,4.8-9.6,10.7-10.1A7.41,7.41,0,0,1,527.4.05Z"/><path class="cls-2" d="M76.7,66.55a45.54,45.54,0,0,0-3.9-15c-4.1-8.6-10.4-14.9-20-17.1-11-2.4-20.9,0-29.9,6.7a8,8,0,0,1-2.1,1.5c-.2-.1-.4-.2-.4-.3-.3-1-.5-2-.8-3-.8-2.5-1.8-3.4-4.5-3.4-3,0-6.1.1-9.1,0-2.3-.1-4.4.2-6,2,0,35,0,70.1.1,105,1.3,2.1,3.3,2.5,5.6,2.4,3.6-.1,7.2,0,10.8,0,6.3,0,6.3,0,6.3-6.2v-28.5c0-.7-.3-1.5.4-2.1a33.59,33.59,0,0,0,17.4,6.9c8.8.9,16.8-1.3,23.5-7.3a37,37,0,0,0,10.4-16.7C77.2,83.25,77.4,75,76.7,66.55ZM52.8,87.25a15.41,15.41,0,0,1-4.6,8,14.24,14.24,0,0,1-9.2,3.5,27.44,27.44,0,0,1-14.6-3.2,2.84,2.84,0,0,1-1.7-2.8V74.65c0-6,.1-12,0-18a3,3,0,0,1,2-3.1c5.5-2.6,11.2-3.8,17.2-2.6a12.22,12.22,0,0,1,9.5,7.2A27.94,27.94,0,0,1,54,68.35C54.6,74.75,54.6,81.15,52.8,87.25Z"/><path class="cls-4" d="M800.1,82.15Z"/><path class="cls-3" d="M800.2,68.75v.4a1.44,1.44,0,0,1-.4-1.5v-.8a.1.1,0,0,1,.1-.1h-.1v-1h.2c0-.1-.1-.1-.1-.2a34.67,34.67,0,0,0-1.1-5.6c-3.7-13.2-12-21.9-25.5-25.3a49.14,49.14,0,0,0-19.1-.7c-13.5,2-23.2,9.2-27.9,22a53.5,53.5,0,0,0,.1,37.8c4,11.1,12,18.1,23.5,21a49.53,49.53,0,0,0,18.8,1c21-2.5,29.7-18.4,31.1-32.2h-.1v-1.4c-.1-.6-.2-1.1.4-1.5v.2a.76.76,0,0,1,.2-.4V69C800.3,68.85,800.2,68.85,800.2,68.75Zm-24,19a18.32,18.32,0,0,1-2.8,5.8,13,13,0,0,1-9.5,5.4,18.2,18.2,0,0,1-5.7-.2,12.85,12.85,0,0,1-9.4-7.5,28.61,28.61,0,0,1-2.7-9.9c-.5-5.9-.6-11.8.8-17.6a22.4,22.4,0,0,1,2.7-6.6A13,13,0,0,1,759.8,51a18.2,18.2,0,0,1,5.7.2,12.88,12.88,0,0,1,9.1,7.1,29.52,29.52,0,0,1,2.9,11.3,48.66,48.66,0,0,1,.1,5.4A36.55,36.55,0,0,1,776.2,87.75Z"/><path class="cls-3" d="M624.9.75H611c-3.8,0-4.5.7-4.5,4.5v32.4c0,.7.3,1.4-.2,2.1-.9-.1-1.4-.7-2.1-1.1-10.4-6.1-21.3-7.2-32.3-2.1-7.7,3.6-12.5,10.1-15.6,17.8-3,7.4-3.7,15.2-3.5,23.1a47.63,47.63,0,0,0,5,21.3c3.8,7.3,9.3,12.9,17.3,15.3,10.9,3.4,21.1,1.7,30.4-5.2.7-.4,1.1-1.1,2-1.3a14.25,14.25,0,0,1,1.1,3.5,3.55,3.55,0,0,0,3.5,2.7h2.4c3.6,0,7.1.1,10.6,0,2.8,0,3.6-.9,3.7-3.8V4.55C628.7,1.45,627.9.75,624.9.75Zm-18.3,73.6v18.2a2.63,2.63,0,0,1-1.6,2.8,24.65,24.65,0,0,1-15.7,3A13.69,13.69,0,0,1,578.6,91a27.72,27.72,0,0,1-2.8-10.1,51.68,51.68,0,0,1,1.2-18.8,23,23,0,0,1,2-4.9,12.91,12.91,0,0,1,10.5-6.7,30.19,30.19,0,0,1,15.4,2.7,2.75,2.75,0,0,1,1.8,2.9c-.2,6.2-.1,12.2-.1,18.3Z"/><path class="cls-2" d="M348,81.25a66.57,66.57,0,0,0,22.7.3,36.61,36.61,0,0,0,12.5-4c4.5-2.6,7.8-6.2,9.2-11.2,3.5-12.6-1.9-25.3-15-30a44.75,44.75,0,0,0-19.9-1.9c-15.8,1.8-26.1,10.5-30.8,25.6-3.3,10.3-2.9,20.8-.2,31.2,3.5,13.3,12.3,21.2,25.6,24,7.6,1.7,15.3,1.4,22.9.2a60.59,60.59,0,0,0,11.8-3.2c2.3-.9,3.5-2.3,3.4-4.9-.1-2.4,0-4.9,0-7.4,0-3-1.2-3.9-4.1-3.2s-5.7,1.3-8.6,1.9a49.55,49.55,0,0,1-18.8.2c-8.5-1.7-14-9-13.5-18A27,27,0,0,1,348,81.25ZM345.5,66a27.15,27.15,0,0,1,1.9-6.9c3-7.3,9.3-9.8,15.7-9.4a16.32,16.32,0,0,1,5.3,1.2,7.63,7.63,0,0,1,4.6,6.3,11.47,11.47,0,0,1-.3,5.2c-1.2,3.6-4.1,5.1-7.6,5.8a20.21,20.21,0,0,1-6.5.5,78.14,78.14,0,0,1-11.8-.9C345.3,67.55,345.3,67.55,345.5,66Z"/><path class="cls-3" d="M685.3,82.25c5.8-.4,11.6-1.5,16.8-4.3a18.6,18.6,0,0,0,10.1-13.3,27.17,27.17,0,0,0-.1-11c-2.1-9-7.8-14.6-16.4-17.5a44.26,44.26,0,0,0-14.9-1.9c-16.8.4-29.6,8.9-34.8,25.7-3.5,11.1-3,22.4.4,33.5,3.5,11.4,11.5,18.3,22.9,21.4a54.25,54.25,0,0,0,15,1.5,63.57,63.57,0,0,0,21.5-4.1c2.9-1.1,3.6-2.1,3.6-5.2v-7.2c-.1-2.9-1.3-3.9-4.2-3.2-2.2.6-4.3,1.1-6.5,1.6a50.58,50.58,0,0,1-20.5.7c-6.8-1.3-11.4-5.2-13.2-12a41,41,0,0,1-1.1-6.1,3.18,3.18,0,0,1,1.4.2A78.9,78.9,0,0,0,685.3,82.25Zm-20.9-16c.7-3.9,1.6-7.7,4-10.9,3.7-4.9,8.8-6.3,14.6-5.7.5,0,.9.2,1.4.2,7,1.1,8.7,6.7,7.4,12.1-1,4-4.3,5.5-8,6.2a25.56,25.56,0,0,1-6.2.5,97.1,97.1,0,0,1-12.1-1c-.9-.1-1.3-.5-1.1-1.4Z"/></g></g></g></g></svg>