<svg xmlns="http://www.w3.org/2000/svg" xmlns:xlink="http://www.w3.org/1999/xlink" viewBox="0 0 655.11 117.29"><defs><style>.cls-1{fill:#fff;}.cls-1,.cls-2,.cls-3{fill-rule:evenodd;}.cls-2{fill:url(#Adsız_degrade_2);}.cls-3{fill:#678e9d;}</style><linearGradient id="Adsız_degrade_2" x1="22.26" y1="-74.44" x2="22.26" y2="-78.49" gradientTransform="matrix(13.46, 0, 0, -20.82, 44.28, -1519.24)" gradientUnits="userSpaceOnUse"><stop offset="0" stop-color="#e4408c"/><stop offset="1" stop-color="#c44a88"/></linearGradient></defs><g id="Layer_2" data-name="Layer 2"><g id="katman_1" data-name="katman 1"><g id="Symbols"><g id="Navigation-_-Logged-Out-_web_" data-name="Navigation-/-Logged-Out-(web)"><g id="Logo-_-White-Colored-_web_" data-name="Logo-/-White-Colored-(web)"><g id="Showmax_white" data-name="Showmax white"><path id="h" class="cls-1" d="M74.3,3l29.79-3V41.52c5.49-7.1,13.33-13.58,25.4-13.58,18,0,28.85,12,28.85,31.42V115H128.71V69c0-9.48-4.87-14.53-12.08-14.53s-12.54,5-12.54,14.53v46H74.3V3"/><path id="o" class="cls-1" d="M221.25,72.93v-.31c0-10.58-7.68-19.42-18.19-19.42-10.82,0-17.72,8.68-17.72,19.1v.32c0,10.42,7.53,19.26,18,19.26,10.82,0,17.88-8.69,17.88-18.95Zm-64.76,0v-.31c0-24.31,19.76-44.68,46.88-44.68S250.1,48,250.1,72.3v.32c0,24.31-19.76,44.67-47,44.67-27,0-46.57-20.05-46.57-44.36Z"/><polyline id="w" class="cls-1" points="329.19 73.94 315.11 30.2 290.65 30.2 277.48 72.54 266.35 30.2 237.34 30.2 263.21 115.03 288.61 115.03 302.73 70.93 316.52 115.03 329.19 73.94"/><polyline id="m" class="cls-1" points="458.13 30.2 432.73 30.2 418.61 74.45 404.79 30.2 392.37 70.46 406.23 115.03 430.69 115.03 443.86 72.69 454.99 115.03 484 115.03 458.13 30.2"/><path id="s" class="cls-1" d="M0,104.32l11.13-18c9.72,6.48,20.23,9.79,29,9.79,5.18,0,7.68-1.57,7.68-4.57v-.32c0-3.47-4.86-4.9-13.79-7.42C17.25,79.38,3.92,73.7,3.92,56.64v-.31c0-18.16,14.43-28.26,34-28.26,12.38,0,25.24,3.63,35,9.94L62.72,57c-8.78-5.05-18.34-8.05-25.09-8.05-4.54,0-6.9,1.73-6.9,4.26v.32c0,3.31,5,4.89,13.8,7.57C61.31,65.8,74.64,71.64,74.64,88.22v.32c0,18.78-14,28.57-34.65,28.57A67.42,67.42,0,0,1,0,104.32"/><path id="ax" class="cls-1" d="M561.49,97V49l22.36,24L561.49,97ZM537.42,72.66c0,11.36-8.33,19.42-18,19.42-9.57,0-18.06-8.06-18.06-19.42v-.32c0-11.37,8.49-19.42,18.06-19.42s18,8.21,18,19.42v.32ZM655.11,30.2H617L601.25,49.79,585.51,30.2H535.92V40.29C529.9,33.82,523,28,510.13,28c-20.07,0-37.4,16.89-37.4,44.68V73c0,27.32,17.33,44.21,37.55,44.21,12.7,0,19.62-6.16,25.64-13.26V115h50l15.35-19.09L616.6,115h38.11l-34.4-42.16,34.8-42.67Z"/><polyline id="_m" data-name="/m" class="cls-2" points="342.69 30.2 371.37 30.2 345.19 115.03 316.52 115.03 342.69 30.2"/><polyline id="_m-2" data-name="/m" class="cls-3" points="376.13 30.2 404.81 30.2 378.64 115.03 349.96 115.03 376.13 30.2"/></g></g></g></g></g></g></svg>