<svg xmlns="http://www.w3.org/2000/svg" viewBox="0 0 40 40"><defs><style>.cls-1{fill:#a7e92f;}.cls-2{fill:#1b1b1c;fill-rule:evenodd;}</style></defs><g id="Layer_2" data-name="Layer 2"><g id="Layer_1-2" data-name="Layer 1"><path class="cls-1" d="M0,20c0-5.55,0-8.33.77-10.56A14.07,14.07,0,0,1,9.44.77C11.67,0,14.45,0,20,0s8.33,0,10.56.77a14,14,0,0,1,8.67,8.67C40,11.67,40,14.45,40,20s0,8.33-.77,10.56a14,14,0,0,1-8.67,8.67C28.33,40,25.55,40,20,40s-8.33,0-10.56-.77A14,14,0,0,1,.77,30.56C0,28.33,0,25.55,0,20Z"/><path class="cls-2" d="M12.49,9.48h0a4.3,4.3,0,0,0-.66,0,.79.79,0,0,0-.74.75,4.1,4.1,0,0,0,0,.65v1.73a4.1,4.1,0,0,0,0,.65.79.79,0,0,0,.74.75,4.3,4.3,0,0,0,.66,0h1.85A4.3,4.3,0,0,0,15,14a.82.82,0,0,0,.52-.23.91.91,0,0,0,.23-.52,6.13,6.13,0,0,0,0-.65V10.91a6.13,6.13,0,0,0,0-.65.91.91,0,0,0-.23-.52A.82.82,0,0,0,15,9.51a4.3,4.3,0,0,0-.66,0Zm0,7.89h0a6.44,6.44,0,0,0-.66,0,.85.85,0,0,0-.51.23.82.82,0,0,0-.23.52,4.3,4.3,0,0,0,0,.66V29a4.23,4.23,0,0,0,0,.65.82.82,0,0,0,.23.52.8.8,0,0,0,.51.23,6.44,6.44,0,0,0,.66,0h1.85a6.44,6.44,0,0,0,.66,0,.88.88,0,0,0,.52-.23.94.94,0,0,0,.23-.52,6.33,6.33,0,0,0,0-.65V18.8a6.44,6.44,0,0,0,0-.66.94.94,0,0,0-.23-.52.88.88,0,0,0-.52-.23,6.44,6.44,0,0,0-.66,0Zm8.12-7.89h2A10.32,10.32,0,0,1,33.28,20,10.32,10.32,0,0,1,22.65,30.47h-2a4.3,4.3,0,0,1-.66,0,.82.82,0,0,1-.52-.23.91.91,0,0,1-.23-.52,6.13,6.13,0,0,1,0-.65V27.35a6.33,6.33,0,0,1,0-.65.94.94,0,0,1,.23-.52A.82.82,0,0,1,20,26a4.3,4.3,0,0,1,.66,0h2a5.89,5.89,0,0,0,4.26-1.65A6,6,0,0,0,28.57,20a5.94,5.94,0,0,0-1.66-4.29A5.86,5.86,0,0,0,22.65,14h-2A4.3,4.3,0,0,1,20,14a.82.82,0,0,1-.52-.23.92.92,0,0,1-.23-.51,6.44,6.44,0,0,1,0-.66V10.91a6.33,6.33,0,0,1,0-.65.94.94,0,0,1,.23-.52A.82.82,0,0,1,20,9.51a6.44,6.44,0,0,1,.66,0Z"/></g></g></svg>